<svg width="24" height="24" viewBox="0 0 24 24" fill="none" xmlns="http://www.w3.org/2000/svg">
<path d="M14.1208 10.4796C13.7303 10.0891 13.0971 10.0891 12.7066 10.4796L11.9995 11.1868C11.2184 11.9678 9.9521 11.9678 9.17105 11.1868C8.39 10.4057 8.39 9.13937 9.17105 8.35832L14.8017 2.72617C16.9056 2.25022 19.2003 2.83124 20.8383 4.46924C23.2577 6.8886 23.3711 10.7407 21.1787 13.2944L19.0705 15.4294L14.1208 10.4796ZM3.16064 4.46924C5.33403 2.29584 8.66362 1.98332 11.1695 3.53165L7.75683 6.94411C6.19474 8.50621 6.19474 11.0389 7.75683 12.601C9.2716 14.1157 11.699 14.1616 13.269 12.7387L13.4137 12.601L17.6563 16.8436L13.4137 21.0862C12.6326 21.8673 11.3663 21.8673 10.5853 21.0862L3.16064 13.6616C0.622234 11.1232 0.622234 7.00764 3.16064 4.46924Z" fill="#233DFF"/>
</svg>
