<svg width="365" height="274" viewBox="0 0 365 274" fill="none" xmlns="http://www.w3.org/2000/svg">
<g clip-path="url(#clip0_393_5371)">
<path opacity="0.24" d="M346.716 213.936C345.632 217.891 343.992 221.682 341.843 225.204C329.398 246.268 305.051 258.438 280.523 263.389C255.995 268.341 230.686 267.277 205.648 268.397C171.871 269.9 138.171 275.421 104.38 273.656C88.3626 272.791 72.4829 270.296 57.0027 266.213C46.63 263.471 25.1938 259.896 18.9199 250.563C14.9954 244.747 14.3499 233.849 14.2208 224.672C16.5703 225.029 18.894 225.567 20.9466 225.755C27.8919 226.381 34.9211 226.45 41.8857 226.656C56.6326 227.119 71.3903 227.426 86.1586 227.576C144.944 228.181 203.682 226.304 262.372 221.942C290.541 219.839 318.655 217.17 346.716 213.936Z" fill="#3850FF"/>
<path opacity="0.24" d="M82.833 230.514C77.8224 231.408 72.8562 232.559 67.7951 233.031C64.5095 233.346 60.8827 233.51 58.5007 235.788C57.9339 236.272 57.5578 236.941 57.4392 237.676C57.3065 239.249 58.9556 240.35 60.4341 240.929C64.7496 242.628 69.4316 243.113 74.063 243.409C81.5946 243.881 89.1514 243.893 96.7083 243.9H119.202C125.849 243.9 133.216 243.629 137.974 239.016C138.979 238.151 139.66 236.974 139.907 235.674C140.173 233.572 138.568 231.59 136.628 230.709C133.273 229.186 128.25 229.501 124.623 229.098C119.842 228.607 115.059 228.326 110.274 228.255C101.076 228.147 91.8883 228.903 82.833 230.514Z" fill="#6877FD"/>
<path opacity="0.24" d="M349.259 207.017C349.092 208.792 348.768 210.551 348.289 212.271C347.203 216.247 345.561 220.058 343.407 223.598C330.942 244.773 306.554 257.006 281.986 261.984C257.417 266.962 232.066 265.892 206.987 267.018C173.179 268.528 139.423 274.079 105.577 272.304C89.5323 271.435 73.6262 268.927 58.1204 264.822C-27.4263 262.19 41.3077 184.579 24.2092 111.588C26.0648 93.4395 28.2307 74.4166 38.8728 59.4085C51.461 41.6252 73.7473 32.765 95.5552 28.9139C117.363 25.0627 139.792 25.2578 161.503 20.834C196.927 13.5974 231.174 -5.92897 266.889 -0.366192C301.951 5.08961 330.399 37.5853 330.38 72.1324C330.38 96.3845 319.072 120.498 325.563 144.65C331.207 165.63 351.457 184.206 349.259 207.017Z" fill="#8C9AFF"/>
<path d="M323.148 211.372H40.9119C40.7909 211.372 40.6749 211.324 40.5893 211.239C40.5038 211.154 40.4557 211.038 40.4557 210.918C40.458 210.798 40.5068 210.684 40.5919 210.599C40.677 210.514 40.7917 210.466 40.9119 210.463H323.148C323.268 210.466 323.383 210.514 323.468 210.599C323.553 210.684 323.602 210.798 323.604 210.918C323.604 211.038 323.556 211.154 323.471 211.239C323.385 211.324 323.269 211.372 323.148 211.372Z" fill="#D1D3D4"/>
<path d="M63.3412 113.479C49.7176 123.359 47.8926 143.953 47.5458 159.422C47.1991 173.964 50.4567 187.851 53.5045 202.038C56.4792 215.917 67.7851 223.487 81.281 226.577C101.356 231.204 123.256 231.74 143.632 229.504C164.008 227.268 164.537 207.273 162.493 190.905C161.928 186.361 158.725 183.552 155.266 181.098C150.988 178.252 147.254 174.666 144.243 170.51C134.58 156.577 134.023 140.018 127.581 124.858C122.489 112.852 111.156 104.491 98.0071 104.909C84.858 105.327 72.4023 106.917 63.3412 113.479Z" fill="white"/>
<path d="M120.491 231.267C107.27 231.34 94.0828 229.925 81.1805 227.05C61.3702 222.506 54.9553 210.972 53.0573 202.129L52.4185 199.148C49.5076 185.697 46.761 173 47.0895 159.413C47.8469 128.085 56.032 118.215 63.0765 113.107C72.6669 106.163 86.108 104.836 97.9979 104.454C110.828 104.064 122.635 111.98 128.001 124.677C130.359 130.59 132.286 136.665 133.768 142.854C136.232 152.169 138.787 161.794 144.627 170.265C147.209 174.009 150.467 177.145 155.577 180.744C159.081 183.225 162.402 186.197 162.986 190.859C164.866 205.847 163.324 216.226 158.269 222.597C154.947 226.787 150.056 229.268 143.723 229.968C136.009 230.822 128.253 231.256 120.491 231.267ZM63.6149 113.861C50.5297 123.341 48.3944 143.208 48.002 159.449C47.6826 172.928 50.411 185.579 53.3037 198.976L53.9515 201.957C55.7765 210.545 62.0454 221.706 81.3904 226.178C100.115 230.504 121.623 231.513 143.577 229.095C149.655 228.432 154.345 226.059 157.511 222.07C162.402 215.898 163.899 205.71 162.074 191.005C161.526 186.67 158.369 183.879 155.038 181.516C149.883 177.881 146.552 174.655 143.906 170.819C137.975 162.221 135.41 152.506 132.956 143.117C131.479 136.967 129.564 130.929 127.225 125.049C121.988 112.698 110.545 104.954 98.0892 105.382C86.3453 105.763 73.0684 107.063 63.6788 113.861H63.6149Z" fill="#231F20"/>
<path d="M99.1112 190.278C96.6721 190.276 94.235 190.14 91.8112 189.869C87.1608 189.344 82.5752 188.354 78.1237 186.915C72.0647 184.961 67.9949 182.725 64.938 179.69C60.2934 175.064 58.5505 168.783 57.8479 164.394C56.2967 154.178 57.8479 142.89 58.9703 137.073C59.703 133.085 61.303 129.306 63.6581 125.999C66.0132 122.693 69.0662 119.939 72.603 117.933C77.5123 115.088 83.3705 113.252 90.4972 112.325C97.9797 111.353 103.363 112.153 107.442 114.834C114.104 119.214 116.002 127.639 117.37 135.892L119.697 149.897C120.263 153.378 121.048 158.141 123.794 160.386C124.763 161.116 125.806 161.743 126.906 162.258C128.831 163.221 130.811 164.23 131.934 166.42C133.312 169.147 133.896 173.691 132.481 176.681C130.912 179.971 127.709 182.134 125.446 183.47C117.442 188.056 108.344 190.408 99.1112 190.278ZM96.255 112.834C94.3993 112.848 92.5463 112.979 90.707 113.225C83.699 114.134 77.932 115.952 73.1597 118.678C69.7346 120.617 66.778 123.28 64.4983 126.481C62.2185 129.681 60.6711 133.34 59.9649 137.201C58.8425 142.999 57.2913 154.169 58.8425 164.257C59.4904 168.547 61.2059 174.591 65.6772 179.044C68.6245 181.98 72.5757 184.143 78.4522 186.052C82.8279 187.473 87.3376 188.448 91.9115 188.96C104.276 190.351 115.728 188.178 125.026 182.689C127.189 181.407 130.237 179.353 131.697 176.327C132.992 173.6 132.445 169.383 131.167 166.866C130.182 164.939 128.43 164.048 126.541 163.103C125.382 162.563 124.284 161.902 123.265 161.131C120.245 158.668 119.433 153.696 118.839 150.079L116.513 136.074C115.18 128.021 113.337 119.805 106.986 115.633C104.203 113.743 100.699 112.834 96.255 112.834Z" fill="#D1D3D4"/>
<path d="M65.513 176.072C65.4216 176.073 65.3322 176.046 65.256 175.996C65.1797 175.946 65.1199 175.874 65.0841 175.791C65.0619 175.735 65.0509 175.676 65.0517 175.616C65.0525 175.556 65.0651 175.497 65.0889 175.442C65.1126 175.388 65.147 175.338 65.19 175.296C65.233 175.255 65.2839 175.222 65.3396 175.2C71.1979 172.782 75.1034 173.382 75.2676 173.382C75.3275 173.391 75.3851 173.412 75.437 173.443C75.4889 173.474 75.5342 173.515 75.5702 173.563C75.6062 173.612 75.6323 173.667 75.6469 173.726C75.6615 173.784 75.6644 173.845 75.6554 173.905C75.6464 173.964 75.6257 174.022 75.5945 174.073C75.5633 174.125 75.5221 174.17 75.4734 174.206C75.4247 174.242 75.3693 174.268 75.3105 174.282C75.2517 174.297 75.1906 174.3 75.1307 174.291C75.1307 174.291 71.2891 173.746 65.6864 176.054C65.6307 176.073 65.5714 176.079 65.513 176.072Z" fill="#D1D3D4"/>
<path d="M300.719 113.479C314.361 123.359 316.14 143.953 316.514 159.422C316.861 173.964 313.603 187.851 310.556 202.038C307.581 215.917 296.275 223.487 282.779 226.577C262.704 231.204 240.804 231.74 220.428 229.504C200.052 227.268 199.523 207.273 201.567 190.905C202.132 186.361 205.335 183.552 208.794 181.098C213.073 178.252 216.806 174.666 219.817 170.51C229.48 156.577 230.037 140.018 236.479 124.858C241.571 112.852 252.904 104.491 266.053 104.909C279.202 105.327 291.658 106.917 300.719 113.479Z" fill="white"/>
<path d="M243.569 231.267C235.813 231.261 228.064 230.833 220.355 229.986C214.022 229.286 209.131 226.805 205.81 222.615C200.755 216.253 199.212 205.865 201.092 190.878C201.676 186.188 204.998 183.243 208.502 180.762C213.566 177.127 216.824 174.027 219.452 170.283C225.292 161.812 227.847 152.188 230.31 142.872C231.792 136.683 233.719 130.608 236.077 124.695C241.47 111.971 253.278 104.091 266.08 104.473C277.943 104.854 291.411 106.181 301.002 113.125C314.416 122.841 316.587 142.972 316.989 159.477C317.317 173.064 314.571 185.761 311.66 199.212L311.021 202.193C309.123 211.036 302.708 222.533 282.898 227.114C269.987 229.969 256.794 231.362 243.569 231.267ZM265.068 105.345C252.977 105.345 241.972 112.989 236.862 125.031C234.524 130.911 232.609 136.949 231.132 143.099C228.65 152.488 226.086 162.185 220.182 170.801C217.535 174.636 214.205 177.836 209.049 181.498C205.719 183.861 202.561 186.651 202.014 190.987C200.189 205.719 201.649 215.88 206.576 222.051C209.743 226.041 214.433 228.413 220.51 229.077C242.465 231.494 263.973 230.486 282.697 226.159C302.042 221.688 308.247 210.527 310.136 201.938L310.784 198.957C313.676 185.561 316.405 172.91 316.085 159.431C315.337 128.53 307.353 118.824 300.473 113.843C291.083 107.045 277.806 105.745 266.062 105.363L265.068 105.345Z" fill="#231F20"/>
<path d="M264.949 190.278C255.691 190.421 246.567 188.069 238.541 183.47C236.278 182.134 233.066 179.971 231.506 176.681C230.091 173.7 230.675 169.129 232.053 166.42C233.176 164.23 235.156 163.221 237.081 162.258C238.181 161.743 239.224 161.116 240.193 160.386C242.93 158.141 243.724 153.378 244.29 149.897L246.617 135.892C247.986 127.639 249.884 119.214 256.545 114.834C260.624 112.153 266.007 111.353 273.49 112.325C280.617 113.234 286.475 115.052 291.384 117.933C294.921 119.939 297.974 122.693 300.329 125.999C302.684 129.306 304.284 133.085 305.017 137.073C306.103 142.89 307.69 154.178 306.139 164.394C305.473 168.82 303.694 175.064 299.049 179.69C295.992 182.725 291.922 184.961 285.863 186.915C281.412 188.354 276.826 189.344 272.176 189.869C269.776 190.137 267.364 190.273 264.949 190.278ZM267.805 112.834C263.343 112.834 259.839 113.743 257.028 115.561C250.641 119.732 248.816 127.948 247.502 136.001L245.175 150.006C244.582 153.642 243.77 158.595 240.749 161.058C239.731 161.829 238.632 162.49 237.474 163.03C235.649 163.939 233.824 164.848 232.847 166.793C231.57 169.31 231.022 173.528 232.318 176.254C233.778 179.317 236.826 181.371 238.988 182.616C248.287 188.069 259.729 190.278 272.103 188.887C276.677 188.375 281.187 187.401 285.562 185.979C291.484 184.07 295.436 181.907 298.337 178.972C302.809 174.518 304.524 168.474 305.172 164.185C306.705 154.096 305.172 142.926 304.05 137.173C303.343 133.313 301.796 129.654 299.516 126.453C297.236 123.253 294.28 120.59 290.855 118.651C286.055 115.87 280.315 114.107 273.307 113.198C271.483 112.962 269.645 112.841 267.805 112.834Z" fill="#D1D3D4"/>
<path d="M298.547 176.072C298.49 176.085 298.431 176.085 298.374 176.072C292.771 173.764 288.975 174.309 288.929 174.309C288.87 174.318 288.808 174.315 288.75 174.301C288.691 174.286 288.636 174.26 288.587 174.224C288.538 174.188 288.497 174.143 288.466 174.092C288.434 174.04 288.414 173.983 288.405 173.923C288.396 173.863 288.399 173.802 288.413 173.744C288.428 173.685 288.454 173.63 288.49 173.582C288.526 173.533 288.571 173.492 288.623 173.461C288.675 173.43 288.733 173.409 288.793 173.4C288.957 173.4 292.862 172.81 298.721 175.218C298.776 175.24 298.827 175.273 298.87 175.314C298.913 175.356 298.948 175.406 298.971 175.461C298.995 175.516 299.008 175.575 299.008 175.634C299.009 175.694 298.998 175.753 298.976 175.809C298.938 175.889 298.877 175.957 298.801 176.003C298.724 176.05 298.637 176.074 298.547 176.072Z" fill="#D1D3D4"/>
<path d="M232.026 123.059L203.738 107.608C203.738 107.608 202.105 102.955 200.353 101.528C198.601 100.101 199.687 105.163 199.687 105.163C199.687 105.163 190.014 99.0104 189.02 100.674C188.025 102.337 186.374 109.117 189.677 111.744C192.588 114.043 198.008 114.625 198.008 114.625C213.119 126.758 234.444 140.163 234.444 140.163" fill="white"/>
<path d="M234.444 140.6C234.36 140.598 234.278 140.573 234.207 140.527C233.988 140.391 212.772 127.03 197.816 115.079C196.904 114.97 192.15 114.297 189.394 112.116C185.936 109.39 187.469 102.373 188.627 100.456C188.7 100.336 188.797 100.233 188.911 100.154C189.026 100.074 189.156 100.019 189.294 99.992C191.119 99.5557 196.767 102.855 199.048 104.245C198.838 102.928 198.747 101.383 199.413 100.974C199.66 100.828 200.061 100.746 200.636 101.21C202.306 102.546 203.766 106.427 204.085 107.29L232.245 122.741C232.351 122.799 232.431 122.896 232.465 123.012C232.499 123.128 232.486 123.253 232.427 123.359C232.369 123.465 232.271 123.543 232.155 123.578C232.039 123.612 231.913 123.598 231.807 123.54L203.519 108.09C203.469 108.066 203.425 108.031 203.389 107.989C203.352 107.947 203.326 107.898 203.31 107.845C203.31 107.845 201.731 103.3 200.088 102.01L199.906 101.882C199.782 102.985 199.869 104.102 200.161 105.172C200.183 105.26 200.177 105.353 200.144 105.437C200.112 105.522 200.054 105.594 199.979 105.645C199.903 105.694 199.814 105.719 199.723 105.719C199.633 105.719 199.544 105.694 199.468 105.645C196.356 103.664 190.89 100.637 189.531 100.964C189.476 100.964 189.44 100.964 189.44 100.964C188.418 102.655 186.994 109.071 189.987 111.444C192.725 113.643 198.026 114.234 198.081 114.234C198.168 114.246 198.249 114.28 198.318 114.334C213.238 126.312 234.508 139.709 234.718 139.836C234.819 139.902 234.891 140.003 234.918 140.12C234.945 140.237 234.926 140.36 234.864 140.463C234.81 140.518 234.744 140.559 234.671 140.583C234.598 140.607 234.52 140.613 234.444 140.6Z" fill="#231F20"/>
<path d="M225.018 210.573C225.018 210.573 227.071 233.912 226.232 235.421C225.392 236.929 205.29 239.965 204.925 237.829C204.56 235.693 214.761 231.467 214.761 231.467L212.517 212.381" fill="white"/>
<path d="M207.954 239.002C207.295 239.016 206.635 238.973 205.983 238.874C205.39 238.774 204.587 238.565 204.468 237.911C204.094 235.684 211.495 232.376 214.269 231.222L212.06 212.481C212.053 212.421 212.058 212.361 212.074 212.303C212.09 212.245 212.118 212.191 212.155 212.144C212.193 212.097 212.239 212.057 212.291 212.028C212.344 211.998 212.402 211.979 212.462 211.972C212.522 211.965 212.583 211.97 212.641 211.986C212.699 212.002 212.753 212.03 212.801 212.067C212.848 212.104 212.888 212.15 212.917 212.202C212.947 212.255 212.966 212.312 212.973 212.372L215.218 231.458C215.229 231.557 215.207 231.656 215.156 231.742C215.105 231.827 215.027 231.894 214.935 231.931C210.19 233.876 205.18 236.657 205.372 237.756C205.372 237.756 205.636 238.047 207.589 238.102C213.447 238.293 225.082 236.084 225.839 235.184C226.387 234.039 225.346 219.507 224.562 210.645C224.556 210.586 224.563 210.525 224.581 210.468C224.599 210.411 224.628 210.358 224.666 210.312C224.705 210.266 224.752 210.228 224.805 210.2C224.859 210.172 224.917 210.155 224.977 210.15C225.037 210.145 225.097 210.151 225.155 210.169C225.212 210.187 225.265 210.216 225.311 210.254C225.358 210.292 225.396 210.34 225.424 210.393C225.452 210.446 225.469 210.504 225.474 210.563C225.821 214.481 227.5 234.121 226.633 235.666C225.766 237.211 213.584 239.002 207.954 239.002Z" fill="#231F20"/>
<path d="M254.747 216.698C254.747 216.698 257.567 237.32 256.107 237.911C254.647 238.502 234.8 239.438 235.119 237.702C235.439 235.966 245.23 232.658 245.23 232.658L241.689 212.554" fill="white"/>
<path d="M242.967 239.174C239.107 239.174 235.731 238.947 234.946 238.32C234.84 238.242 234.757 238.136 234.707 238.014C234.657 237.892 234.642 237.759 234.663 237.629C234.973 235.811 241.963 233.285 244.701 232.358L241.215 212.627C241.196 212.509 241.225 212.388 241.295 212.291C241.365 212.194 241.471 212.129 241.589 212.108C241.648 212.097 241.708 212.097 241.767 212.109C241.826 212.121 241.882 212.145 241.931 212.178C241.98 212.212 242.022 212.256 242.054 212.306C242.087 212.357 242.108 212.413 242.118 212.472L245.668 232.576C245.687 232.685 245.666 232.797 245.609 232.892C245.552 232.987 245.463 233.059 245.358 233.094C240.95 234.575 236.114 236.729 235.594 237.638C236.141 237.947 238.751 238.338 245.631 238.184C249.05 238.17 252.463 237.936 255.851 237.484C256.481 236.339 255.55 226.105 254.264 216.735C254.248 216.614 254.28 216.493 254.354 216.396C254.427 216.299 254.535 216.235 254.656 216.217C254.715 216.208 254.776 216.211 254.834 216.226C254.893 216.241 254.947 216.267 254.995 216.304C255.043 216.34 255.082 216.386 255.112 216.438C255.142 216.49 255.16 216.548 255.167 216.607C256.481 226.178 257.731 237.702 256.253 238.302C255.395 238.693 248.643 239.174 242.967 239.174Z" fill="#231F20"/>
<path d="M232.884 175.354C232.4 177.008 228.166 220.343 228.166 220.343H211.093C211.093 220.343 203.237 176.827 205.819 166.084C207.589 158.686 215.656 155.069 223.868 157.468C236.087 156.986 248.643 155.432 248.643 155.432L232.884 175.354Z" fill="#231F20"/>
<path d="M228.166 220.797H211.093C210.986 220.799 210.882 220.762 210.8 220.693C210.718 220.625 210.663 220.53 210.646 220.425C210.327 218.607 202.799 176.69 205.372 165.975C205.76 164.354 206.478 162.83 207.481 161.497C208.484 160.164 209.75 159.049 211.203 158.222C213.134 157.183 215.254 156.54 217.439 156.331C219.624 156.122 221.829 156.351 223.923 157.005C235.959 156.532 248.46 154.996 248.56 154.987C248.651 154.974 248.743 154.989 248.824 155.029C248.906 155.07 248.973 155.134 249.017 155.214C249.06 155.292 249.079 155.382 249.071 155.471C249.063 155.56 249.028 155.645 248.971 155.714L233.276 175.554C232.82 177.726 229.754 208.528 228.595 220.388C228.584 220.496 228.535 220.597 228.456 220.672C228.378 220.747 228.275 220.791 228.166 220.797ZM211.476 219.888H227.755C228.212 215.199 231.98 176.836 232.446 175.227C232.464 175.171 232.492 175.119 232.528 175.073L247.602 155.987C244.272 156.368 233.915 157.504 223.877 157.895H223.731C221.746 157.262 219.653 157.034 217.577 157.224C215.501 157.415 213.485 158.02 211.65 159.004C210.3 159.76 209.123 160.789 208.194 162.023C207.266 163.258 206.606 164.672 206.257 166.175C203.857 176.191 210.719 215.653 211.476 219.888Z" fill="#231F20"/>
<path d="M285.59 161.485C285.59 161.485 290.964 170.374 282.661 180.38C274.357 190.387 250.723 179.862 250.723 179.862L256.627 219.016L239.289 218.843C239.289 218.843 221.222 165.539 223.302 160.022C225.383 154.505 240.184 151.96 240.184 151.96L285.59 161.485Z" fill="#231F20"/>
<path d="M256.6 219.47L239.262 219.298C239.167 219.297 239.075 219.267 238.998 219.211C238.921 219.156 238.864 219.078 238.833 218.989C238.094 216.807 220.729 165.466 222.846 159.858C224.963 154.251 239.463 151.624 240.083 151.515C240.141 151.506 240.199 151.506 240.257 151.515L285.681 161.04C285.743 161.054 285.803 161.08 285.854 161.118C285.906 161.155 285.95 161.203 285.982 161.258C286.037 161.349 291.457 170.528 283.007 180.671C279.503 184.897 272.742 186.124 263.471 184.307C259.296 183.441 255.209 182.197 251.261 180.589L257.047 218.943C257.058 219.007 257.054 219.073 257.037 219.136C257.02 219.199 256.989 219.257 256.946 219.307C256.903 219.356 256.85 219.397 256.79 219.425C256.731 219.453 256.666 219.469 256.6 219.47ZM239.591 218.38L256.07 218.552L250.239 179.917C250.227 179.836 250.237 179.754 250.268 179.678C250.299 179.602 250.35 179.536 250.415 179.487C250.481 179.438 250.558 179.407 250.64 179.398C250.721 179.389 250.803 179.402 250.878 179.435C251.115 179.544 274.32 189.705 282.305 180.08C286.484 175.045 287.05 170.328 286.785 167.256C286.639 165.387 286.13 163.563 285.289 161.885L240.156 152.424C238.952 152.642 225.556 155.15 223.731 160.176C222.052 164.548 234.508 203.374 239.591 218.38Z" fill="#231F20"/>
<path d="M229.316 188.914C229.225 188.915 229.137 188.889 229.062 188.838C228.987 188.788 228.929 188.716 228.896 188.633C228.504 187.642 219.324 164.266 222.207 158.404C222.347 158.078 222.557 157.786 222.822 157.549C223.086 157.312 223.4 157.136 223.74 157.032C223.798 157.015 223.858 157.01 223.918 157.016C223.977 157.023 224.035 157.041 224.088 157.07C224.14 157.098 224.186 157.137 224.224 157.184C224.261 157.23 224.289 157.284 224.306 157.341C224.338 157.456 224.323 157.58 224.265 157.685C224.207 157.79 224.111 157.869 223.996 157.904C223.777 157.975 223.577 158.094 223.41 158.251C223.243 158.408 223.113 158.6 223.029 158.813C220.291 164.321 229.644 188.069 229.745 188.306C229.767 188.362 229.777 188.421 229.776 188.482C229.774 188.542 229.761 188.601 229.736 188.656C229.712 188.711 229.676 188.761 229.632 188.802C229.588 188.843 229.537 188.875 229.48 188.896L229.316 188.914Z" fill="white"/>
<path d="M250.696 180.317C250.612 180.318 250.53 180.296 250.458 180.253C250.23 180.117 244.847 176.845 243.323 174.527C243.289 174.478 243.265 174.423 243.253 174.364C243.241 174.306 243.241 174.245 243.253 174.187C243.265 174.128 243.289 174.073 243.323 174.024C243.356 173.974 243.4 173.932 243.45 173.9C243.551 173.834 243.674 173.811 243.792 173.835C243.909 173.859 244.013 173.928 244.08 174.027C245.494 176.181 250.878 179.481 250.933 179.481C251.036 179.544 251.109 179.646 251.138 179.763C251.167 179.88 251.149 180.004 251.088 180.108C251.045 180.172 250.986 180.224 250.918 180.261C250.85 180.297 250.773 180.316 250.696 180.317Z" fill="white"/>
<path d="M285.59 161.485C285.59 161.485 304.652 114.706 290.572 103.973C276.492 93.2392 256.426 98.0198 253.689 108.054C250.951 118.087 240.156 151.96 240.156 151.96C240.156 151.96 274.74 162.23 285.59 161.485Z" fill="#233DFF"/>
<path d="M265.661 109.071L262.367 142.09L280.534 106.736L265.661 109.071Z" fill="#231F20"/>
<path d="M262.33 142.545C262.285 142.553 262.238 142.553 262.193 142.545C262.09 142.517 262.001 142.453 261.942 142.364C261.883 142.275 261.859 142.168 261.874 142.063L265.177 109.044C265.186 108.943 265.229 108.848 265.298 108.774C265.368 108.7 265.46 108.651 265.56 108.635L280.425 106.309C280.509 106.293 280.596 106.302 280.675 106.334C280.755 106.366 280.823 106.421 280.872 106.49C280.915 106.562 280.937 106.643 280.937 106.727C280.937 106.81 280.915 106.891 280.872 106.963L262.695 142.317C262.658 142.382 262.605 142.437 262.541 142.477C262.478 142.516 262.405 142.54 262.33 142.545ZM266.044 109.462L263.014 139.745L279.686 107.326L266.044 109.462Z" fill="#231F20"/>
<path d="M254.939 104.027L231.141 120.796L233.313 142.09L258.817 131.357C258.817 131.357 263.042 107.799 254.939 104.027Z" fill="#233DFF"/>
<path d="M264.155 104.509C265.866 103.936 267.681 103.741 269.475 103.936C272.276 104.427 274.84 105.754 277.687 106.172C280.826 106.454 283.984 106.454 287.123 106.172C288.035 106.127 287.123 107.354 287.889 106.827C290.462 104.954 290.335 101.246 290.326 98.4651C290.404 92.0239 289.597 85.6022 287.926 79.3791C287.013 76.1436 283.409 64.3012 278.144 69.3817C279.33 68.2275 273.581 65.5373 272.76 65.3101C265.296 63.247 258.525 69.7816 256.855 76.5799C255.641 81.515 255.55 86.4137 253.205 91.0489C252.165 93.0938 250.814 95.1115 250.723 97.4109C250.746 98.7968 251.155 100.149 251.904 101.317C252.653 102.485 253.713 103.424 254.966 104.027C257.509 105.191 260.375 105.451 263.087 104.764L264.155 104.509Z" fill="white"/>
<path d="M287.625 107.408C287.539 107.407 287.454 107.385 287.378 107.345C287.275 107.275 287.195 107.177 287.148 107.062C287.101 106.947 287.089 106.821 287.114 106.699V106.636L285.681 106.699C282.999 106.921 280.302 106.896 277.624 106.627C276.106 106.369 274.616 105.974 273.171 105.445C271.937 104.997 270.671 104.645 269.384 104.391C267.743 104.203 266.081 104.371 264.511 104.882L264.246 104.945L263.161 105.209C260.345 105.908 257.375 105.633 254.738 104.427C253.406 103.789 252.279 102.794 251.484 101.553C250.689 100.311 250.258 98.8738 250.24 97.4018C250.455 95.4587 251.12 93.5919 252.183 91.9486C252.384 91.576 252.585 91.2034 252.776 90.8307C254.346 87.7588 254.893 84.6051 255.514 81.2696C255.778 79.6972 256.061 78.0795 256.426 76.4617C257.507 72.1679 260.228 68.4637 264.009 66.1371C265.325 65.3322 266.792 64.8041 268.321 64.5852C269.849 64.3664 271.407 64.4615 272.897 64.8647C273.417 65.0101 277.669 66.8642 278.591 68.4183C278.999 68.0878 279.478 67.8559 279.991 67.7408C280.504 67.6257 281.037 67.6305 281.547 67.7549C284.741 68.6092 287.022 74.4531 288.382 79.2065C290.074 85.4753 290.888 91.947 290.8 98.4379V98.7832C290.8 101.51 290.8 105.245 288.172 107.172C288.019 107.306 287.827 107.388 287.625 107.408ZM287.159 105.681C287.276 105.675 287.393 105.693 287.503 105.734C287.613 105.774 287.713 105.837 287.798 105.918C287.864 105.986 287.917 106.066 287.953 106.154C289.906 104.427 289.888 101.301 289.879 98.765V98.4288C289.964 92.0182 289.163 85.6263 287.497 79.4337C285.672 73.0717 283.473 69.1909 281.31 68.6183C280.785 68.5198 280.242 68.5668 279.742 68.7543C279.241 68.9418 278.802 69.2626 278.472 69.6816C278.385 69.766 278.268 69.8124 278.146 69.8107C278.025 69.809 277.909 69.7593 277.824 69.6726C277.74 69.5858 277.693 69.469 277.695 69.348C277.696 69.227 277.746 69.1116 277.833 69.0273C277.998 68.3456 273.919 66.0735 272.641 65.719C271.264 65.3436 269.825 65.2548 268.412 65.4581C266.999 65.6614 265.643 66.1524 264.429 66.9005C260.857 69.1002 258.29 72.6031 257.275 76.6617C256.882 78.2431 256.609 79.8517 256.362 81.4059C255.806 84.6687 255.222 88.0314 253.625 91.2306C253.433 91.6033 253.223 91.9759 253.023 92.3576C252.042 93.8782 251.419 95.5991 251.198 97.3927C251.218 98.693 251.603 99.9617 252.309 101.055C253.015 102.149 254.015 103.024 255.194 103.582C257.646 104.693 260.404 104.939 263.015 104.282L264.073 104.027L264.338 103.964C266.029 103.42 267.819 103.246 269.585 103.455C270.918 103.722 272.229 104.086 273.508 104.545C274.9 105.056 276.335 105.44 277.797 105.691C280.417 105.953 283.057 105.974 285.681 105.754L287.141 105.681H287.159Z" fill="#231F20"/>
<path d="M259.693 79.2246C259.693 79.2246 257.202 86.85 258.689 92.5485C259.062 94.1405 259.892 95.5899 261.078 96.7197C262.264 97.8494 263.755 98.6107 265.369 98.9105L265.661 109.062C265.661 109.062 265.77 114.261 272.13 113.27C273.975 112.984 275.716 112.232 277.187 111.087C278.657 109.941 279.81 108.441 280.534 106.727L280.717 88.0315C280.717 88.0315 273.353 84.087 273.782 77.3706C273.782 77.3797 265.296 81.7785 259.693 79.2246Z" fill="white"/>
<path d="M270.606 113.861C269.288 113.921 267.991 113.505 266.956 112.689C266.439 112.227 266.019 111.669 265.72 111.045C265.421 110.421 265.249 109.744 265.214 109.053L264.922 99.3194C263.302 98.9374 261.821 98.1161 260.642 96.9466C259.463 95.7771 258.632 94.305 258.242 92.6939C256.746 86.9317 259.155 79.4246 259.264 79.061C259.284 79.001 259.316 78.9458 259.358 78.8988C259.401 78.8519 259.453 78.8143 259.51 78.7884C259.57 78.7636 259.633 78.7509 259.697 78.7509C259.762 78.7509 259.825 78.7636 259.885 78.7884C265.223 81.2241 273.49 76.9707 273.572 76.9707C273.643 76.9309 273.723 76.9099 273.805 76.9099C273.886 76.9099 273.966 76.9309 274.037 76.9707C274.104 77.0152 274.158 77.0765 274.193 77.1483C274.228 77.2201 274.244 77.2999 274.238 77.3797C273.828 83.7416 280.863 87.577 280.927 87.6134C281.001 87.6514 281.062 87.7087 281.106 87.7792C281.149 87.8497 281.173 87.9306 281.173 88.0133L280.991 106.718C280.999 106.766 280.999 106.815 280.991 106.863C280.247 108.658 279.049 110.231 277.514 111.429C275.979 112.627 274.159 113.408 272.231 113.698C271.695 113.796 271.151 113.851 270.606 113.861ZM259.985 79.8427C259.483 81.5786 257.904 87.7315 259.127 92.4303C259.468 93.9399 260.246 95.3166 261.365 96.3894C262.485 97.4623 263.896 98.1841 265.423 98.4651C265.532 98.4781 265.632 98.5292 265.705 98.6092C265.779 98.6892 265.821 98.7929 265.825 98.9014L266.117 109.053C266.189 110.182 266.699 111.238 267.54 111.998C268.572 112.907 270.095 113.134 272.103 112.834C273.853 112.555 275.503 111.842 276.904 110.76C278.304 109.678 279.408 108.263 280.115 106.645L280.288 88.3041C279.029 87.5679 273.444 83.9689 273.344 78.1067C271.218 79.0792 264.812 81.6785 259.985 79.8427Z" fill="#231F20"/>
<path d="M277.14 86.8318C277.14 86.8318 280.087 79.6882 283.765 84.0325C287.442 88.3768 282.414 93.3937 279.257 93.0665" fill="white"/>
<path d="M279.558 93.5391H279.211C279.151 93.5334 279.093 93.516 279.04 93.4877C278.987 93.4594 278.94 93.421 278.901 93.3745C278.863 93.328 278.835 93.2744 278.817 93.2169C278.8 93.1594 278.794 93.099 278.801 93.0392C278.806 92.9794 278.824 92.9214 278.852 92.8684C278.881 92.8154 278.919 92.7685 278.966 92.7305C279.013 92.6925 279.066 92.664 279.124 92.6468C279.182 92.6296 279.243 92.624 279.303 92.6303C280.89 92.7938 283.026 91.4033 284.02 89.522C284.485 88.7066 284.677 87.7651 284.569 86.8337C284.46 85.9024 284.057 85.0296 283.418 84.3415C283.168 83.9521 282.82 83.6347 282.408 83.4211C281.997 83.2074 281.537 83.1048 281.073 83.1236C279.412 83.3781 277.979 86.0229 277.569 87.0226C277.523 87.1347 277.434 87.224 277.322 87.2709C277.21 87.3177 277.084 87.3183 276.971 87.2725C276.859 87.2267 276.769 87.1383 276.722 87.0267C276.675 86.915 276.674 86.7893 276.72 86.6772C276.793 86.5046 278.427 82.6147 280.936 82.2239C282.04 82.0512 283.108 82.5692 284.121 83.7598C284.873 84.5885 285.346 85.6308 285.474 86.7407C285.601 87.8506 285.377 88.9725 284.832 89.9491C283.719 92.0486 281.493 93.5391 279.558 93.5391Z" fill="#231F20"/>
<path d="M263.827 92.7666C263.332 92.7809 262.84 92.6879 262.385 92.4939C262.274 92.441 262.177 92.3635 262.101 92.2674C262.025 92.1713 261.972 92.0591 261.947 91.9395C261.609 90.6399 264.064 87.059 264.83 85.9865C264.864 85.9377 264.907 85.896 264.957 85.864C265.007 85.832 265.064 85.8103 265.122 85.8001C265.181 85.79 265.241 85.7916 265.299 85.8049C265.357 85.8181 265.412 85.8428 265.46 85.8775C265.509 85.9119 265.551 85.9557 265.584 86.0064C265.616 86.0571 265.638 86.1137 265.648 86.1728C265.658 86.232 265.656 86.2925 265.643 86.351C265.629 86.4095 265.604 86.4648 265.569 86.5137C263.927 88.8222 262.64 91.2579 262.832 91.7214C263.786 91.9247 264.778 91.8746 265.706 91.576C265.766 91.5587 265.829 91.5533 265.891 91.5601C265.953 91.567 266.013 91.5859 266.068 91.6159C266.122 91.6459 266.171 91.6862 266.21 91.7348C266.249 91.7833 266.278 91.839 266.295 91.8986C266.312 91.9583 266.318 92.0208 266.311 92.0826C266.304 92.1443 266.285 92.2041 266.255 92.2586C266.225 92.313 266.184 92.361 266.136 92.3998C266.087 92.4386 266.031 92.4675 265.971 92.4848C265.273 92.6769 264.551 92.7717 263.827 92.7666Z" fill="#231F20"/>
<path d="M265.369 98.9196C265.369 98.9196 270.844 99.4467 273.937 98.556C273.937 98.556 270.752 106.654 265.579 106.736L265.369 98.9196Z" fill="#231F20"/>
<path d="M265.579 107.217C265.459 107.217 265.345 107.171 265.259 107.088C265.174 107.004 265.125 106.891 265.122 106.772L264.912 98.9286C264.911 98.8642 264.923 98.8001 264.948 98.7407C264.973 98.6813 265.011 98.6279 265.058 98.584C265.106 98.5402 265.162 98.5069 265.224 98.4864C265.285 98.4659 265.35 98.4586 265.414 98.4651C265.469 98.4651 270.825 98.9741 273.809 98.1198C273.891 98.0944 273.978 98.0929 274.061 98.1155C274.143 98.138 274.218 98.1837 274.275 98.247C274.333 98.3094 274.372 98.3867 274.388 98.4703C274.404 98.5538 274.397 98.6402 274.366 98.7196C274.229 99.065 271.008 107.099 265.588 107.217H265.579ZM265.834 99.4103L266.017 106.272C269.667 105.836 272.24 101.137 273.152 99.2104C270.729 99.5548 268.273 99.6219 265.834 99.4103Z" fill="#231F20"/>
<path d="M269.541 85.0977C269.561 84.325 269.217 83.6894 268.774 83.6782C268.331 83.6669 267.955 84.2842 267.935 85.057C267.916 85.8297 268.259 86.4653 268.702 86.4765C269.146 86.4878 269.521 85.8705 269.541 85.0977Z" fill="#231F20"/>
<path d="M262.153 84.9178C262.173 84.145 261.83 83.5095 261.386 83.4982C260.943 83.487 260.567 84.1043 260.548 84.877C260.528 85.6498 260.871 86.2853 261.315 86.2966C261.758 86.3078 262.133 85.6905 262.153 84.9178Z" fill="#231F20"/>
<path d="M290.225 94.7752C290.618 100.746 291.138 111.725 281.611 109.017C279.637 108.428 277.963 107.112 276.93 105.336C275.105 102.082 280.014 97.3745 282.341 95.2569" fill="white"/>
<path d="M284.321 109.899C283.36 109.885 282.405 109.738 281.484 109.462C279.373 108.855 277.583 107.454 276.492 105.554C274.603 102.246 278.728 97.9016 281.967 94.9206C282.054 94.8368 282.17 94.7899 282.291 94.7899C282.412 94.7899 282.528 94.8368 282.615 94.9206C282.658 94.9628 282.692 95.0131 282.715 95.0685C282.738 95.1238 282.75 95.1832 282.75 95.2432C282.75 95.3032 282.738 95.3626 282.715 95.418C282.692 95.4734 282.658 95.5236 282.615 95.5659C280.863 97.1655 275.543 102.019 277.295 105.082C278.271 106.773 279.867 108.021 281.748 108.563C284.139 109.244 286.019 109.053 287.333 107.999C290.481 105.463 290.006 98.2561 289.778 94.7933C289.774 94.7337 289.782 94.6738 289.801 94.617C289.82 94.5603 289.85 94.5079 289.889 94.4627C289.929 94.4176 289.977 94.3806 290.03 94.3539C290.084 94.3272 290.143 94.3113 290.202 94.3071C290.262 94.3029 290.323 94.3106 290.38 94.3295C290.436 94.3485 290.489 94.3785 290.534 94.4177C290.58 94.457 290.617 94.5047 290.644 94.5582C290.67 94.6118 290.686 94.6701 290.691 94.7297C290.946 98.6287 291.43 105.872 287.898 108.708C286.885 109.514 285.618 109.936 284.321 109.899Z" fill="#231F20"/>
<path d="M269.466 94.8388C269.466 95.3205 268.654 95.7476 267.641 95.7476C266.628 95.7476 267.039 95.3477 267.039 94.8388C267.039 94.3298 266.637 93.9299 267.641 93.9299C268.645 93.9299 269.466 94.3571 269.466 94.8388Z" fill="#231F20"/>
<path d="M292.233 106.427C292.233 106.427 283.81 113.434 283.774 119.36C283.737 125.285 290.161 152.987 290.161 152.987L307.709 143.244C307.709 143.244 300.865 108.826 292.233 106.427Z" fill="#233DFF"/>
<path d="M241.114 149.397H240.987C240.929 149.38 240.875 149.351 240.829 149.313C240.782 149.274 240.744 149.227 240.716 149.174C240.688 149.121 240.671 149.062 240.666 149.002C240.66 148.942 240.667 148.882 240.686 148.825L253.26 107.926C253.271 107.863 253.296 107.803 253.333 107.75C253.369 107.698 253.416 107.653 253.471 107.62C253.526 107.586 253.588 107.565 253.652 107.557C253.715 107.549 253.78 107.554 253.842 107.573C253.903 107.592 253.96 107.623 254.009 107.666C254.057 107.708 254.096 107.76 254.123 107.818C254.15 107.876 254.164 107.939 254.165 108.004C254.165 108.068 254.152 108.131 254.127 108.19L241.552 149.088C241.522 149.179 241.463 149.258 241.384 149.314C241.305 149.369 241.211 149.399 241.114 149.397Z" fill="#231F20"/>
<path d="M290.335 151.551C290.23 151.554 290.129 151.519 290.047 151.455C289.965 151.39 289.909 151.299 289.888 151.197C282.779 119.614 283.217 119.242 283.5 119.014C283.587 118.931 283.703 118.884 283.824 118.884C283.945 118.884 284.061 118.931 284.148 119.014C284.2 119.075 284.236 119.148 284.25 119.226C284.265 119.304 284.258 119.385 284.23 119.46C284.23 120.941 288.126 139.046 290.809 150.952C290.823 151.01 290.824 151.071 290.814 151.13C290.804 151.189 290.782 151.246 290.75 151.296C290.718 151.347 290.676 151.391 290.626 151.425C290.577 151.46 290.521 151.484 290.462 151.497L290.335 151.551Z" fill="#231F20"/>
<path d="M265.843 151.097L233.13 163.376L218.603 152.987L247.201 144.39L265.843 151.097Z" fill="white"/>
<path d="M233.13 163.848C233.033 163.849 232.937 163.821 232.856 163.766L218.338 153.369C218.268 153.32 218.212 153.253 218.178 153.174C218.144 153.095 218.133 153.008 218.147 152.924C218.163 152.841 218.201 152.765 218.257 152.703C218.313 152.64 218.386 152.594 218.466 152.569L247.064 143.981C247.159 143.953 247.26 143.953 247.356 143.981L265.98 150.67C266.066 150.705 266.14 150.764 266.194 150.839C266.247 150.915 266.277 151.004 266.281 151.097C266.281 151.19 266.252 151.281 266.198 151.358C266.144 151.434 266.068 151.492 265.98 151.524L233.285 163.848C233.234 163.858 233.181 163.858 233.13 163.848ZM219.616 153.169L233.194 162.885L264.52 151.124L247.182 144.89L219.616 153.169Z" fill="#231F20"/>
<path d="M305.665 144.399C305.665 144.399 309.315 162.785 299.378 164.539C289.44 166.293 256.49 159.867 256.49 159.867C256.49 159.867 245.047 161.876 245.777 158.959C246.507 156.041 253.652 154.751 253.652 154.751C253.652 154.751 247.757 151.906 250.659 151.915C253.747 152.098 256.823 152.44 259.875 152.942L290.353 148.898" fill="white"/>
<path d="M294.87 165.302C282.387 165.302 258.47 160.758 256.545 160.331C254.82 160.631 247.274 161.821 245.686 160.113C245.535 159.953 245.428 159.757 245.377 159.543C245.325 159.329 245.331 159.106 245.394 158.895C246.005 156.523 250.185 155.178 252.366 154.632C249.263 152.996 249.409 152.351 249.473 152.097C249.61 151.506 250.385 151.506 250.714 151.506C253.805 151.684 256.884 152.024 259.939 152.524L290.353 148.489C290.474 148.473 290.596 148.506 290.693 148.58C290.79 148.654 290.853 148.763 290.869 148.884C290.884 149.004 290.851 149.126 290.777 149.223C290.702 149.319 290.593 149.382 290.472 149.397L259.994 153.433C259.949 153.442 259.902 153.442 259.857 153.433C256.835 152.938 253.789 152.599 250.732 152.415H250.595C251.637 153.186 252.756 153.847 253.935 154.387C254.02 154.431 254.089 154.499 254.133 154.583C254.178 154.667 254.195 154.763 254.183 154.857C254.171 154.951 254.13 155.039 254.066 155.11C254.003 155.18 253.918 155.229 253.826 155.25C251.918 155.605 246.845 157.005 246.307 159.122C246.28 159.184 246.272 159.253 246.285 159.32C246.298 159.386 246.331 159.447 246.38 159.495C247.365 160.558 253.105 160.013 256.49 159.422H256.663C256.992 159.486 289.632 165.784 299.341 164.094C300.213 163.946 301.046 163.622 301.788 163.142C302.53 162.662 303.166 162.037 303.657 161.303C307.38 155.914 305.354 144.944 305.263 144.49C305.251 144.423 305.254 144.354 305.272 144.288C305.289 144.222 305.32 144.161 305.364 144.108C305.418 144.04 305.49 143.989 305.573 143.961C305.656 143.934 305.745 143.931 305.829 143.953C305.913 143.974 305.988 144.018 306.047 144.081C306.105 144.144 306.144 144.223 306.157 144.308L305.71 144.399L306.167 144.317C306.395 145.517 308.284 156.223 304.405 161.821C303.848 162.655 303.125 163.366 302.28 163.91C301.436 164.454 300.488 164.82 299.496 164.984C297.966 165.222 296.418 165.329 294.87 165.302Z" fill="#231F20"/>
<path d="M178.745 222.778C179.692 223.685 180.902 224.271 182.203 224.451C183.727 224.451 200.253 221.415 200.937 223.669C201.621 225.923 200.271 227.05 196.32 228.904C191.027 231.385 173.261 237.211 173.261 237.211L169.374 228.123L178.745 222.778Z" fill="white"/>
<path d="M173.261 237.629C173.179 237.631 173.098 237.608 173.029 237.562C172.96 237.517 172.908 237.451 172.878 237.375L168.99 228.286C168.95 228.194 168.946 228.09 168.978 227.994C169.01 227.898 169.076 227.818 169.164 227.768L178.535 222.424C178.618 222.376 178.715 222.359 178.81 222.374C178.904 222.388 178.991 222.435 179.055 222.506C179.923 223.331 181.026 223.868 182.213 224.042C183.326 223.966 184.435 223.83 185.534 223.633C195.38 222.26 200.809 221.815 201.339 223.551C202.123 226.141 200.481 227.414 196.493 229.286C191.246 231.758 173.571 237.556 173.389 237.62L173.261 237.629ZM169.903 228.295L173.498 236.702C176.053 235.857 191.347 230.776 196.137 228.522C200.198 226.614 201.101 225.641 200.536 223.778C200.125 222.424 189.23 223.942 185.653 224.442C183.645 224.723 182.578 224.842 182.194 224.86C180.89 224.699 179.665 224.147 178.681 223.278L169.903 228.295Z" fill="#231F20"/>
<path d="M127.38 232.531C127.38 232.531 145.092 238.593 145.849 239.747C146.607 240.901 145.265 242.255 140.548 242.673C135.83 243.091 115.646 242.001 115.646 242.001C115.646 242.001 115.39 236.548 116.659 233.821C117.927 231.095 127.38 232.531 127.38 232.531Z" fill="white"/>
<path d="M137.181 243.182C129.954 243.182 116.312 242.455 115.627 242.419C115.523 242.412 115.425 242.368 115.351 242.295C115.277 242.221 115.232 242.123 115.226 242.019C115.226 241.792 114.989 236.439 116.275 233.621C117.635 230.649 126.441 231.967 127.444 232.122H127.508C131.697 233.558 145.421 238.32 146.196 239.511C146.344 239.717 146.435 239.959 146.457 240.211C146.479 240.464 146.434 240.718 146.324 240.947C145.786 242.046 143.796 242.764 140.584 243.064C139.809 243.155 138.622 243.182 137.181 243.182ZM116.047 241.61C118.858 241.755 136.241 242.637 140.511 242.255C144.636 241.892 145.43 240.901 145.567 240.601C145.618 240.502 145.639 240.389 145.627 240.278C145.616 240.167 145.573 240.061 145.503 239.974C144.8 239.156 133.969 235.23 127.253 232.94C123.712 232.376 117.827 232.167 117.005 233.967C116.02 236.193 116.02 240.347 116.047 241.61Z" fill="#231F20"/>
<path d="M81.4452 175.064C81.4452 175.064 66.9912 139.082 68.5059 121.332C70.0207 103.582 81.655 102.5 85.7339 102.246C89.8128 101.991 111.229 99.1468 119.049 108.699C126.869 118.251 124.862 164.257 124.862 164.257L81.4452 175.064Z" fill="#233DFF"/>
<path d="M106.959 110.444L106.694 146.498L91.3275 108.026L106.959 110.444Z" fill="#231F20"/>
<path d="M106.694 146.953C106.603 146.953 106.513 146.926 106.437 146.876C106.361 146.826 106.301 146.755 106.265 146.671L90.8987 108.19C90.8718 108.114 90.8644 108.033 90.8772 107.953C90.8899 107.874 90.9224 107.799 90.9717 107.735C91.0216 107.672 91.0879 107.623 91.1634 107.595C91.2389 107.566 91.3209 107.558 91.4006 107.572L107.032 109.999C107.14 110.014 107.239 110.067 107.311 110.149C107.383 110.23 107.423 110.335 107.424 110.444L107.15 146.507C107.148 146.612 107.109 146.712 107.041 146.792C106.973 146.871 106.879 146.925 106.776 146.944L106.694 146.953ZM92.0941 108.59L106.293 144.172L106.539 110.835L92.0941 108.59Z" fill="#231F20"/>
<path d="M125.747 155.141C125.747 155.141 143.413 159.849 159.208 170.537C166.454 175.436 179.986 223.496 179.986 223.496C179.986 223.496 178.471 231.822 168.817 230.522L126.623 176.072C126.623 176.072 117.571 154.932 125.747 155.141Z" fill="#231F20"/>
<path d="M170.788 231.104C170.107 231.102 169.427 231.053 168.753 230.958C168.635 230.94 168.527 230.878 168.452 230.786L126.267 176.336C126.241 176.306 126.219 176.272 126.203 176.236C125.939 175.609 119.606 160.704 122.754 156.087C123.084 155.607 123.536 155.224 124.063 154.977C124.591 154.729 125.175 154.626 125.756 154.678H125.866C126.039 154.723 143.787 159.531 159.464 170.128C166.764 175.073 179.867 221.379 180.451 223.351C180.465 223.417 180.465 223.485 180.451 223.551C179.983 225.737 178.759 227.69 176.993 229.07C175.227 230.45 173.032 231.17 170.788 231.104ZM169.063 230.086C177.541 231.131 179.311 224.451 179.512 223.506C178.8 220.988 165.824 175.545 158.953 170.901C143.824 160.667 126.76 155.878 125.683 155.587H125.628C125.218 155.557 124.807 155.634 124.435 155.811C124.064 155.988 123.746 156.258 123.511 156.596C120.728 160.685 126.605 174.845 127.025 175.827L169.063 230.086Z" fill="#231F20"/>
<path d="M81.4452 175.064C81.4452 175.064 114.916 161.503 123.493 160.249C123.493 160.249 135.766 164.793 142.072 176.372C148.377 187.951 127.38 232.531 127.38 232.531C123.926 234.566 119.847 235.282 115.901 234.548L115.627 187.887C115.627 187.887 75.1946 191.877 81.4452 175.064Z" fill="#231F20"/>
<path d="M118.958 235.293C117.902 235.292 116.848 235.192 115.81 234.994C115.707 234.973 115.614 234.917 115.548 234.836C115.481 234.754 115.445 234.653 115.445 234.548L115.171 188.387C111.32 188.724 87.8419 190.414 81.7737 182.58C80.1495 180.499 79.9487 177.917 81.0164 174.909C81.0383 174.85 81.0723 174.796 81.1163 174.75C81.1602 174.705 81.2132 174.669 81.2719 174.645C82.6406 174.091 114.888 161.013 123.429 159.795C123.504 159.777 123.582 159.777 123.657 159.795C123.776 159.84 136.159 164.548 142.473 176.154C148.788 187.76 128.649 230.895 127.791 232.721C127.757 232.8 127.7 232.867 127.627 232.912C125.009 234.478 122.012 235.301 118.958 235.293ZM116.33 234.166C120.004 234.748 123.768 234.062 126.997 232.222C128.193 229.64 147.62 187.524 141.643 176.59C135.803 165.884 124.634 161.194 123.393 160.713C115.116 162.003 84.4656 174.346 81.7646 175.409C80.8521 178.026 81.0711 180.244 82.449 182.025C88.6175 189.987 115.299 187.479 115.536 187.479C115.598 187.473 115.661 187.479 115.721 187.498C115.78 187.517 115.836 187.547 115.883 187.588C115.931 187.63 115.97 187.681 115.996 187.739C116.023 187.797 116.037 187.86 116.038 187.924L116.33 234.166Z" fill="#231F20"/>
<path d="M141.314 195.576H141.232C141.113 195.554 141.008 195.487 140.938 195.388C140.868 195.29 140.839 195.168 140.858 195.049C142.035 188.378 143.249 177.854 141.771 176.2C136.907 170.856 124.825 161.949 124.707 161.858C124.611 161.787 124.547 161.682 124.528 161.565C124.51 161.447 124.538 161.328 124.606 161.231C124.679 161.135 124.786 161.071 124.906 161.052C125.025 161.034 125.146 161.062 125.245 161.131C125.364 161.222 137.518 170.219 142.446 175.591C144.736 178.099 142.099 193.468 141.789 195.213C141.769 195.321 141.709 195.418 141.622 195.485C141.534 195.553 141.425 195.585 141.314 195.576Z" fill="white"/>
<path d="M119.068 108.699C119.068 108.699 124.862 119.787 128.275 125.485C131.687 131.184 139.097 139.355 139.097 139.355C139.097 139.355 165.34 148.652 165.514 149.152C165.687 149.652 163.023 158.441 163.023 158.441C163.023 158.441 135.493 156.468 130.93 154.323C126.368 152.179 117.133 141.599 117.133 141.599L119.068 108.699Z" fill="#233DFF"/>
<path d="M101.009 114.425L99.0747 117.46L101.192 118.714L101.402 133.256L106.694 146.498L106.959 134.247L102.551 118.296L103.865 116.76L101.009 114.425Z" fill="white"/>
<path d="M106.694 146.953C106.603 146.953 106.513 146.926 106.437 146.876C106.361 146.826 106.301 146.755 106.265 146.671L100.982 133.429C100.978 133.374 100.978 133.32 100.982 133.265L100.781 118.969L98.8739 117.851C98.7697 117.784 98.6947 117.68 98.664 117.56C98.6495 117.501 98.6477 117.44 98.6587 117.381C98.6697 117.321 98.6933 117.265 98.7279 117.215L100.662 114.179C100.697 114.125 100.742 114.078 100.796 114.042C100.849 114.006 100.909 113.982 100.973 113.97C101.037 113.961 101.103 113.965 101.166 113.982C101.228 114 101.287 114.029 101.338 114.07L104.194 116.406C104.24 116.444 104.279 116.492 104.307 116.545C104.335 116.599 104.352 116.657 104.357 116.717C104.362 116.777 104.355 116.838 104.336 116.895C104.318 116.952 104.288 117.005 104.249 117.051L103.062 118.405L107.406 134.129C107.41 134.174 107.41 134.22 107.406 134.265L107.132 146.507C107.13 146.612 107.091 146.712 107.023 146.792C106.955 146.871 106.861 146.925 106.758 146.944L106.694 146.953ZM101.858 133.174L106.293 144.253L106.512 134.31L102.113 118.405C102.096 118.333 102.095 118.258 102.111 118.186C102.127 118.114 102.159 118.046 102.205 117.987L103.217 116.806L101.119 115.088L99.7134 117.297L101.429 118.315C101.495 118.354 101.551 118.41 101.589 118.477C101.627 118.544 101.648 118.619 101.648 118.696L101.858 133.174Z" fill="#231F20"/>
<path d="M90.3694 73.208C90.8958 73.008 91.444 72.8707 92.0028 72.799C94.2293 72.5445 94.2658 73.0262 95.9813 71.5902C98.5984 69.5395 101.782 68.3344 105.106 68.1366C111.494 67.7185 116.138 70.9086 114.678 77.8886C113.976 80.6532 112.702 83.2412 110.937 85.4866C107.287 90.4672 102.241 94.9751 96.0908 95.4841C94.2658 95.6204 90.8439 95.4841 89.5208 94.0026C87.641 91.8796 86.3414 89.3106 85.7469 86.5426C85.1524 83.7746 85.2831 80.9008 86.1263 78.1976C86.4629 77.04 87.024 75.9593 87.7779 75.0166C88.4781 74.2094 89.3686 73.5879 90.3694 73.208Z" fill="white"/>
<path d="M94.9684 95.9294C93.3441 95.9294 90.4698 95.7113 89.1558 94.2571C87.2284 92.0805 85.8968 89.4458 85.2894 86.6073C84.682 83.7689 84.8194 80.8224 85.6883 78.0522C86.0425 76.8394 86.6349 75.7088 87.4311 74.7258C88.5949 73.3873 90.2258 72.5394 91.9936 72.3537C92.454 72.2968 92.9169 72.2635 93.3806 72.2537C94.2931 72.2537 94.576 72.2537 95.7258 71.2449C98.4009 69.1218 101.673 67.8799 105.088 67.6912C108.857 67.4458 111.914 68.4274 113.693 70.4178C115.281 72.2355 115.783 74.8348 115.135 77.934C114.436 80.7663 113.135 83.4162 111.32 85.7048C108.172 90.0491 102.989 95.3386 96.1364 95.8476C95.963 95.9021 95.5433 95.9294 94.9684 95.9294ZM106.174 68.5546C105.827 68.5546 105.471 68.5546 105.106 68.5546C101.878 68.7602 98.7898 69.943 96.255 71.9447C95.8888 72.3424 95.4409 72.657 94.9418 72.8672C94.4427 73.0773 93.904 73.1781 93.3624 73.1625C93.0248 73.1625 92.605 73.1625 92.0393 73.2534C91.5173 73.3171 91.0054 73.4453 90.5154 73.6352C89.5882 73.985 88.7633 74.5598 88.1155 75.3075C87.3969 76.2046 86.8607 77.2326 86.5369 78.3339C85.7231 80.9579 85.602 83.7464 86.1854 86.4305C86.7688 89.1145 88.037 91.6035 89.8675 93.6573C90.9078 94.8115 93.8095 95.166 96.0634 94.9842C102.56 94.5025 107.543 89.4038 110.572 85.2231C112.306 83.0354 113.551 80.5037 114.222 77.7977C114.806 74.9803 114.377 72.6536 112.981 71.054C111.585 69.4544 109.158 68.5546 106.174 68.5546Z" fill="#231F20"/>
<path d="M106.968 100.846V110.444C106.968 110.444 104.705 115.724 98.3994 114.134C92.094 112.543 91.3275 108.017 91.3275 108.017L91.6104 90.2309C91.6104 90.2309 96.328 87.7951 95.0688 77.6432C100.222 79.9214 105.895 80.7753 111.494 80.1153C111.494 80.1153 113.428 91.2124 112.753 96.1021C112.069 100.864 107.05 100.783 106.968 100.846Z" fill="white"/>
<path d="M100.672 114.888C99.8676 114.881 99.0675 114.774 98.29 114.57C91.7747 112.916 90.9079 108.29 90.8805 108.099L91.1542 90.249C91.1568 90.1668 91.1809 90.0866 91.2241 90.0165C91.2673 89.9464 91.3282 89.8887 91.4006 89.8492C91.4006 89.8492 95.8171 87.3861 94.6217 77.725C94.6085 77.643 94.6196 77.5588 94.6536 77.483C94.6877 77.4071 94.7432 77.3428 94.8134 77.2978C94.8835 77.2553 94.964 77.2328 95.0461 77.2328C95.1281 77.2328 95.2086 77.2553 95.2787 77.2978C100.348 79.5202 105.919 80.3578 111.421 79.7245C111.536 79.7133 111.651 79.7453 111.744 79.8142C111.837 79.8831 111.901 79.984 111.923 80.0971C111.996 80.5515 113.857 91.3215 113.173 96.2293C112.78 99.1286 110.736 100.919 107.424 101.292V110.48C107.434 110.537 107.434 110.596 107.424 110.653C106.808 111.917 105.849 112.984 104.656 113.732C103.462 114.481 102.082 114.881 100.672 114.888ZM92.0667 90.5126L91.7839 108.026C91.7839 108.117 92.596 112.189 98.5181 113.688C103.993 115.088 106.201 110.962 106.512 110.344V100.846C106.511 100.779 106.525 100.712 106.554 100.651C106.582 100.589 106.624 100.535 106.676 100.492C106.799 100.409 106.947 100.367 107.096 100.374C110.134 100.101 111.923 98.6105 112.269 96.0657C112.853 91.8395 111.43 82.7055 111.092 80.6152C105.817 81.1637 100.487 80.4018 95.5799 78.3976C96.4467 86.9317 93.034 89.8582 92.0667 90.5126Z" fill="#231F20"/>
<path d="M95.3426 89.9946C95.1379 89.1257 94.6541 88.3471 93.9647 87.777C93.302 87.2763 92.5582 86.892 91.7656 86.6409C91.3458 86.459 90.8908 86.372 90.4333 86.3864C90.1112 86.4321 89.8012 86.5402 89.5208 86.7045C88.8341 87.0275 88.2868 87.5855 87.9787 88.2768C87.7929 88.8646 87.7553 89.4889 87.8692 90.0946C87.9409 90.7511 88.0973 91.3956 88.3345 92.0122C88.5825 92.627 88.9511 93.1863 89.4188 93.6574C89.8865 94.1285 90.4438 94.502 91.0582 94.7559C91.6726 95.0098 92.3316 95.1391 92.9968 95.1361C93.6619 95.1332 94.3198 94.9981 94.9319 94.7388" fill="white"/>
<path d="M92.9518 95.5295C91.8714 95.5274 90.8158 95.207 89.9178 94.6086C89.0199 94.0102 88.3198 93.1606 87.9056 92.1668C87.6468 91.5144 87.481 90.8291 87.4129 90.1309C87.2884 89.4581 87.3322 88.7651 87.5406 88.1133C87.8884 87.3187 88.5098 86.674 89.2926 86.2955C89.6197 86.101 89.9828 85.9743 90.3603 85.9229C90.8891 85.8999 91.4162 85.9962 91.9024 86.2047C92.7438 86.4737 93.5336 86.8824 94.2384 87.4134C94.9997 88.0493 95.5342 88.9133 95.7623 89.8764C95.7771 89.9344 95.7801 89.9947 95.7711 90.0538C95.762 90.1129 95.7412 90.1696 95.7096 90.2205C95.6781 90.2713 95.6367 90.3154 95.5877 90.35C95.5387 90.3846 95.4833 90.409 95.4246 90.4218C95.3073 90.4491 95.1839 90.4291 95.0813 90.3661C94.9787 90.3031 94.9053 90.2022 94.8771 90.0855C94.6922 89.3146 94.2636 88.6232 93.6544 88.1133C93.0282 87.6486 92.3279 87.2922 91.583 87.059C91.231 86.8986 90.8477 86.8179 90.4606 86.8227C90.2019 86.8656 89.954 86.9582 89.7306 87.0953C89.1455 87.369 88.6721 87.8341 88.3893 88.4132C88.2455 88.9281 88.2206 89.4687 88.3163 89.9946C88.3748 90.6181 88.5223 91.2302 88.7543 91.8123C88.9846 92.3655 89.3225 92.8679 89.7484 93.2906C90.1744 93.7132 90.68 94.0479 91.2363 94.2753C92.3629 94.7296 93.6228 94.7296 94.7494 94.2753C94.8036 94.2501 94.8625 94.2362 94.9223 94.2345C94.9822 94.2329 95.0417 94.2434 95.0973 94.2656C95.1529 94.2877 95.2033 94.321 95.2455 94.3633C95.2877 94.4056 95.3207 94.4561 95.3425 94.5116C95.3667 94.5665 95.3797 94.6256 95.3809 94.6855C95.382 94.7454 95.3712 94.8049 95.3492 94.8607C95.3271 94.9164 95.2942 94.9673 95.2524 95.0103C95.2105 95.0534 95.1605 95.0877 95.1053 95.1115C94.4231 95.3941 93.6906 95.5363 92.9518 95.5295Z" fill="#231F20"/>
<path d="M106.594 86.5227C106.594 86.5227 110.025 91.376 109.258 92.2485C108.492 93.121 106.274 92.603 106.274 92.603" fill="white"/>
<path d="M107.625 93.2119C107.137 93.2079 106.65 93.1531 106.174 93.0483C106.114 93.0352 106.057 93.0104 106.007 92.9755C105.957 92.9405 105.914 92.896 105.881 92.8445C105.848 92.793 105.825 92.7356 105.814 92.6754C105.804 92.6153 105.805 92.5536 105.818 92.4939C105.831 92.4342 105.856 92.3777 105.891 92.3276C105.926 92.2775 105.971 92.2348 106.023 92.2019C106.074 92.169 106.132 92.1465 106.192 92.1358C106.253 92.1251 106.315 92.1263 106.375 92.1395C107.132 92.3121 108.492 92.403 108.911 91.9213C109.103 91.476 107.844 89.0584 106.174 86.759C106.112 86.6601 106.091 86.5414 106.115 86.4274C106.138 86.3133 106.205 86.2127 106.301 86.1463C106.397 86.0798 106.515 86.0526 106.631 86.0702C106.746 86.0878 106.851 86.149 106.922 86.241C108.282 88.1587 110.426 91.5214 109.559 92.5212C109.3 92.7603 108.995 92.9447 108.663 93.0634C108.33 93.1821 107.977 93.2326 107.625 93.2119Z" fill="#231F20"/>
<path d="M104.692 85.5183C104.732 84.887 104.396 84.3528 103.944 84.3249C103.491 84.2971 103.092 84.7863 103.053 85.4176C103.014 86.0488 103.349 86.5831 103.802 86.6109C104.255 86.6387 104.653 86.1495 104.692 85.5183Z" fill="#231F20"/>
<path d="M110.992 86.6281C111.445 86.5965 111.776 86.0593 111.731 85.4284C111.687 84.7975 111.284 84.3118 110.831 84.3434C110.379 84.3751 110.048 84.9122 110.093 85.5431C110.137 86.174 110.54 86.6598 110.992 86.6281Z" fill="#231F20"/>
<path d="M106.758 96.1203C104.86 96.1203 102.369 95.8294 100.726 94.5116C100.632 94.435 100.571 94.3245 100.557 94.2038C100.544 94.0831 100.578 93.9619 100.653 93.8663C100.69 93.8196 100.737 93.7808 100.789 93.7522C100.842 93.7236 100.9 93.7058 100.959 93.6999C101.019 93.6939 101.079 93.7 101.136 93.7176C101.193 93.7353 101.246 93.7642 101.292 93.8027C103.893 95.884 109.24 95.0387 109.295 95.0296C109.416 95.0104 109.539 95.0397 109.639 95.1113C109.738 95.1829 109.805 95.2908 109.824 95.4114C109.843 95.5319 109.814 95.6551 109.742 95.754C109.67 95.8528 109.562 95.9192 109.441 95.9385C108.552 96.0662 107.655 96.127 106.758 96.1203Z" fill="#231F20"/>
<path d="M112.936 91.576C112.038 91.5787 111.151 91.3854 110.336 91.0097C109.521 90.634 108.799 90.085 108.221 89.4013C107.642 88.7177 107.221 87.916 106.988 87.0528C106.754 86.1896 106.713 85.2858 106.867 84.4051C107.152 82.8097 108.06 81.3918 109.393 80.4617C110.725 79.5317 112.373 79.1653 113.976 79.4427C115.498 79.6932 116.87 80.5062 117.817 81.7194C118.764 82.9326 119.217 84.4569 119.086 85.9882C118.955 87.5196 118.249 88.9453 117.109 89.981C115.969 91.0167 114.479 91.5862 112.936 91.576ZM107.771 84.5687C107.591 85.5829 107.717 86.6276 108.134 87.5702C108.551 88.5127 109.24 89.3106 110.113 89.8627C110.986 90.4148 112.004 90.6962 113.038 90.6711C114.071 90.646 115.074 90.3157 115.919 89.7219C116.483 89.3283 116.963 88.8279 117.332 88.2493C117.701 87.6708 117.952 87.0254 118.071 86.3502C118.19 85.6749 118.174 84.983 118.024 84.314C117.874 83.6449 117.593 83.0119 117.197 82.4511C116.602 81.6092 115.77 80.9618 114.806 80.5907C113.842 80.2196 112.789 80.1415 111.78 80.3662C110.771 80.5908 109.852 81.1082 109.139 81.853C108.425 82.5977 107.949 83.5364 107.771 84.5505V84.5687Z" fill="#231F20"/>
<path d="M101.018 91.1398C100.66 91.1411 100.303 91.1107 99.9507 91.0489C99.1337 90.9359 98.348 90.6602 97.6404 90.2382C96.9328 89.8162 96.3178 89.2566 95.8321 88.5927C95.3463 87.9288 94.9999 87.1743 94.8133 86.3741C94.6267 85.574 94.6038 84.7446 94.7461 83.9354C94.8883 83.1263 95.1927 82.354 95.6412 81.6646C96.0896 80.9752 96.6729 80.3828 97.3562 79.9228C98.0395 79.4628 98.8089 79.1446 99.6183 78.9871C100.428 78.8297 101.261 78.8363 102.068 79.0065C103.263 79.2159 104.369 79.7731 105.246 80.6079C106.123 81.4427 106.733 82.5176 106.997 83.697C107.262 84.8764 107.169 86.1074 106.732 87.2347C106.295 88.3619 105.532 89.335 104.541 90.031C103.508 90.7513 102.279 91.1384 101.018 91.1398ZM101.018 79.8245C100.065 79.8287 99.1316 80.0922 98.318 80.5866C97.5045 81.081 96.8421 81.7874 96.4024 82.6296C95.9627 83.4717 95.7625 84.4175 95.8234 85.3648C95.8843 86.3121 96.2039 87.2248 96.7478 88.0042C97.1421 88.5667 97.6443 89.0458 98.2254 89.414C98.8065 89.7823 99.4551 90.0323 100.134 90.1498C100.812 90.2672 101.507 90.2497 102.179 90.0983C102.851 89.9469 103.486 89.6645 104.048 89.2675C104.611 88.8739 105.091 88.3735 105.461 87.7949C105.83 87.2164 106.081 86.571 106.199 85.8958C106.318 85.2205 106.302 84.5286 106.152 83.8596C106.002 83.1905 105.721 82.5575 105.325 81.9967C104.845 81.3084 104.203 80.7474 103.456 80.3625C102.709 79.9776 101.878 79.7804 101.037 79.7881L101.018 79.8245Z" fill="#231F20"/>
<path d="M106.968 100.846C106.968 100.846 100.973 102.228 97.4413 100.228C97.4413 100.228 101.347 108.272 106.968 107.436V100.846Z" fill="#231F20"/>
<path d="M106.128 107.944C100.745 107.944 97.1858 100.737 97.0033 100.419C96.957 100.333 96.9418 100.234 96.96 100.138C96.9783 100.042 97.029 99.9552 97.1037 99.892C97.1726 99.8249 97.2618 99.7823 97.3575 99.7708C97.4531 99.7593 97.55 99.7795 97.6329 99.8284C100.973 101.728 106.758 100.419 106.831 100.41C106.898 100.394 106.967 100.392 107.035 100.407C107.102 100.421 107.165 100.45 107.22 100.492C107.274 100.534 107.318 100.588 107.349 100.649C107.38 100.71 107.396 100.778 107.397 100.846V107.426C107.396 107.535 107.355 107.64 107.283 107.722C107.211 107.803 107.112 107.857 107.004 107.872C106.714 107.917 106.422 107.941 106.128 107.944ZM98.5089 101.192C99.7682 103.246 102.752 107.29 106.512 107.017V101.41C105.115 101.664 101.438 102.182 98.5089 101.192Z" fill="#231F20"/>
<path d="M74.355 106.59C69.4549 107.499 49.608 153.16 56.4061 158.395C67.0094 166.575 103.902 158.304 103.902 158.304L100.9 144.126C100.9 144.126 77.1746 144.79 76.837 139.936C76.4994 135.083 90.634 112.671 88.7816 109.271C86.9293 105.872 74.355 106.59 74.355 106.59Z" fill="#233DFF"/>
<path d="M85.9164 162.985C85.8565 162.99 85.7961 162.984 85.7387 162.966C85.6813 162.948 85.628 162.919 85.5818 162.881C85.5356 162.842 85.4975 162.795 85.4696 162.742C85.4417 162.689 85.4245 162.631 85.4191 162.571C85.4137 162.512 85.4202 162.451 85.4381 162.394C85.4561 162.337 85.4852 162.284 85.5237 162.238C85.5623 162.192 85.6095 162.154 85.6628 162.126C85.7161 162.098 85.7744 162.081 85.8343 162.076L96.9942 160.167L97.3409 147.216L76.3534 145.062C76.2876 145.058 76.2238 145.038 76.1668 145.005C76.1098 144.972 76.0613 144.926 76.0249 144.871C75.9862 144.817 75.9603 144.754 75.9492 144.688C75.9381 144.622 75.9422 144.554 75.9611 144.49L85.3051 112.58C85.3389 112.464 85.4176 112.366 85.5237 112.308C85.6298 112.251 85.7547 112.237 85.8708 112.271C85.9856 112.306 86.0821 112.385 86.1399 112.49C86.1977 112.595 86.2125 112.718 86.1811 112.834L77.0561 144.226L97.8702 146.362C97.9847 146.373 98.0907 146.427 98.1668 146.513C98.243 146.599 98.2837 146.711 98.2808 146.825L97.9158 160.567C97.9129 160.673 97.8731 160.775 97.8031 160.854C97.7331 160.934 97.6375 160.987 97.5326 161.004L86.0077 162.985H85.9164Z" fill="#231F20"/>
<path d="M98.3082 148.861C102.253 149.098 106.213 148.906 110.116 148.289C112.998 147.592 115.956 147.253 118.922 147.28C122.835 147.468 126.685 148.345 130.291 149.87C130.44 149.918 130.573 150.006 130.675 150.125C131.021 150.606 130.191 151.033 129.598 151.097C128.029 151.133 126.463 150.934 124.953 150.506C128.685 151.885 132.214 153.756 135.447 156.068C135.821 156.332 136.223 156.741 136.04 157.159C135.858 157.577 135.128 157.495 134.626 157.277L126.139 153.415C128.338 154.285 130.377 155.514 132.171 157.05C132.427 157.277 132.7 157.568 132.627 157.904C132.509 158.468 131.66 158.359 131.131 158.104C128.551 156.824 126.088 155.325 123.767 153.624L129.005 157.613C129.069 158.041 128.621 158.404 128.183 158.422C127.75 158.392 127.334 158.244 126.979 157.995L121.139 154.632L124.789 157.177C125.364 157.577 126.012 158.222 125.701 158.859C125.391 159.495 124.251 159.377 123.493 159.04C120.486 157.74 117.343 156.777 114.122 156.168C112.995 155.799 111.828 155.564 110.645 155.469C108.841 155.693 107.06 156.079 105.325 156.623C102.688 157.214 100.051 157.823 97.4139 158.441" fill="white"/>
<path d="M124.807 159.786C124.302 159.761 123.807 159.64 123.347 159.431C120.37 158.138 117.258 157.181 114.067 156.577C113.666 156.505 113.273 156.387 112.881 156.277C112.176 156.033 111.437 155.905 110.691 155.896C109.473 155.998 108.27 156.236 107.105 156.605C106.539 156.759 105.982 156.914 105.444 157.032C102.807 157.632 100.17 158.232 97.5326 158.85C97.4252 158.872 97.3132 158.852 97.2199 158.795C97.1265 158.737 97.0588 158.646 97.0307 158.541C97.0172 158.487 97.0146 158.432 97.023 158.378C97.0314 158.324 97.0506 158.272 97.0795 158.225C97.1085 158.178 97.1465 158.138 97.1915 158.106C97.2364 158.075 97.2872 158.052 97.341 158.041C99.9781 157.423 102.624 156.823 105.261 156.223C105.782 156.105 106.329 155.959 106.886 155.805C108.113 155.415 109.38 155.165 110.663 155.06C111.495 155.08 112.318 155.221 113.109 155.478C113.483 155.587 113.848 155.696 114.231 155.769C117.485 156.379 120.659 157.352 123.694 158.668C124.13 158.908 124.636 158.991 125.127 158.904C125.176 158.889 125.221 158.863 125.259 158.829C125.297 158.794 125.326 158.752 125.346 158.704C125.537 158.268 124.78 157.695 124.543 157.523L120.893 154.987C120.803 154.924 120.742 154.83 120.72 154.724C120.698 154.618 120.717 154.507 120.774 154.414C120.834 154.325 120.926 154.261 121.031 154.238C121.137 154.214 121.247 154.232 121.34 154.287L127.18 157.65C127.467 157.862 127.809 157.988 128.165 158.013C128.235 158.009 128.304 157.991 128.366 157.96C128.429 157.928 128.485 157.885 128.53 157.832L123.484 153.987C123.433 153.957 123.389 153.917 123.355 153.869C123.32 153.821 123.297 153.766 123.285 153.708C123.274 153.651 123.274 153.591 123.288 153.534C123.301 153.476 123.326 153.422 123.362 153.375C123.397 153.328 123.442 153.289 123.494 153.261C123.546 153.232 123.603 153.215 123.662 153.21C123.721 153.205 123.78 153.213 123.836 153.232C123.892 153.252 123.943 153.283 123.986 153.324C126.286 155.013 128.728 156.5 131.286 157.768C131.546 157.915 131.852 157.96 132.144 157.895C132.198 157.804 132.144 157.677 131.861 157.404C130.634 156.343 129.286 155.428 127.846 154.678L125.93 153.769C125.84 153.718 125.773 153.636 125.74 153.539C125.708 153.442 125.712 153.336 125.752 153.242C125.793 153.147 125.867 153.071 125.96 153.028C126.053 152.984 126.159 152.976 126.258 153.006C126.924 153.269 127.572 153.569 128.211 153.914L134.763 156.905C135.008 157.035 135.29 157.083 135.566 157.041C135.675 156.877 135.483 156.623 135.173 156.405C131.968 154.114 128.47 152.262 124.771 150.897C124.67 150.86 124.587 150.785 124.541 150.688C124.495 150.591 124.489 150.48 124.524 150.379C124.558 150.277 124.63 150.191 124.725 150.141C124.82 150.09 124.931 150.078 125.035 150.106C126.499 150.527 128.02 150.72 129.543 150.679C129.686 150.679 129.827 150.649 129.958 150.591C130.088 150.533 130.205 150.448 130.3 150.343L130.091 150.252C126.531 148.742 122.731 147.874 118.867 147.689C116.297 147.646 113.732 147.917 111.229 148.498L110.152 148.698C106.231 149.315 102.254 149.51 98.29 149.279C98.2349 149.277 98.1807 149.264 98.1307 149.241C98.0806 149.217 98.0357 149.185 97.9984 149.144C97.9611 149.104 97.9322 149.056 97.9134 149.004C97.8945 148.953 97.886 148.898 97.8885 148.843C97.8884 148.788 97.8996 148.734 97.9215 148.683C97.9433 148.633 97.9754 148.588 98.0156 148.55C98.0558 148.513 98.1034 148.484 98.1553 148.465C98.2072 148.447 98.2624 148.439 98.3174 148.443C102.229 148.674 106.154 148.485 110.025 147.88L111.101 147.68C113.667 147.085 116.297 146.81 118.931 146.862C122.895 147.054 126.794 147.943 130.446 149.488C130.666 149.563 130.859 149.698 131.003 149.879C131.092 149.998 131.146 150.139 131.159 150.287C131.171 150.435 131.143 150.583 131.076 150.715C130.911 150.955 130.691 151.152 130.434 151.29C130.176 151.427 129.89 151.502 129.598 151.506C129.196 151.506 128.795 151.506 128.402 151.506C130.964 152.687 133.408 154.105 135.702 155.741C136.396 156.232 136.661 156.814 136.432 157.332C136.384 157.447 136.311 157.551 136.22 157.637C136.129 157.723 136.021 157.789 135.903 157.832C135.419 157.954 134.906 157.896 134.461 157.668L132.427 156.759C132.626 156.897 132.785 157.085 132.889 157.303C132.993 157.522 133.038 157.763 133.02 158.004C132.991 158.139 132.931 158.266 132.846 158.374C132.761 158.483 132.652 158.571 132.527 158.631C132.266 158.721 131.988 158.755 131.713 158.729C131.438 158.704 131.171 158.621 130.93 158.486C130.419 158.241 129.917 157.977 129.406 157.704C129.409 157.951 129.322 158.19 129.16 158.377C129.038 158.518 128.889 158.633 128.721 158.715C128.553 158.796 128.37 158.842 128.183 158.85C127.67 158.832 127.173 158.668 126.751 158.377L126.048 157.968C126.129 158.135 126.171 158.319 126.171 158.504C126.171 158.69 126.129 158.873 126.048 159.04C125.986 159.188 125.894 159.322 125.778 159.433C125.662 159.544 125.524 159.63 125.373 159.686C125.191 159.75 125 159.784 124.807 159.786Z" fill="#231F20"/>
<path d="M114.067 114.434C114.067 114.434 118.411 132.075 122.28 144.626L114.067 114.434Z" fill="white"/>
<path d="M122.316 145.035C122.228 145.035 122.142 145.006 122.072 144.954C122.001 144.902 121.949 144.828 121.924 144.744C118.055 132.338 113.711 114.752 113.656 114.534C113.643 114.48 113.64 114.424 113.648 114.369C113.657 114.315 113.676 114.262 113.705 114.215C113.733 114.167 113.772 114.126 113.817 114.093C113.861 114.061 113.913 114.038 113.967 114.025C114.074 114 114.187 114.019 114.281 114.077C114.375 114.134 114.443 114.227 114.469 114.334C114.514 114.506 118.858 132.111 122.681 144.499C122.713 144.604 122.702 144.717 122.65 144.813C122.599 144.91 122.512 144.983 122.407 145.017C122.378 145.027 122.347 145.033 122.316 145.035Z" fill="#231F20"/>
<path d="M166.162 165.911L165.934 168.383L110.116 176.509L110.673 173.918L166.162 165.911Z" fill="white"/>
<path d="M110.116 176.963C110.053 176.962 109.99 176.949 109.932 176.924C109.874 176.899 109.822 176.863 109.778 176.818C109.728 176.765 109.692 176.701 109.673 176.631C109.654 176.562 109.652 176.488 109.669 176.418L110.225 173.818C110.248 173.729 110.297 173.648 110.365 173.585C110.433 173.522 110.517 173.48 110.609 173.464L166.098 165.466C166.165 165.457 166.233 165.463 166.298 165.484C166.363 165.504 166.422 165.539 166.472 165.584C166.522 165.632 166.56 165.69 166.586 165.755C166.611 165.819 166.622 165.888 166.618 165.957L166.39 168.42C166.381 168.521 166.338 168.616 166.269 168.69C166.199 168.764 166.107 168.813 166.007 168.829L110.18 177.008L110.116 176.963ZM111.028 174.318L110.673 175.963L165.486 167.984L165.623 166.448L111.028 174.318Z" fill="#231F20"/>
<path d="M166.162 165.911C166.162 165.911 153.451 155.06 153.031 155.16C152.611 155.26 95.5433 162.076 95.5433 162.076L110.7 173.891L166.162 165.911Z" fill="white"/>
<path d="M110.673 174.373C110.572 174.373 110.475 174.338 110.399 174.273L95.233 162.458C95.1619 162.402 95.109 162.327 95.0809 162.241C95.0529 162.156 95.0509 162.064 95.0753 161.977C95.0998 161.891 95.1495 161.813 95.2182 161.755C95.2869 161.696 95.3714 161.659 95.4612 161.649C96.0269 161.585 152.036 154.896 152.949 154.741C153.204 154.687 153.578 154.587 166.463 165.593C166.529 165.65 166.579 165.725 166.604 165.809C166.63 165.892 166.632 165.981 166.609 166.066C166.583 166.15 166.534 166.224 166.468 166.282C166.402 166.34 166.321 166.378 166.235 166.393L110.755 174.391L110.673 174.373ZM96.6657 162.394L110.8 173.437L165.103 165.611C160.541 161.749 153.952 156.205 152.967 155.614C149.992 156.032 107.908 161.049 96.6657 162.394Z" fill="#231F20"/>
<path d="M110.116 176.509L95.2878 164.539L95.516 162.076L110.673 173.918L110.116 176.509Z" fill="white"/>
<path d="M110.116 176.963C110.01 176.963 109.907 176.928 109.824 176.863L95.005 164.893C94.9473 164.846 94.9015 164.787 94.8714 164.719C94.8413 164.651 94.8277 164.577 94.8316 164.503L95.0597 162.031C95.0693 161.95 95.1 161.873 95.1487 161.808C95.1974 161.743 95.2624 161.692 95.3373 161.659C95.4121 161.627 95.4942 161.615 95.5752 161.624C95.6562 161.634 95.7333 161.664 95.7988 161.712L110.955 173.528C111.022 173.581 111.073 173.652 111.102 173.732C111.131 173.812 111.137 173.899 111.12 173.982L110.563 176.581C110.545 176.657 110.508 176.727 110.455 176.784C110.403 176.841 110.336 176.884 110.262 176.908C110.217 176.936 110.168 176.954 110.116 176.963ZM95.7623 164.339L109.824 175.663L110.171 174.073L95.8901 162.939L95.7623 164.339Z" fill="#231F20"/>
<path d="M166.162 165.911L176.884 130.111L118.046 140.1L110.673 173.918L166.162 165.911Z" fill="white"/>
<path d="M110.673 174.373C110.611 174.372 110.55 174.359 110.493 174.334C110.437 174.309 110.386 174.273 110.344 174.227C110.294 174.173 110.257 174.108 110.237 174.037C110.216 173.966 110.212 173.891 110.225 173.818L117.598 140.009C117.616 139.92 117.66 139.838 117.725 139.775C117.79 139.711 117.874 139.67 117.963 139.654L176.811 129.657C176.887 129.642 176.965 129.648 177.039 129.672C177.112 129.697 177.178 129.741 177.23 129.798C177.281 129.856 177.317 129.926 177.333 130.002C177.349 130.078 177.345 130.156 177.322 130.23L166.6 166.039C166.572 166.12 166.522 166.193 166.456 166.249C166.39 166.305 166.311 166.342 166.226 166.357L110.746 174.355L110.673 174.373ZM118.429 140.5L111.266 173.373L165.806 165.502L176.236 130.684L118.429 140.5Z" fill="#231F20"/>
<path d="M197.707 112.171C197.596 112.171 197.488 112.131 197.406 112.057C197.323 111.983 197.271 111.881 197.26 111.771C196.949 108.762 199.203 105.063 199.304 104.909C199.335 104.857 199.375 104.812 199.424 104.777C199.472 104.741 199.528 104.715 199.586 104.701C199.645 104.686 199.705 104.684 199.765 104.693C199.825 104.702 199.882 104.723 199.933 104.754C200.034 104.82 200.106 104.922 200.133 105.039C200.161 105.156 200.141 105.279 200.079 105.382C200.079 105.382 197.889 109.017 198.163 111.671C198.169 111.731 198.164 111.791 198.146 111.848C198.129 111.906 198.101 111.96 198.062 112.006C198.024 112.053 197.977 112.091 197.924 112.119C197.871 112.148 197.812 112.165 197.752 112.171H197.707Z" fill="#231F20"/>
<path d="M235.019 159.967C234.932 159.966 234.847 159.941 234.773 159.895L224.58 153.369C224.477 153.304 224.404 153.201 224.378 153.082C224.351 152.964 224.373 152.84 224.438 152.737C224.504 152.635 224.607 152.563 224.726 152.536C224.845 152.51 224.97 152.532 225.073 152.597L235.265 159.122C235.367 159.189 235.439 159.293 235.465 159.412C235.49 159.531 235.468 159.656 235.402 159.758C235.359 159.821 235.302 159.872 235.236 159.908C235.169 159.945 235.095 159.965 235.019 159.967Z" fill="#D1D3D4"/>
<path d="M238.705 158.331C238.619 158.334 238.533 158.312 238.459 158.268L228.777 152.033C228.676 151.967 228.605 151.863 228.58 151.745C228.555 151.626 228.579 151.503 228.645 151.401C228.712 151.3 228.816 151.229 228.935 151.205C229.054 151.18 229.178 151.203 229.279 151.27L238.952 157.459C239.054 157.526 239.126 157.63 239.151 157.749C239.177 157.868 239.154 157.992 239.089 158.095C239.05 158.163 238.994 158.22 238.927 158.262C238.86 158.303 238.784 158.327 238.705 158.331Z" fill="#D1D3D4"/>
<path d="M242.255 157.123C242.168 157.12 242.083 157.095 242.009 157.05L232.218 150.797C232.116 150.731 232.045 150.627 232.02 150.509C231.995 150.39 232.019 150.267 232.085 150.165C232.152 150.064 232.256 149.993 232.375 149.969C232.494 149.944 232.618 149.967 232.719 150.034L242.474 156.287C242.576 156.352 242.647 156.454 242.673 156.572C242.698 156.689 242.676 156.812 242.611 156.914C242.573 156.975 242.521 157.026 242.459 157.063C242.397 157.099 242.327 157.12 242.255 157.123Z" fill="#D1D3D4"/>
<path d="M246.717 155.923C246.637 155.925 246.557 155.902 246.489 155.859L235.986 149.697C235.928 149.671 235.876 149.633 235.834 149.586C235.791 149.538 235.759 149.482 235.74 149.422C235.72 149.361 235.714 149.297 235.721 149.234C235.727 149.171 235.748 149.11 235.78 149.055C235.812 149 235.855 148.952 235.907 148.915C235.959 148.878 236.018 148.852 236.08 148.839C236.143 148.825 236.207 148.826 236.269 148.839C236.332 148.852 236.391 148.878 236.442 148.916L246.945 155.078C247.031 155.128 247.098 155.206 247.135 155.297C247.173 155.389 247.179 155.491 247.153 155.587C247.127 155.682 247.071 155.767 246.992 155.828C246.913 155.889 246.817 155.922 246.717 155.923Z" fill="#D1D3D4"/>
<path d="M249.902 154.841C249.818 154.843 249.736 154.821 249.665 154.778L239.162 148.616C239.059 148.552 238.985 148.451 238.956 148.334C238.927 148.217 238.945 148.093 239.007 147.989C239.036 147.937 239.075 147.891 239.123 147.854C239.17 147.818 239.225 147.792 239.283 147.777C239.341 147.763 239.402 147.76 239.461 147.77C239.52 147.78 239.577 147.802 239.627 147.834L250.13 153.996C250.216 154.047 250.282 154.124 250.32 154.216C250.357 154.308 250.364 154.409 250.338 154.505C250.312 154.601 250.255 154.686 250.177 154.746C250.098 154.807 250.001 154.84 249.902 154.841Z" fill="#D1D3D4"/>
</g>
<defs>
<clipPath id="clip0_393_5371">
<rect width="365" height="274" fill="white"/>
</clipPath>
</defs>
</svg>
