<svg width="365" height="274" viewBox="0 0 365 274" fill="none" xmlns="http://www.w3.org/2000/svg">
<g clip-path="url(#clip0_393_5593)">
<path opacity="0.24" d="M346.716 213.936C345.632 217.891 343.992 221.682 341.843 225.204C329.398 246.269 305.051 258.438 280.523 263.389C255.995 268.341 230.686 267.277 205.648 268.397C171.871 269.9 138.171 275.421 104.38 273.656C88.3626 272.791 72.4829 270.296 57.0027 266.213C46.63 263.471 25.1938 259.896 18.9199 250.563C14.9954 244.747 14.3499 233.849 14.2208 224.672C16.5703 225.029 18.894 225.567 20.9466 225.755C27.8919 226.381 34.9211 226.45 41.8857 226.656C56.6326 227.119 71.3903 227.426 86.1586 227.576C144.944 228.182 203.682 226.304 262.372 221.942C290.541 219.839 318.655 217.17 346.716 213.936Z" fill="#3850FF"/>
<path opacity="0.24" d="M82.833 230.514C77.8224 231.408 72.8562 232.559 67.7951 233.031C64.5095 233.346 60.8827 233.51 58.5007 235.788C57.9339 236.272 57.5578 236.941 57.4392 237.676C57.3065 239.249 58.9556 240.35 60.4341 240.929C64.7496 242.628 69.4316 243.113 74.063 243.409C81.5946 243.881 89.1514 243.893 96.7083 243.9H119.202C125.849 243.9 133.216 243.629 137.974 239.016C138.979 238.151 139.66 236.974 139.907 235.674C140.173 233.572 138.568 231.59 136.628 230.709C133.273 229.186 128.25 229.501 124.623 229.098C119.842 228.607 115.059 228.326 110.274 228.255C101.076 228.147 91.8883 228.903 82.833 230.514Z" fill="#6877FD"/>
<path opacity="0.24" d="M349.259 207.017C349.092 208.792 348.768 210.55 348.289 212.271C347.203 216.247 345.561 220.058 343.407 223.598C330.942 244.773 306.554 257.006 281.986 261.984C257.417 266.962 232.066 265.892 206.987 267.018C173.179 268.528 139.423 274.079 105.577 272.304C89.5323 271.434 73.6262 268.927 58.1204 264.822C-27.4263 262.19 41.3077 184.579 24.2092 111.588C26.0648 93.4395 28.2307 74.4165 38.8728 59.4084C51.461 41.6251 73.7473 32.7649 95.5552 28.9138C117.363 25.0626 139.792 25.2577 161.503 20.8339C196.927 13.5973 231.174 -5.92906 266.889 -0.366283C301.951 5.08951 330.399 37.5852 330.38 72.1323C330.38 96.3844 319.072 120.498 325.563 144.65C331.207 165.63 351.457 184.206 349.259 207.017Z" fill="#8C9AFF"/>
<path d="M140.431 121.018C140.349 121.034 140.264 121.034 140.182 121.018L69.0029 86.018C68.9273 85.9913 68.8582 85.9489 68.8002 85.8935C68.7422 85.8382 68.6966 85.7712 68.6664 85.6969C68.6362 85.6227 68.6221 85.5428 68.625 85.4627C68.6279 85.3826 68.6478 85.304 68.6833 85.2322C68.7189 85.1603 68.7692 85.0968 68.8311 85.0458C68.893 84.9949 68.965 84.9576 69.0423 84.9365C69.1197 84.9154 69.2006 84.9109 69.2798 84.9234C69.359 84.9359 69.4346 84.965 69.5017 85.0089L140.692 119.941C140.759 119.973 140.819 120.019 140.869 120.075C140.918 120.131 140.956 120.196 140.98 120.267C141.004 120.337 141.015 120.412 141.01 120.486C141.005 120.561 140.986 120.634 140.953 120.7C140.903 120.796 140.828 120.876 140.736 120.932C140.645 120.988 140.539 121.018 140.431 121.018Z" fill="#ACB5FF"/>
<path d="M270.817 100.01C270.817 100.01 274.218 93.343 273.685 90.6333C273.153 87.9235 272.28 79.783 272.28 79.783L294.627 81.8578L287.438 107.787" fill="white"/>
<path d="M287.416 108.377H287.257C287.109 108.335 286.984 108.236 286.908 108.103C286.831 107.97 286.81 107.812 286.849 107.663L293.844 82.3908L272.937 80.452C273.187 82.4928 273.878 88.3885 274.264 90.554C274.774 93.4225 271.486 100.01 271.339 100.293C271.268 100.43 271.147 100.534 271.001 100.583C270.854 100.632 270.695 100.621 270.556 100.554C270.487 100.52 270.426 100.473 270.375 100.415C270.325 100.358 270.286 100.29 270.262 100.218C270.238 100.145 270.228 100.068 270.234 99.9912C270.24 99.9147 270.261 99.8401 270.296 99.7717C271.203 97.9577 273.481 92.8216 273.119 90.7014C272.642 88.003 271.735 80.1459 271.701 79.8057C271.691 79.7196 271.7 79.6322 271.728 79.5499C271.755 79.4676 271.8 79.3924 271.86 79.3296C271.922 79.2683 271.997 79.2214 272.08 79.192C272.162 79.1626 272.249 79.1515 272.336 79.1595L294.627 81.257C294.712 81.2667 294.794 81.2939 294.868 81.3368C294.942 81.3798 295.007 81.4375 295.057 81.5064C295.106 81.5768 295.138 81.657 295.152 81.7413C295.166 81.8256 295.16 81.9119 295.137 81.9939L287.96 107.935C287.93 108.058 287.861 108.168 287.763 108.248C287.664 108.328 287.542 108.373 287.416 108.377Z" fill="#231F20"/>
<path d="M114.558 132.663C114.558 132.663 114.762 119.466 114.558 116.495C114.354 113.524 118.81 96.9939 117.744 94.3975C116.678 91.8011 113.708 90.7921 112.642 93.8533C111.576 96.9145 109.66 103.717 109.66 103.717C109.66 103.717 97.9595 96.5064 95.6126 101.45C93.2656 106.393 91.0774 115.588 93.5491 117.935C95.0519 119.333 96.9713 120.202 99.0139 120.407L98.379 137.153L114.558 132.663Z" fill="white"/>
<path d="M98.3792 137.776C98.2481 137.774 98.1209 137.731 98.0164 137.651C97.9442 137.596 97.8868 137.523 97.8492 137.44C97.8117 137.357 97.7951 137.266 97.801 137.175L98.4132 120.973C96.4449 120.658 94.6141 119.767 93.1525 118.411C90.182 115.622 92.9937 105.701 95.0799 101.245C95.2939 100.784 95.6087 100.376 96.0012 100.052C96.3936 99.7287 96.8537 99.4971 97.3475 99.3747C100.964 98.2409 107.279 101.642 109.354 102.776C109.876 100.928 111.282 96.0527 112.132 93.6038C112.277 92.9976 112.609 92.4525 113.081 92.0455C113.553 91.6386 114.142 91.3904 114.762 91.3362C115.567 91.3962 116.335 91.6932 116.971 92.1896C117.606 92.686 118.081 93.3596 118.334 94.1253C118.969 95.6899 118.073 100.531 116.611 107.731C115.924 110.576 115.447 113.467 115.182 116.382C115.397 119.352 115.182 132.062 115.182 132.606C115.184 132.732 115.143 132.855 115.068 132.956C114.992 133.056 114.884 133.129 114.762 133.162L98.5833 137.697C98.5244 137.742 98.4535 137.77 98.3792 137.776ZM98.9461 100.361C98.5057 100.357 98.0668 100.414 97.6423 100.531C97.3147 100.616 97.0103 100.773 96.7513 100.991C96.4924 101.209 96.2854 101.482 96.1457 101.79C93.8781 106.722 91.7693 115.543 93.9461 117.595C95.3555 118.884 97.1464 119.68 99.0482 119.862C99.2026 119.871 99.3473 119.94 99.4512 120.055C99.5552 120.169 99.6099 120.32 99.6037 120.474L98.9915 136.416L113.98 132.221C113.98 129.953 114.162 119.148 113.98 116.529C114.222 113.505 114.707 110.506 115.431 107.561C116.418 102.663 117.767 95.962 117.223 94.6128C117.052 94.07 116.73 93.5873 116.294 93.2216C115.858 92.856 115.327 92.6227 114.762 92.5493C113.889 92.5493 113.436 93.377 113.209 94.0459C112.155 97.0505 110.25 103.808 110.239 103.876C110.213 103.962 110.168 104.042 110.107 104.109C110.046 104.175 109.971 104.228 109.887 104.261C109.807 104.303 109.717 104.325 109.626 104.325C109.536 104.325 109.446 104.303 109.366 104.261C109.286 104.171 103.016 100.316 98.9461 100.316V100.361Z" fill="#231F20"/>
<path d="M159.683 211.926L143.889 272.209L183.413 269.602L192.166 239.84L205.964 268.49H241.372L219.762 186.246L159.683 211.926Z" fill="#231F20"/>
<path d="M215.806 204.113L157.212 215.043L171.781 128.501C171.781 128.501 201.611 122.515 208.821 122.515C214.899 122.47 215.806 204.113 215.806 204.113Z" fill="white"/>
<path d="M157.211 215.565C157.063 215.566 156.921 215.509 156.814 215.406C156.749 215.342 156.7 215.263 156.67 215.177C156.641 215.09 156.632 214.998 156.644 214.907L171.213 128.354C171.236 128.242 171.291 128.139 171.371 128.059C171.452 127.978 171.555 127.923 171.667 127.901C172.88 127.651 201.633 121.903 208.821 121.903C210.114 121.903 213.152 121.971 215.147 163.263C216.123 183.445 216.361 203.898 216.372 204.08C216.372 204.213 216.326 204.343 216.241 204.446C216.156 204.55 216.038 204.62 215.907 204.647L157.302 215.531L157.211 215.565ZM172.268 128.932L157.903 214.295L215.238 203.637C214.717 158.399 211.905 123.037 208.821 123.037C202.188 123.037 175.771 128.229 172.268 128.932Z" fill="#231F20"/>
<path d="M181.701 122.47C180.828 123.037 183.379 135.633 183.527 136.767C184.802 148.192 185.423 159.681 185.386 171.177C185.293 184.006 182.774 196.701 177.96 208.592C175.794 214.091 173.277 219.465 170.635 224.749C167.994 230.032 162.801 230.939 157.268 230.542C151.348 230.114 145.495 229.022 139.819 227.288C137.783 226.853 135.923 225.818 134.479 224.318C132.211 221.427 134.683 217.515 135.976 214.749C137.812 210.814 139.57 206.812 141.214 202.821C143.833 196.37 150.896 180.905 152.699 174.182C155.046 165.44 151.565 165.418 151.973 156.381C152.143 152.731 152.189 149.08 152.336 145.429C152.415 143.241 151.758 136.359 153.186 134.703C164.105 122.13 181.701 122.47 181.701 122.47Z" fill="#233DFF"/>
<path d="M225.465 120.451C225.828 120.519 224.048 149.839 224.172 151.302C225.113 162.424 241.406 206.166 241.406 206.166C241.406 210.191 200.782 234.283 198.186 227.061C210.227 163.569 201.928 122.492 201.644 122.47C201.655 122.47 216.111 118.671 225.465 120.451Z" fill="#233DFF"/>
<path d="M195.692 137.946L191.236 142.277L194.842 144.771C194.842 144.771 191.044 173.025 177.688 177.039C164.332 181.053 159.139 179.669 159.139 179.669L151.769 189.25C151.769 189.25 163.221 192.527 164.037 192.799C164.853 193.071 189.116 187.413 192.937 172.39C195.215 163.529 196.71 154.484 197.404 145.361L199.819 142.322L195.692 137.946Z" fill="#231F20"/>
<path d="M178.98 165.962C178.892 165.961 178.806 165.94 178.727 165.901C178.649 165.862 178.58 165.805 178.527 165.735L167.211 150.418C167.124 150.317 167.077 150.188 167.077 150.055C167.077 149.922 167.124 149.793 167.211 149.692L174.252 142.413L165.42 140.146C165.326 140.123 165.239 140.075 165.169 140.007C165.099 139.939 165.049 139.854 165.023 139.76C164.997 139.665 164.995 139.565 165.019 139.47C165.043 139.375 165.091 139.287 165.159 139.216L175.488 128.139C175.592 128.029 175.735 127.965 175.886 127.961C176.037 127.956 176.183 128.012 176.293 128.116C176.403 128.22 176.467 128.363 176.471 128.514C176.475 128.665 176.419 128.811 176.316 128.921L166.633 139.295L175.488 141.563C175.582 141.59 175.668 141.64 175.738 141.71C175.807 141.779 175.858 141.865 175.885 141.96C175.913 142.054 175.915 142.155 175.891 142.25C175.867 142.346 175.818 142.433 175.749 142.504L168.357 150.134L179.366 165.112C179.451 165.232 179.486 165.382 179.463 165.528C179.439 165.674 179.36 165.806 179.241 165.894C179.161 165.938 179.071 165.962 178.98 165.962Z" fill="#231F20"/>
<path d="M207.325 164.306C207.249 164.317 207.173 164.317 207.098 164.306C206.961 164.244 206.854 164.132 206.799 163.992C206.744 163.852 206.745 163.697 206.803 163.558L215.114 144.17L206.588 139.896C206.453 139.818 206.351 139.693 206.304 139.545C206.282 139.469 206.276 139.39 206.286 139.312C206.296 139.234 206.321 139.159 206.361 139.091L212.733 128.74L204.365 124.873C204.23 124.807 204.125 124.691 204.072 124.55C204.02 124.409 204.023 124.253 204.082 124.114C204.114 124.046 204.158 123.984 204.214 123.934C204.269 123.883 204.334 123.844 204.405 123.819C204.476 123.794 204.551 123.783 204.626 123.786C204.7 123.79 204.774 123.809 204.842 123.842L213.787 127.98C213.861 128.013 213.926 128.061 213.979 128.122C214.032 128.183 214.071 128.254 214.093 128.331C214.115 128.409 214.122 128.49 214.112 128.57C214.102 128.649 214.077 128.726 214.037 128.796L207.619 139.08L216.066 143.32C216.195 143.384 216.295 143.494 216.345 143.629C216.396 143.764 216.393 143.913 216.338 144.046L207.812 163.921C207.776 164.025 207.711 164.116 207.625 164.185C207.538 164.253 207.434 164.295 207.325 164.306Z" fill="#231F20"/>
<path d="M277.517 15.0215L291.043 42.4251L321.281 46.8242L299.399 68.1507L304.569 98.2754L277.517 84.0577L250.465 98.2754L255.635 68.1507L233.753 46.8242L263.991 42.4251L277.517 15.0215Z" fill="#FDB849"/>
<path d="M304.569 98.8417C304.478 98.8423 304.388 98.8188 304.308 98.7737L277.517 84.658L250.726 98.7397C250.638 98.7977 250.536 98.8286 250.431 98.8286C250.326 98.8286 250.223 98.7977 250.136 98.7397C250.049 98.6785 249.981 98.5936 249.941 98.4951C249.901 98.3966 249.89 98.2887 249.909 98.1841L255.023 68.3655L233.401 47.2431C233.324 47.1707 233.27 47.0779 233.244 46.9754C233.217 46.873 233.221 46.7653 233.254 46.6649C233.288 46.5655 233.348 46.4772 233.427 46.4093C233.507 46.3414 233.604 46.2965 233.708 46.2794L263.662 41.9256L277.052 14.7941C277.104 14.7047 277.178 14.6304 277.268 14.5788C277.357 14.5272 277.459 14.5 277.562 14.5C277.666 14.5 277.767 14.5272 277.857 14.5788C277.946 14.6304 278.021 14.7047 278.073 14.7941L291.463 41.9256L321.417 46.2794C321.521 46.2965 321.618 46.3414 321.697 46.4093C321.777 46.4772 321.837 46.5655 321.871 46.6649C321.904 46.7653 321.907 46.873 321.881 46.9754C321.855 47.0779 321.8 47.1707 321.723 47.2431L300.011 68.3542L305.125 98.1728C305.144 98.2774 305.133 98.3853 305.093 98.4838C305.053 98.5823 304.985 98.6671 304.898 98.7283C304.805 98.8035 304.689 98.8436 304.569 98.8417ZM277.517 83.5242C277.603 83.5022 277.692 83.5022 277.778 83.5242L303.855 97.2204L298.878 68.2295C298.863 68.138 298.87 68.0443 298.897 67.9558C298.925 67.8672 298.972 67.7863 299.036 67.7193L320.068 47.2431L290.964 43.0141C290.872 42.9989 290.785 42.9622 290.71 42.907C290.635 42.8519 290.575 42.7798 290.533 42.6966L277.517 16.3021L264.501 42.7079C264.46 42.7911 264.399 42.8632 264.324 42.9184C264.249 42.9736 264.162 43.0102 264.07 43.0254L234.966 47.2431L256.077 67.7419C256.141 67.809 256.189 67.8899 256.216 67.9784C256.244 68.0669 256.251 68.1606 256.236 68.2521L251.259 97.2431L277.336 83.5469C277.394 83.5287 277.456 83.5211 277.517 83.5242Z" fill="#BFC7FF"/>
<path d="M225.466 120.451C225.466 120.451 246.724 127.594 252.178 125.996C257.631 124.397 268.663 98.2632 268.663 98.2632L291.01 101.041C291.01 101.041 281.69 156.324 263.958 159.295C246.225 162.265 222.654 154.363 222.654 154.363L225.466 120.451Z" fill="#233DFF"/>
<path d="M173.742 100.009C172.835 95.9048 171.61 91.8458 171.248 87.6621C170.885 83.4785 171.452 79.0454 173.821 75.5873C176.372 71.8685 179.626 72.2993 183.549 71.7891C188.753 71.1089 193.402 68.5012 198.232 66.6191C199.15 66.2563 200.579 66.1769 200.749 67.152C200.776 67.4569 200.717 67.7633 200.579 68.0363C199.955 69.5792 199.086 71.0111 198.005 72.2767C201.783 71.419 205.407 69.989 208.753 68.0363C209.109 69.8861 209.045 71.7924 208.564 73.6138C208.083 75.4352 207.198 77.125 205.975 78.5578L212.359 75.3606C212.834 78.0531 212.266 80.8256 210.771 83.1147C209.276 85.4038 206.965 87.0379 204.309 87.6848" fill="white"/>
<path d="M173.742 100.587C173.61 100.59 173.48 100.546 173.377 100.463C173.273 100.38 173.202 100.264 173.175 100.134C172.937 99.068 172.676 98.0023 172.416 96.9252C171.602 93.9049 171.018 90.8273 170.67 87.7188C170.364 84.2494 170.579 79.2834 173.345 75.2472C175.613 71.9592 178.47 71.6871 181.52 71.415L183.481 71.2109C187.169 70.5443 190.745 69.3651 194.105 67.7075C195.386 67.1519 196.701 66.5737 198.017 66.0748C198.425 65.8982 198.864 65.8071 199.309 65.8071C199.754 65.8071 200.194 65.8982 200.602 66.0748C200.792 66.1755 200.957 66.319 201.083 66.4941C201.209 66.6692 201.293 66.8711 201.327 67.0839C201.38 67.4959 201.309 67.9144 201.123 68.2857C200.69 69.3581 200.143 70.3807 199.49 71.3356C202.632 70.4647 205.647 69.1879 208.459 67.5374C208.54 67.4928 208.632 67.4694 208.725 67.4694C208.818 67.4694 208.91 67.4928 208.992 67.5374C209.076 67.5766 209.149 67.635 209.206 67.7079C209.263 67.7808 209.302 67.8661 209.32 67.9569C209.925 71.0646 209.386 74.2862 207.801 77.0272L212.087 74.8844C212.168 74.8452 212.257 74.8248 212.348 74.8248C212.438 74.8248 212.527 74.8452 212.608 74.8844C212.689 74.9231 212.76 74.9801 212.815 75.051C212.87 75.1218 212.908 75.2045 212.926 75.2925C213.434 78.1371 212.837 81.0684 211.256 83.4875C209.676 85.9066 207.232 87.631 204.422 88.3084C204.347 88.3249 204.269 88.3263 204.194 88.3123C204.118 88.2984 204.046 88.2694 203.981 88.2272C203.917 88.1849 203.861 88.1302 203.818 88.0663C203.775 88.0024 203.746 87.9305 203.731 87.8549C203.704 87.7019 203.737 87.5444 203.824 87.4154C203.911 87.2865 204.044 87.1961 204.196 87.1633C206.715 86.5896 208.905 85.0403 210.284 82.8549C211.572 80.9019 212.13 78.5573 211.86 76.2336L206.191 79.0794C206.07 79.1344 205.934 79.147 205.806 79.1152C205.677 79.0833 205.562 79.0089 205.481 78.904C205.4 78.799 205.356 78.6696 205.357 78.5369C205.359 78.4041 205.405 78.2756 205.488 78.1723C206.561 76.9121 207.361 75.4437 207.839 73.8594C208.317 72.2751 208.462 70.6091 208.266 68.966C205.066 70.737 201.63 72.0426 198.062 72.8435C197.942 72.8694 197.817 72.8572 197.705 72.8087C197.592 72.7603 197.497 72.6779 197.434 72.5732C197.37 72.4684 197.341 72.3464 197.35 72.2242C197.359 72.102 197.406 71.9856 197.484 71.8912C198.531 70.6789 199.373 69.3042 199.978 67.8209C200.062 67.6438 200.105 67.45 200.103 67.254C200.099 67.2128 200.084 67.1734 200.06 67.1396C200.036 67.1058 200.004 67.0788 199.967 67.0612C199.443 66.9025 198.879 66.9387 198.379 67.1633C197.087 67.6621 195.772 68.2971 194.513 68.7846C191.047 70.4823 187.36 71.6881 183.561 72.3674C182.869 72.4581 182.2 72.5147 181.554 72.5828C178.561 72.8549 176.191 73.0703 174.241 75.9161C171.679 79.6576 171.475 84.3401 171.758 87.6168C172.108 90.6785 172.684 93.7102 173.481 96.6871C173.742 97.8209 174.003 98.8413 174.252 99.9184C174.283 100.07 174.252 100.228 174.167 100.357C174.082 100.486 173.95 100.577 173.799 100.61L173.742 100.587Z" fill="#231F20"/>
<path d="M201.655 117.538L203.005 126.336C203.005 126.336 201.621 139.137 191.95 136.892C182.279 134.647 178.424 125.928 178.424 125.928L177.188 102.685C177.188 102.685 184.32 98.7964 182.064 83.2749C189.99 86.5975 198.665 87.7217 207.177 86.5289C207.177 86.5289 210.578 102.515 209.535 109.998C209.361 111.997 208.465 113.865 207.015 115.252C205.565 116.639 203.66 117.452 201.655 117.538Z" fill="white"/>
<path d="M194.094 137.776C193.33 137.768 192.57 137.676 191.826 137.504C188.819 136.743 186.015 135.334 183.61 133.375C181.205 131.417 179.257 128.956 177.903 126.166C177.887 126.099 177.887 126.029 177.903 125.962L176.577 102.799C176.569 102.688 176.594 102.577 176.648 102.481C176.702 102.384 176.784 102.305 176.883 102.254C176.951 102.254 183.606 98.3088 181.418 83.4449C181.406 83.3396 181.422 83.233 181.464 83.1356C181.505 83.0383 181.572 82.9534 181.656 82.8893C181.74 82.8229 181.841 82.7823 181.948 82.7722C182.055 82.7622 182.162 82.7831 182.257 82.8326C190.088 86.0815 198.643 87.1851 207.041 86.0299C207.188 86.0126 207.335 86.0507 207.455 86.1368C207.574 86.2228 207.658 86.3505 207.688 86.4947C207.824 87.141 211.146 102.663 210.046 110.168C209.854 112.183 208.975 114.071 207.557 115.516C206.139 116.961 204.268 117.875 202.257 118.105L203.515 126.279C203.521 126.332 203.521 126.385 203.515 126.438C203.515 126.71 202.71 133.399 198.504 136.381C197.217 137.299 195.674 137.787 194.094 137.776ZM178.98 125.814C179.422 126.744 183.323 134.329 192.053 136.359C193.033 136.642 194.063 136.705 195.07 136.544C196.078 136.384 197.037 136.003 197.88 135.429C201.441 132.912 202.302 127.096 202.416 126.359L201.078 117.64C201.065 117.557 201.07 117.473 201.094 117.392C201.117 117.312 201.158 117.238 201.214 117.175C201.264 117.109 201.33 117.056 201.405 117.021C201.479 116.985 201.562 116.968 201.645 116.971C203.513 116.894 205.289 116.135 206.636 114.838C207.984 113.54 208.81 111.795 208.958 109.93C209.91 103.388 207.302 90.0095 206.69 87.2544C198.59 88.2361 190.373 87.2201 182.756 84.2952C184.377 97.5265 179.15 102.096 177.767 103.059L178.98 125.814Z" fill="#231F20"/>
<path d="M196.656 95.9275C196.656 95.9275 201.191 104.352 199.864 105.621C198.538 106.891 195.012 105.621 195.012 105.621" fill="white"/>
<path d="M197.937 106.756C196.886 106.732 195.846 106.545 194.853 106.2C194.777 106.181 194.706 106.146 194.644 106.097C194.582 106.049 194.531 105.988 194.494 105.918C194.457 105.849 194.435 105.773 194.429 105.695C194.423 105.616 194.433 105.537 194.459 105.463C194.485 105.389 194.526 105.321 194.58 105.264C194.634 105.206 194.699 105.161 194.771 105.13C194.843 105.099 194.921 105.083 195 105.084C195.078 105.085 195.156 105.102 195.227 105.134C196.044 105.429 198.629 106.064 199.502 105.225C200.057 104.715 198.47 100.429 196.18 96.2229C196.144 96.1575 196.121 96.0855 196.113 96.0113C196.105 95.9371 196.112 95.862 196.133 95.7903C196.154 95.7187 196.189 95.6519 196.236 95.5938C196.283 95.5358 196.341 95.4876 196.406 95.452C196.472 95.416 196.544 95.3934 196.618 95.3854C196.692 95.3773 196.767 95.3841 196.839 95.4051C196.911 95.4262 196.977 95.4612 197.036 95.5082C197.094 95.5551 197.142 95.6131 197.177 95.6787C198.629 98.3318 201.815 104.647 200.261 106.064C199.598 106.572 198.77 106.819 197.937 106.756Z" fill="#231F20"/>
<path d="M188.495 96.6006C189.02 96.5785 189.406 95.5868 189.355 94.3856C189.304 93.1844 188.837 92.2286 188.312 92.2507C187.786 92.2728 187.401 93.2645 187.452 94.4657C187.502 95.6669 187.969 96.6227 188.495 96.6006Z" fill="#231F20"/>
<path d="M203.674 96.5972C204.2 96.5751 204.585 95.5834 204.534 94.3822C204.484 93.181 204.017 92.2252 203.491 92.2473C202.966 92.2694 202.581 93.2611 202.631 94.4623C202.682 95.6635 203.149 96.6193 203.674 96.5972Z" fill="#231F20"/>
<path d="M183.368 98.7174C182.505 97.2602 181.374 95.9792 180.035 94.9419C179.346 94.32 178.483 93.9243 177.563 93.8081C176.807 93.816 176.068 94.0359 175.431 94.443C174.479 95.0007 173.655 95.7538 173.014 96.6527C172.373 97.5516 171.929 98.5759 171.713 99.6584C171.501 100.661 171.54 101.701 171.826 102.686C172.374 104.212 173.442 105.496 174.842 106.314C176.23 107.116 177.706 107.755 179.241 108.219" fill="white"/>
<path d="M179.241 108.842H179.048C177.464 108.366 175.942 107.703 174.513 106.869C172.997 105.984 171.845 104.59 171.259 102.935C170.94 101.856 170.893 100.715 171.123 99.6132C171.355 98.439 171.833 97.3271 172.524 96.3502C173.216 95.3734 174.106 94.5535 175.136 93.9443C175.864 93.4788 176.71 93.231 177.574 93.23C178.613 93.3397 179.593 93.7629 180.386 94.4431C181.78 95.529 182.957 96.8675 183.855 98.3887C183.934 98.5227 183.957 98.6824 183.919 98.8332C183.881 98.984 183.785 99.1136 183.651 99.1937C183.516 99.2718 183.355 99.293 183.204 99.2526C183.053 99.2122 182.924 99.1135 182.846 98.9783C182.03 97.5833 180.952 96.359 179.672 95.3728C179.069 94.8456 178.323 94.5101 177.529 94.4091C176.885 94.4182 176.257 94.6067 175.715 94.9533C174.843 95.477 174.089 96.1772 173.504 97.009C172.918 97.8407 172.513 98.7857 172.313 99.7833C172.129 100.693 172.164 101.634 172.415 102.527C172.922 103.917 173.901 105.085 175.182 105.826C176.533 106.608 177.972 107.228 179.468 107.674C179.54 107.699 179.607 107.737 179.664 107.787C179.722 107.838 179.769 107.899 179.803 107.967C179.836 108.036 179.856 108.11 179.861 108.187C179.866 108.263 179.855 108.339 179.83 108.411C179.799 108.541 179.722 108.656 179.614 108.734C179.506 108.813 179.374 108.851 179.241 108.842Z" fill="#231F20"/>
<path d="M201.656 117.538C196.097 118.396 190.409 117.459 185.42 114.863C185.42 114.863 193.696 127.584 202.925 125.792L201.656 117.538Z" fill="#231F20"/>
<path d="M201.066 126.608C192.404 126.608 185.193 115.746 184.91 115.27C184.843 115.164 184.813 115.039 184.823 114.915C184.833 114.79 184.883 114.672 184.966 114.578C185.049 114.484 185.161 114.42 185.285 114.397C185.408 114.375 185.536 114.395 185.647 114.454C190.53 116.978 196.085 117.894 201.52 117.073C201.673 117.046 201.831 117.078 201.962 117.163C202.026 117.208 202.079 117.266 202.12 117.332C202.161 117.398 202.188 117.472 202.2 117.549L203.47 125.792C203.496 125.936 203.465 126.085 203.382 126.206C203.299 126.327 203.172 126.41 203.028 126.438C202.381 126.557 201.724 126.614 201.066 126.608ZM187.132 116.404C189.683 119.658 195.76 126.29 202.245 125.474L201.112 118.343C196.355 118.925 191.529 118.229 187.132 116.324V116.404Z" fill="#231F20"/>
<path d="M189.342 102.084C187.822 102.084 186.336 101.633 185.072 100.789C183.807 99.9439 182.822 98.7434 182.24 97.3387C181.659 95.9341 181.506 94.3885 181.803 92.8974C182.1 91.4062 182.832 90.0365 183.907 88.9615C184.982 87.8864 186.352 87.1543 187.843 86.8577C189.334 86.5611 190.879 86.7133 192.284 87.2951C193.689 87.8769 194.889 88.8622 195.734 90.1263C196.579 91.3905 197.029 92.8767 197.029 94.397C197.026 96.4348 196.216 98.3883 194.775 99.8293C193.334 101.27 191.38 102.081 189.342 102.084ZM189.342 87.8778C188.053 87.8778 186.793 88.2601 185.72 88.9765C184.648 89.6928 183.813 90.711 183.319 91.9022C182.826 93.0935 182.697 94.4043 182.948 95.6689C183.2 96.9335 183.821 98.0951 184.733 99.0069C185.644 99.9186 186.806 100.539 188.07 100.791C189.335 101.043 190.646 100.913 191.837 100.42C193.028 99.9266 194.047 99.091 194.763 98.0189C195.479 96.9469 195.862 95.6864 195.862 94.397C195.859 92.6689 195.171 91.0125 193.949 89.7905C192.727 88.5686 191.07 87.8808 189.342 87.8778Z" fill="#231F20"/>
<path d="M204.672 102.084C203.152 102.084 201.665 101.633 200.401 100.789C199.137 99.9439 198.152 98.7434 197.57 97.3387C196.988 95.9341 196.836 94.3885 197.133 92.8974C197.429 91.4062 198.161 90.0365 199.236 88.9615C200.312 87.8864 201.681 87.1543 203.172 86.8577C204.664 86.5611 206.209 86.7133 207.614 87.2951C209.018 87.8769 210.219 88.8622 211.064 90.1263C211.908 91.3905 212.359 92.8767 212.359 94.397C212.356 96.4348 211.545 98.3883 210.104 99.8293C208.663 101.27 206.71 102.081 204.672 102.084ZM204.672 87.8778C203.383 87.8778 202.122 88.2601 201.05 88.9765C199.978 89.6928 199.142 90.711 198.649 91.9022C198.156 93.0935 198.027 94.4043 198.278 95.6689C198.53 96.9335 199.151 98.0951 200.062 99.0069C200.974 99.9186 202.136 100.539 203.4 100.791C204.665 101.043 205.976 100.913 207.167 100.42C208.358 99.9266 209.376 99.091 210.093 98.0189C210.809 96.9469 211.191 95.6864 211.191 94.397C211.188 92.6689 210.501 91.0125 209.279 89.7905C208.057 88.5686 206.4 87.8808 204.672 87.8778Z" fill="#231F20"/>
<path d="M196.702 111.449C193.119 111.449 189.661 109.273 186.407 105.044C186.35 104.986 186.307 104.917 186.279 104.842C186.251 104.766 186.24 104.686 186.246 104.605C186.252 104.525 186.275 104.447 186.313 104.376C186.351 104.305 186.404 104.244 186.469 104.195C186.533 104.146 186.606 104.112 186.685 104.094C186.763 104.076 186.845 104.075 186.923 104.091C187.002 104.107 187.077 104.139 187.142 104.186C187.208 104.233 187.262 104.294 187.302 104.363C190.33 108.286 193.493 110.293 196.702 110.316C201.135 110.316 204.207 106.483 204.241 106.449C204.336 106.341 204.469 106.273 204.613 106.259C204.756 106.245 204.9 106.286 205.014 106.374C205.128 106.462 205.205 106.591 205.227 106.733C205.25 106.876 205.218 107.022 205.137 107.141C204.978 107.334 201.656 111.449 196.702 111.449Z" fill="#231F20"/>
<path d="M157.212 130.848C153.187 134.714 123.379 164.862 121.146 159.306C118.912 153.751 117.325 128.252 117.325 128.252L96.9168 131.279C96.9168 131.279 85.1481 188.694 105.613 195.02C126.078 201.347 157.212 171.211 157.212 171.211V130.848Z" fill="#233DFF"/>
<path d="M140.431 205.214C140.331 205.215 140.233 205.187 140.147 205.135C140.083 205.098 140.026 205.049 139.98 204.99C139.935 204.932 139.901 204.864 139.882 204.792C139.863 204.72 139.859 204.645 139.869 204.572C139.88 204.498 139.905 204.427 139.943 204.364C140.068 204.137 153.129 180.826 157.37 143.797C157.392 143.648 157.47 143.514 157.588 143.422C157.706 143.329 157.855 143.285 158.005 143.298C158.153 143.315 158.289 143.39 158.382 143.507C158.476 143.624 158.519 143.773 158.503 143.922C154.229 181.2 141.054 204.692 140.918 204.931C140.869 205.016 140.798 205.087 140.712 205.137C140.627 205.187 140.53 205.213 140.431 205.214Z" fill="#231F20"/>
<path d="M259.592 159.885C244.343 159.885 215.976 153.502 215.692 153.434C215.619 153.417 215.55 153.387 215.488 153.344C215.427 153.301 215.375 153.246 215.335 153.183C215.295 153.12 215.268 153.049 215.255 152.976C215.242 152.902 215.245 152.826 215.261 152.753C215.276 152.68 215.305 152.61 215.348 152.548C215.391 152.486 215.446 152.434 215.51 152.395C215.574 152.355 215.645 152.33 215.719 152.319C215.794 152.309 215.869 152.314 215.942 152.334C216.225 152.39 244.468 158.751 259.581 158.751H260.715C260.864 158.751 261.008 158.809 261.116 158.912C261.224 159.016 261.287 159.157 261.293 159.307C261.294 159.381 261.281 159.455 261.254 159.524C261.227 159.594 261.187 159.657 261.135 159.711C261.083 159.764 261.022 159.807 260.954 159.837C260.885 159.867 260.812 159.883 260.737 159.885H259.592Z" fill="#231F20"/>
<path d="M105.386 101.494C105.386 101.494 108.969 105.315 107.211 112.016C105.454 118.716 102.495 119.952 97.4722 116.97" fill="white"/>
<path d="M101.883 119.103C100.193 118.99 98.5639 118.426 97.1661 117.47C97.1005 117.43 97.0434 117.378 96.998 117.317C96.9526 117.255 96.9197 117.186 96.9013 117.111C96.8829 117.037 96.8793 116.96 96.8906 116.884C96.902 116.809 96.9282 116.736 96.9676 116.671C97.0071 116.605 97.0591 116.548 97.1206 116.503C97.1821 116.457 97.252 116.424 97.3262 116.406C97.4004 116.387 97.4776 116.384 97.5532 116.395C97.6288 116.407 97.7015 116.433 97.767 116.472C100.035 117.844 101.781 118.241 103.096 117.708C104.615 117.096 105.771 115.191 106.633 111.869C108.277 105.588 105.08 102.05 104.944 101.903C104.835 101.793 104.774 101.644 104.774 101.489C104.774 101.334 104.835 101.186 104.944 101.075C104.997 101.02 105.06 100.977 105.13 100.947C105.2 100.917 105.276 100.902 105.352 100.902C105.428 100.902 105.504 100.917 105.574 100.947C105.644 100.977 105.707 101.02 105.76 101.075C105.919 101.245 109.547 105.214 107.733 112.141C106.747 115.894 105.465 118.003 103.504 118.774C102.989 118.984 102.439 119.096 101.883 119.103Z" fill="#231F20"/>
<path d="M273.685 90.6328C273.685 90.6328 267.143 79.6237 268.742 78.5013C270.34 77.3788 274.059 81.6645 276.111 84.567C276.111 84.567 282.404 85.7008 281.35 92.7076" fill="white"/>
<path d="M281.35 93.298H281.259C281.106 93.2729 280.969 93.1887 280.878 93.0635C280.787 92.9383 280.749 92.7823 280.771 92.6291C281.735 86.2572 276.236 85.1914 276.01 85.1574C275.859 85.1287 275.725 85.0435 275.635 84.9193C272.937 81.0985 269.966 78.3887 269.082 78.9896C268.663 79.7493 270.998 84.9647 274.195 90.3275C274.271 90.4604 274.292 90.6175 274.254 90.7656C274.216 90.9136 274.122 91.0411 273.991 91.1211C273.925 91.1618 273.852 91.1888 273.775 91.2006C273.699 91.2123 273.621 91.2086 273.546 91.1895C273.471 91.1705 273.4 91.1366 273.338 91.0898C273.277 91.043 273.225 90.9842 273.186 90.9171C270.08 85.679 266.724 79.1937 268.413 78.0146C270.681 76.4046 275 81.9828 276.463 84.035C277.676 84.3524 282.937 86.1211 281.928 92.7878C281.909 92.9281 281.84 93.0569 281.734 93.1506C281.628 93.2442 281.491 93.2966 281.35 93.298Z" fill="#231F20"/>
<path d="M73.1065 258.898C72.9911 258.897 72.8787 258.861 72.7845 258.794C72.6903 258.727 72.6187 258.634 72.5793 258.525C72.5399 258.417 72.5345 258.299 72.5638 258.187C72.5932 258.075 72.6559 257.975 72.7437 257.9L128.299 211.495C128.415 211.398 128.564 211.352 128.714 211.366C128.788 211.373 128.86 211.394 128.926 211.429C128.992 211.464 129.051 211.511 129.098 211.568C129.146 211.626 129.182 211.692 129.204 211.763C129.226 211.834 129.234 211.909 129.227 211.983C129.22 212.057 129.199 212.13 129.164 212.196C129.129 212.262 129.082 212.32 129.025 212.368L73.4693 258.774C73.3665 258.856 73.2382 258.9 73.1065 258.898Z" fill="#ACB5FF"/>
<path d="M328.696 239.261C328.574 239.262 328.454 239.222 328.356 239.148L243.232 174.636C243.162 174.595 243.102 174.541 243.055 174.475C243.008 174.41 242.975 174.336 242.959 174.257C242.943 174.178 242.944 174.096 242.962 174.018C242.98 173.939 243.015 173.866 243.063 173.802C243.112 173.738 243.174 173.685 243.245 173.646C243.315 173.608 243.393 173.585 243.474 173.579C243.554 173.573 243.635 173.585 243.71 173.612C243.786 173.64 243.855 173.684 243.912 173.74L329.037 238.241C329.157 238.331 329.236 238.466 329.258 238.614C329.279 238.763 329.24 238.914 329.15 239.035C329.097 239.104 329.028 239.161 328.949 239.2C328.871 239.24 328.784 239.261 328.696 239.261Z" fill="#ACB5FF"/>
<path d="M149.218 96.4951C149.138 96.4942 149.06 96.4766 148.987 96.4434C148.915 96.4101 148.851 96.3621 148.798 96.3023L107.267 49.8738C107.163 49.7659 107.104 49.6216 107.104 49.4713C107.104 49.321 107.163 49.1767 107.267 49.0688C107.32 49.0157 107.383 48.9735 107.452 48.9447C107.521 48.9159 107.595 48.9011 107.67 48.9011C107.745 48.9011 107.819 48.9159 107.888 48.9447C107.957 48.9735 108.02 49.0157 108.072 49.0688L149.592 95.4973C149.645 95.55 149.687 95.6128 149.716 95.6818C149.745 95.7509 149.759 95.825 149.759 95.8998C149.759 95.9747 149.745 96.0488 149.716 96.1179C149.687 96.1869 149.645 96.2496 149.592 96.3023C149.496 96.4113 149.362 96.4801 149.218 96.4951Z" fill="#ACB5FF"/>
<path d="M291.032 131.585C290.882 131.612 290.727 131.578 290.601 131.491C290.476 131.404 290.39 131.27 290.363 131.12C290.336 130.97 290.37 130.815 290.457 130.689C290.544 130.564 290.678 130.478 290.828 130.451L334.66 113.354C334.8 113.298 334.956 113.3 335.094 113.36C335.233 113.419 335.342 113.531 335.397 113.671C335.453 113.811 335.451 113.967 335.391 114.105C335.332 114.244 335.22 114.352 335.08 114.408L291.225 131.54C291.165 131.569 291.099 131.585 291.032 131.585Z" fill="#ACB5FF"/>
<path d="M222.654 92.526C222.572 92.5471 222.486 92.5471 222.404 92.526C222.337 92.4933 222.277 92.4477 222.228 92.3918C222.178 92.336 222.14 92.2709 222.116 92.2003C222.092 92.1297 222.082 92.0551 222.087 91.9806C222.091 91.9061 222.111 91.8333 222.144 91.7663L237.778 60.1564C237.845 60.0211 237.962 59.9176 238.104 59.8687C238.247 59.8198 238.403 59.8294 238.538 59.8956C238.673 59.9618 238.777 60.0789 238.826 60.2214C238.875 60.3639 238.865 60.5199 238.799 60.6552L223.198 92.2198C223.146 92.3176 223.067 92.3984 222.971 92.4527C222.874 92.5069 222.764 92.5324 222.654 92.526Z" fill="#ACB5FF"/>
<path d="M328.696 169.295H328.639L277.46 162.629C277.386 162.62 277.314 162.596 277.249 162.56C277.183 162.523 277.126 162.474 277.079 162.415C277.033 162.356 276.999 162.288 276.979 162.216C276.958 162.144 276.953 162.068 276.961 161.994C276.97 161.919 276.994 161.847 277.031 161.782C277.067 161.717 277.117 161.659 277.176 161.613C277.235 161.567 277.302 161.532 277.374 161.512C277.446 161.492 277.522 161.486 277.596 161.495L328.787 168.162C328.936 168.181 329.07 168.259 329.162 168.378C329.253 168.497 329.294 168.648 329.274 168.797C329.255 168.936 329.186 169.063 329.079 169.155C328.973 169.247 328.837 169.297 328.696 169.295Z" fill="#ACB5FF"/>
<path d="M233.753 111.45C233.667 111.451 233.583 111.432 233.506 111.395C233.429 111.357 233.362 111.302 233.31 111.234C233.262 111.177 233.226 111.112 233.204 111.04C233.182 110.969 233.175 110.895 233.182 110.821C233.19 110.747 233.212 110.675 233.247 110.61C233.283 110.544 233.332 110.487 233.39 110.441L241.02 104.262C241.138 104.169 241.287 104.126 241.436 104.143C241.584 104.16 241.72 104.235 241.814 104.352C241.908 104.468 241.952 104.617 241.937 104.765C241.923 104.914 241.85 105.051 241.735 105.146L234.104 111.325C234.004 111.404 233.88 111.448 233.753 111.45Z" fill="#ACB5FF"/>
<path d="M282.711 258.898C282.612 258.9 282.516 258.876 282.43 258.828C282.344 258.78 282.273 258.71 282.223 258.626L252.869 208.966C252.795 208.837 252.775 208.683 252.813 208.539C252.851 208.394 252.945 208.271 253.073 208.195C253.203 208.119 253.358 208.097 253.504 208.133C253.65 208.169 253.776 208.26 253.856 208.388L283.198 258.048C283.236 258.112 283.262 258.182 283.272 258.256C283.283 258.33 283.278 258.405 283.259 258.477C283.24 258.548 283.207 258.616 283.161 258.675C283.116 258.733 283.059 258.782 282.994 258.819C282.909 258.873 282.811 258.9 282.711 258.898Z" fill="#ACB5FF"/>
<path d="M121.621 261.721C121.53 261.722 121.44 261.699 121.36 261.653C121.229 261.583 121.13 261.465 121.086 261.322C121.041 261.18 121.054 261.026 121.122 260.894L133.038 238.422C133.074 238.356 133.122 238.299 133.18 238.252C133.238 238.205 133.305 238.17 133.377 238.149C133.448 238.127 133.523 238.121 133.598 238.129C133.672 238.137 133.744 238.159 133.809 238.195C133.875 238.23 133.932 238.277 133.979 238.334C134.026 238.391 134.061 238.457 134.082 238.528C134.103 238.598 134.11 238.673 134.102 238.746C134.094 238.819 134.072 238.89 134.036 238.955L122.131 261.427C122.08 261.516 122.005 261.591 121.916 261.642C121.826 261.694 121.725 261.721 121.621 261.721Z" fill="#ACB5FF"/>
<path d="M54.8304 190.962C54.7042 190.963 54.5816 190.92 54.4827 190.842C54.3838 190.764 54.3145 190.654 54.2861 190.531C54.252 190.385 54.277 190.232 54.3556 190.104C54.4342 189.977 54.56 189.886 54.7056 189.851L91.2476 181.54C91.3979 181.507 91.5552 181.535 91.6849 181.618C91.8147 181.701 91.9061 181.832 91.9392 181.982C91.9723 182.133 91.9442 182.29 91.8613 182.42C91.7784 182.549 91.6473 182.641 91.497 182.674L54.9551 190.973L54.8304 190.962Z" fill="#ACB5FF"/>
<path d="M171.145 57.2092C171.022 57.2111 170.902 57.172 170.803 57.0982C170.705 57.0243 170.633 56.9198 170.601 56.801L161.973 26.665C161.934 26.5192 161.954 26.3641 162.028 26.2328C162.102 26.1015 162.225 26.0044 162.369 25.9621C162.44 25.9414 162.514 25.9349 162.588 25.9432C162.661 25.9514 162.732 25.9741 162.796 26.01C162.86 26.0459 162.917 26.0942 162.962 26.1521C163.008 26.2101 163.041 26.2765 163.061 26.3476L171.723 56.4949C171.744 56.5656 171.75 56.6398 171.742 56.713C171.734 56.7862 171.711 56.8571 171.675 56.9214C171.639 56.9858 171.591 57.0424 171.533 57.0879C171.475 57.1334 171.409 57.1669 171.338 57.1865C171.276 57.2104 171.21 57.2182 171.145 57.2092Z" fill="#E6E7E8"/>
<path d="M209.717 47.5043H209.592C209.519 47.4882 209.45 47.4578 209.388 47.4148C209.327 47.3719 209.275 47.3172 209.235 47.2539C209.195 47.1907 209.168 47.1201 209.155 47.0463C209.142 46.9725 209.144 46.897 209.161 46.824L215.261 20.0326C215.294 19.8823 215.385 19.7512 215.515 19.6683C215.645 19.5854 215.802 19.5574 215.953 19.5905C216.103 19.6235 216.234 19.715 216.317 19.8447C216.4 19.9744 216.428 20.1317 216.395 20.2821L210.272 47.0621C210.242 47.1871 210.171 47.2984 210.07 47.3785C209.97 47.4586 209.845 47.5028 209.717 47.5043Z" fill="#E6E7E8"/>
<path d="M88.2093 135.191H65.6583C65.508 135.191 65.3638 135.131 65.2575 135.025C65.1512 134.919 65.0914 134.774 65.0914 134.624C65.0914 134.474 65.1512 134.329 65.2575 134.223C65.3638 134.117 65.508 134.057 65.6583 134.057H88.2093C88.3597 134.057 88.5039 134.117 88.6102 134.223C88.7165 134.329 88.7762 134.474 88.7762 134.624C88.7762 134.774 88.7165 134.919 88.6102 135.025C88.5039 135.131 88.3597 135.191 88.2093 135.191Z" fill="#ACB5FF"/>
</g>
<defs>
<clipPath id="clip0_393_5593">
<rect width="365" height="274" fill="white"/>
</clipPath>
</defs>
</svg>
