<svg width="645" height="294" viewBox="0 0 645 294" fill="none" xmlns="http://www.w3.org/2000/svg">
<g clip-path="url(#clip0_63_272)">
<rect width="645" height="294" rx="10" fill="white"/>
<rect x="-206" y="153.129" width="532.829" height="278.662" transform="rotate(-42.377 -206 153.129)" fill="#596FFF"/>
<rect x="1009.91" y="81.0957" width="870.786" height="505.764" transform="rotate(137.034 1009.91 81.0957)" fill="white"/>
<g opacity="0.2">
<path d="M689.228 -142.157C753.002 -185.743 784.857 -116.195 781.403 -56.9389C780.859 -22.87 821.702 -14.6208 821.003 27.5927C820.303 69.8062 762.104 39.4406 759.859 104.435C757.614 169.43 649.798 175.037 631.446 125.195C613.095 75.353 601.309 94.8174 546.304 57.5412C491.298 20.2649 514.78 -82.3526 577.428 -80.3144C640.076 -78.2762 620.192 -94.9749 689.228 -142.157Z" stroke="#2D2D2D" stroke-width="1.32603"/>
<path d="M671.472 -15.2573C677.412 -19.8001 691.836 -13.0055 690.113 -2.97489C688.535 6.21029 694.088 13.1092 693.987 18.9597C693.719 34.3617 689.364 30.2231 685.568 38.3687C680.948 48.2807 663.381 58.2773 657.507 41.1443C652.677 27.0533 647.278 33.6157 640.628 24.1038C633.979 14.5919 635.038 0.856072 648.628 -3.8029C653.732 -5.55249 661.579 -7.69125 671.472 -15.2573Z" stroke="#2D2D2D" stroke-width="1.32603"/>
<path d="M687.956 -130.74C746.473 -170.777 776.743 -106.933 773.447 -52.1522C772.809 -20.3455 810.443 -12.219 809.798 26.6887C809.138 66.4648 755.834 38.4835 753.448 98.3099C750.987 158.297 651.375 164.304 634.158 117.435C617.036 70.843 605.831 89.1345 555.221 54.3823C504.612 19.6301 526.056 -74.9073 584.244 -73.4779C641.66 -71.7841 624.297 -87.1592 687.956 -130.74Z" stroke="#2D2D2D" stroke-width="1.32603"/>
<path d="M686.682 -119.322C739.941 -155.809 768.627 -97.6704 765.488 -47.3644C764.756 -17.8198 799.182 -9.81613 798.591 25.7859C797.971 63.1246 749.561 37.5275 747.034 92.1858C744.357 147.165 652.95 153.571 636.867 109.676C620.974 66.3341 610.35 83.4527 564.136 51.2245C517.923 18.9963 537.328 -67.4609 591.056 -66.6404C643.242 -65.2909 628.399 -79.3423 686.682 -119.322Z" stroke="#2D2D2D" stroke-width="1.32603"/>
<path d="M685.41 -107.904C733.411 -140.842 760.513 -88.4083 757.531 -42.5774C756.705 -15.2949 787.923 -7.41396 787.387 24.8823C786.805 59.7836 743.29 36.5708 740.622 86.061C737.73 136.033 654.527 142.838 639.579 101.916C624.915 61.8244 614.871 77.7701 573.053 48.066C531.236 18.3618 548.603 -60.0152 597.871 -59.8035C644.825 -58.7984 632.504 -71.5262 685.41 -107.904Z" stroke="#2D2D2D" stroke-width="1.32603"/>
<path d="M684.135 -96.4855C726.879 -125.874 752.396 -79.1451 749.571 -37.7892C748.651 -12.7689 776.661 -5.01074 776.179 23.9798C775.637 56.4437 737.017 35.6152 734.208 79.9373C731.1 124.902 656.101 132.106 642.287 94.1577C628.853 57.3159 619.39 72.0887 581.968 44.9086C544.546 17.7284 559.875 -52.5685 604.683 -52.9656C646.406 -52.3048 636.606 -63.709 684.135 -96.4855Z" stroke="#2D2D2D" stroke-width="1.32603"/>
<path d="M682.628 -84.9871C720.114 -110.826 744.046 -69.8022 741.379 -32.9213C740.365 -10.1632 765.167 -2.52776 764.739 23.1571C764.236 53.1835 730.511 34.7393 727.561 73.8934C724.237 113.85 657.443 121.453 644.763 86.4788C632.558 52.8871 623.675 66.4869 590.65 41.8309C557.624 17.1748 570.914 -45.042 611.263 -46.048C647.754 -45.7315 640.475 -55.812 682.628 -84.9871Z" stroke="#2D2D2D" stroke-width="1.32603"/>
<path d="M680.842 -73.393C713.071 -95.6827 735.418 -60.3636 732.908 -27.9578C731.8 -7.46186 753.394 0.0508104 753.021 22.4299C752.557 50.019 723.727 33.959 720.636 67.945C717.096 102.895 658.506 110.896 646.961 78.8954C635.985 48.5538 627.683 60.9808 599.053 38.8488C570.423 16.7167 581.675 -37.4199 617.564 -39.0347C648.824 -39.0626 644.066 -47.8195 680.842 -73.393Z" stroke="#2D2D2D" stroke-width="1.32603"/>
<path d="M679.039 -61.7925C706.01 -80.5328 726.772 -50.9186 724.42 -22.9879C723.218 -4.75406 741.604 2.63586 741.285 21.7092C740.86 46.8609 716.925 33.1852 713.693 62.0031C709.937 91.9451 659.552 100.346 649.141 71.3186C639.394 44.2271 631.673 55.4812 607.439 35.8731C583.205 16.2651 592.418 -29.7913 623.848 -32.015C649.876 -32.3872 647.639 -39.8205 679.039 -61.7925Z" stroke="#2D2D2D" stroke-width="1.32603"/>
<path d="M677.216 -50.185C698.929 -65.3759 718.107 -41.4666 715.912 -18.0109C714.616 -2.03922 729.794 5.22795 729.529 20.9956C729.144 43.7098 710.104 32.4184 706.73 56.0682C702.758 81.0028 660.578 89.8025 651.301 63.7488C642.783 39.9074 635.643 49.9886 615.805 32.9045C595.967 15.8205 603.142 -22.1557 630.111 -24.9882C650.909 -25.7048 651.193 -31.8144 677.216 -50.185Z" stroke="#2D2D2D" stroke-width="1.32603"/>
<path d="M675.358 -38.5645C691.813 -50.206 709.407 -32.0016 707.369 -13.021C705.979 0.688539 717.948 7.83295 717.738 20.2949C717.392 40.5717 703.247 31.6646 699.733 50.1463C695.545 70.0733 661.569 79.272 653.426 56.1919C646.137 35.6006 639.578 44.5089 624.136 29.9489C608.694 15.3889 613.831 -14.5072 636.34 -17.9485C651.906 -19.0094 654.711 -23.7954 675.358 -38.5645Z" stroke="#2D2D2D" stroke-width="1.32603"/>
<path d="M673.453 -26.9263C684.65 -35.0185 700.659 -22.519 698.779 -8.01336C697.295 3.43398 706.056 10.4556 705.9 19.6118C705.594 37.4513 696.343 30.9284 692.688 44.2421C688.285 59.1616 662.513 68.7592 655.505 48.6527C649.445 31.3115 643.466 39.0469 632.42 27.0109C621.374 14.9749 624.472 -6.84099 642.522 -10.8911C652.857 -12.2964 658.183 -15.7588 673.453 -26.9263Z" stroke="#2D2D2D" stroke-width="1.32603"/>
</g>
</g>
<defs>
<clipPath id="clip0_63_272">
<rect width="645" height="294" rx="10" fill="white"/>
</clipPath>
</defs>
</svg>
