<svg width="44" height="19" viewBox="0 0 44 19" fill="none" xmlns="http://www.w3.org/2000/svg">
<g clip-path="url(#clip0_2262_10058)">
<path d="M8.31925 0.318359C7.70166 0.318359 7.3418 0.926984 7.3418 1.79848V2.36173V7.88849V8.46786C7.3418 9.31986 7.70166 9.93749 8.31925 9.93749C8.92539 9.93749 9.3011 9.31986 9.3011 8.46786V7.88849V2.36173V1.79848C9.3011 0.926984 8.92539 0.318359 8.31925 0.318359Z" fill="#1756C2"/>
<path d="M12.9136 2.96047H12.453V2.59485C12.453 2.18422 12.6403 2.01135 13.1355 2.08297C13.6624 2.1456 13.7806 1.71735 13.7806 1.37497C13.7806 1.11022 13.7202 0.975971 13.5602 0.738971C13.2188 0.306221 12.355 0.319346 12.355 0.319346C12.355 0.319346 11.5718 0.273221 11.0408 0.811721C10.5122 1.33597 10.5583 2.29072 10.5583 2.29072V2.96047H10.4735C10.1221 2.96047 9.74902 3.23985 9.74902 3.8136C9.74902 4.39147 10.1723 4.65622 10.5122 4.65622H10.5583V8.63647C10.5583 9.32085 10.8867 9.93847 11.5346 9.93847C12.1956 9.93847 12.453 9.34035 12.453 8.6751V4.65622H12.9136C13.168 4.65622 13.6738 4.4976 13.6738 3.84697C13.6738 3.1716 13.2752 2.96047 12.9136 2.96047Z" fill="#1756C2"/>
<path d="M18.4395 2.74023C18.1225 2.74023 17.8691 2.92248 17.7033 3.19848C17.3983 2.92811 16.9968 2.74023 16.5286 2.74023C14.5335 2.74023 13.6497 4.65648 13.6497 6.50673C13.6497 8.48748 14.7234 10.0197 16.5286 10.0197C16.9563 10.0197 17.3684 9.83786 17.7009 9.55811C17.8636 9.84123 18.1186 10.0197 18.4395 10.0197C19.06 10.0197 19.4137 9.40886 19.4137 8.54636V4.21886C19.4137 3.37136 19.06 2.74023 18.4395 2.74023ZM15.5875 6.41111C15.5875 4.83498 16.186 4.55561 16.5882 4.55561C16.604 4.55561 16.6243 4.55561 16.6384 4.55561C17.1004 4.60173 17.4644 4.99511 17.4644 6.47936C17.4644 7.93961 17.0699 8.23211 16.661 8.26136C16.6369 8.26136 16.6249 8.26136 16.5993 8.26136C16.1403 8.26136 15.5872 7.98161 15.5872 6.41111H15.5875Z" fill="#1756C2"/>
<path d="M6.58599 8.04375C6.48443 7.65375 4.83568 1.64888 4.75378 1.36575C4.66308 1.08075 4.57972 0.874502 4.38041 0.696752C4.05108 0.377627 3.34602 0.396752 3.34602 0.396752C3.34602 0.396752 2.65035 0.376127 2.31514 0.696752C2.11907 0.874877 2.03541 1.08113 1.94911 1.36575C1.86575 1.64888 0.216999 7.65375 0.103403 8.04375C0.0109414 8.42475 -0.0688985 8.89163 0.103403 9.27263C0.292436 9.62888 0.604457 9.93825 1.00777 9.93825C1.41665 9.93825 1.77916 9.71138 1.93767 9.07538C2.09177 8.42475 2.17249 8.10675 2.17249 8.10675H3.34602H4.52571C4.52571 8.10675 4.60232 8.42475 4.75789 9.07538C4.91317 9.71175 5.28478 9.93825 5.68251 9.93825C6.10079 9.93825 6.42044 9.62888 6.58599 9.27263C6.76505 8.89163 6.69577 8.42475 6.58599 8.04375ZM2.61572 6.03863L3.34602 2.99325L4.07837 6.03863H2.61572Z" fill="#1756C2"/>
<path d="M41.4354 17.1705H0V18.3131H41.4354C42.707 18.3131 43.7719 17.1191 43.9662 15.5723C43.3965 16.5454 42.4692 17.1705 41.4354 17.1705Z" fill="#EFCF00"/>
<path d="M43.9982 13.1091V12.1934H2.57014C1.15592 12.1934 0 13.6712 0 15.4799V16.3956H41.4354C42.8523 16.3956 43.9982 14.9155 43.9982 13.1091Z" fill="#D60F27"/>
<path d="M27.8806 2.66541C26.8325 2.66541 25.8133 4.45828 25.4517 5.15203C25.4678 4.99416 25.4948 4.75303 25.5527 4.47741C25.629 4.02066 25.695 3.37378 25.4517 2.99278C25.3093 2.77228 25.0992 2.66541 24.8174 2.66541C23.8467 2.66541 22.8877 4.24716 22.4777 5.02153C22.5261 4.79503 22.5842 4.51191 22.623 4.34841C22.6864 3.96778 22.8117 3.37416 22.6109 3.02803C22.4912 2.81466 22.2942 2.71866 22.0148 2.71866C21.558 2.71866 21.0499 2.99278 21.0288 2.99278L20.9252 3.05241L21.02 3.12366C21.02 3.12366 21.1597 3.30216 21.052 4.24716C20.8677 5.90841 20.4432 7.88878 20.2777 8.67441C20.1826 9.07491 20.1969 9.40228 20.3223 9.61941C20.4547 9.84028 20.6951 9.96703 20.995 9.96703C21.4136 9.96703 21.794 9.78853 21.8152 9.76303L21.8771 9.74241L21.8281 9.66178C21.8281 9.65653 21.6097 9.24216 21.8976 8.43666C22.8678 5.67928 23.6521 4.58166 23.8713 4.39416C23.923 4.36341 23.9532 4.32666 23.9905 4.32666C24.0146 4.32666 24.0266 4.34691 24.0266 4.36228C24.0507 4.37766 24.0548 4.44553 24.0507 4.50741C23.9717 5.46591 23.6547 7.06641 23.451 8.13666C23.4073 8.38116 23.3603 8.58028 23.3353 8.74753C23.2605 9.15741 23.2854 9.47541 23.4073 9.68691C23.5285 9.86203 23.7246 9.96291 24.002 9.96291C24.437 9.96291 24.8215 9.75891 24.8373 9.75516L24.9163 9.71428L24.8573 9.64603C24.8573 9.62016 24.6471 9.27028 24.9421 8.41753C25.6592 6.29653 26.6279 4.63941 26.8797 4.39866C26.9648 4.32216 27.0083 4.31241 27.0338 4.31241C27.042 4.31241 27.0459 4.31241 27.062 4.34316C27.082 4.36866 27.0902 4.45941 27.082 4.56928C27.0781 4.61016 27.05 4.74216 27.0274 4.93866C26.8838 5.67291 26.6287 7.19053 26.489 8.24653C26.4054 8.87691 26.4459 9.34941 26.6287 9.61828C26.777 9.83541 27.0089 9.96216 27.2909 9.96216C27.7832 9.96216 28.2382 9.56991 28.2584 9.55566L28.3303 9.49303L28.2643 9.43603C28.2643 9.43603 27.9159 9.01641 28.087 7.77891C28.2082 6.94941 28.3647 5.99503 28.483 5.30128C28.539 4.95366 28.5751 4.66453 28.6054 4.50666L28.6133 4.44441C28.6764 4.06378 28.7715 3.36853 28.5138 2.97478C28.3773 2.74678 28.1712 2.66016 27.8848 2.66016L27.8806 2.66541Z" fill="#D60F27"/>
<path d="M34.006 2.73989C33.7086 2.73989 33.4665 2.84152 33.3009 3.04664C33.1797 2.95139 32.7664 2.66602 32.224 2.66602C31.9143 2.66602 31.459 2.73989 30.9483 3.15352C30.3812 3.60239 29.903 4.31977 29.5129 5.30152C28.6306 7.49977 29.0536 9.10477 29.2755 9.49889C29.4686 9.84127 29.736 9.99577 30.1217 9.99577C30.6674 9.99577 31.3933 9.72164 32.5002 7.49976C32.4679 7.81252 32.4315 8.25239 32.4315 8.62739C32.4315 9.83752 33.0987 9.96801 33.374 9.96801C34.0867 9.96801 34.3353 9.54314 34.3374 9.52852L34.3656 9.48239L34.3374 9.43626C34.3292 9.42089 34.0051 8.99827 34.2185 6.74714C34.424 4.60214 35.0066 3.12389 35.0066 3.10589L35.0348 3.04627L34.9855 3.00502C34.9652 2.99489 34.4847 2.74027 34.0069 2.74027L34.006 2.73989ZM30.9266 8.34764C30.7813 8.34764 30.7038 8.02926 30.7038 7.69664C30.7038 7.33589 30.8447 5.25952 31.5327 4.19452C31.6854 3.98714 31.8668 3.85627 32.0482 3.85627C32.4887 3.85627 32.9006 4.45889 33.0027 4.61414C32.4685 6.00089 31.7182 7.43752 31.1846 8.14139C31.0866 8.28127 30.9917 8.34764 30.9266 8.34764Z" fill="#D60F27"/>
<path d="M39.4749 2.66602C38.7044 2.66602 37.7789 4.29539 37.3873 5.05139C37.4522 4.72439 37.5473 4.24252 37.6204 3.79889C37.6709 3.46627 37.6365 3.20677 37.5356 3.03239C37.4032 2.84152 37.1845 2.73989 36.8792 2.73989C36.4419 2.73989 35.9135 2.98402 35.8947 2.99339L35.8181 3.03427L35.8859 3.10814C35.8859 3.11864 36.0286 3.37664 35.9405 4.28302C35.8181 5.27077 35.3262 7.73339 35.1186 8.73052C35.0232 9.13102 35.0467 9.42352 35.1618 9.63127C35.3373 9.93502 35.6787 9.96989 35.9135 9.96989C36.3133 9.96989 36.7107 9.79139 36.7281 9.76551L36.8044 9.74527L36.7586 9.66464C36.7557 9.65939 36.5684 9.27764 36.7868 8.54039C37.3753 6.64214 38.0296 5.53327 38.4223 5.15264C38.513 5.07164 38.6055 5.02214 38.6962 5.02214C38.9119 5.02214 39.049 5.33152 39.049 5.33152L39.081 5.40877L39.1288 5.34614C39.3343 5.08514 39.7015 4.53089 39.8351 4.03064C39.9275 3.73102 40.0473 3.19814 39.8673 2.88877C39.7925 2.73427 39.6589 2.66602 39.4746 2.66602H39.4749Z" fill="#D60F27"/>
<path d="M43.925 3.55706C43.7087 3.65269 43.1777 3.71531 42.465 3.71531C42.3849 3.71531 42.3185 3.71531 42.2739 3.71531C42.3059 3.47981 42.4351 2.81419 42.5748 2.18306C42.6626 1.80244 42.6526 1.49006 42.5269 1.28794C42.4034 1.09444 42.2005 1.00781 41.8923 1.00781C41.4603 1.00781 40.8383 1.25456 40.8142 1.26881L40.7217 1.30481L40.8013 1.39706C41.0399 1.70906 40.781 3.21244 40.6701 3.77119C40.6578 3.80194 40.051 6.78394 40.051 8.20894C40.051 9.40444 40.5635 9.99694 41.5454 9.99694C42.0033 9.99694 42.6711 9.83906 43.1199 9.34181C43.316 9.12544 43.4022 8.81606 43.3506 8.48869C43.3224 8.25356 43.2311 8.06944 43.2311 8.06006L43.1991 7.97344L43.1416 8.04169C43.1337 8.04169 42.9317 8.29556 42.5281 8.46994C42.3758 8.52694 42.256 8.56594 42.1324 8.56594C42.0027 8.56594 41.8935 8.49769 41.7911 8.38744C41.5639 8.08931 41.7103 7.02469 41.7591 6.68269C41.8351 6.14194 42.0221 5.13581 42.0626 4.88381C42.1333 4.88381 42.2813 4.88006 42.4715 4.88006C42.6344 4.88006 42.7738 4.88381 42.9103 4.88381C43.7554 4.90444 43.9919 4.06556 44.0002 3.62231V3.51131L43.925 3.55706Z" fill="#D60F27"/>
</g>
<defs>
<clipPath id="clip0_2262_10058">
<rect width="44" height="18" fill="white" transform="translate(0 0.314453)"/>
</clipPath>
</defs>
</svg>
