<svg width="44" height="19" viewBox="0 0 44 19" fill="none" xmlns="http://www.w3.org/2000/svg">
<path fill-rule="evenodd" clip-rule="evenodd" d="M0 0.314453H44V18.3133H0V0.314453Z" fill="white"/>
<path fill-rule="evenodd" clip-rule="evenodd" d="M1.95394 1.44141H42.0458C42.6094 1.44141 43.0703 1.98028 43.0703 2.63916V6.33516H38.0529C37.7893 2.98828 24.5763 2.27503 22.2931 2.25516C18.6123 2.22291 5.93481 3.21891 5.93481 6.27028V6.33516H0.929443V2.63916C0.929443 1.98028 1.39032 1.44141 1.95394 1.44141Z" fill="#FF0000"/>
<path fill-rule="evenodd" clip-rule="evenodd" d="M5.93122 11.8051H0.929443V6.83594H5.93383C5.92959 8.39294 5.91133 10.3021 5.93122 11.8051ZM43.0703 6.83594V11.8051H38.0643C38.1037 10.2514 38.015 8.40344 38.0473 6.83594H43.0703Z" fill="#0000FF"/>
<path fill-rule="evenodd" clip-rule="evenodd" d="M43.0703 12.3086V15.9903C43.0703 16.6492 42.6094 17.1881 42.0458 17.1881H1.95394C1.39032 17.1881 0.929443 16.6492 0.929443 15.9903V12.3086H5.96482C6.58323 15.3161 16.9678 16.4977 22.163 16.5311C25.0893 16.5498 37.2723 15.48 38.0196 12.3086H43.0703Z" fill="#F9CD09"/>
<path fill-rule="evenodd" clip-rule="evenodd" d="M22.2313 3.1315C25.0849 3.16188 37.3077 4.58988 37.1952 6.3625C37.1009 7.85087 37.2927 10.7369 37.1952 12.2253C37.082 13.9503 24.9982 15.4585 22.154 15.4307C19.088 15.4011 6.84695 14.2345 6.79672 12.0655C6.76247 10.5741 6.79672 8.0185 6.79672 6.52675C6.79672 4.31275 19.118 3.09888 22.2313 3.1315ZM22.2186 4.49013C19.2791 4.46425 7.64508 5.27988 7.64508 7.0045C7.64508 8.167 7.61344 10.4627 7.64508 11.6249C7.69205 13.3581 19.2508 14.0492 22.1455 14.0725C24.8312 14.0939 36.2408 13.093 36.3478 11.749C36.4398 10.5895 36.2588 8.08 36.3478 6.92013C36.4538 5.53938 24.913 4.51338 22.2186 4.49013Z" fill="#E6252D"/>
<path fill-rule="evenodd" clip-rule="evenodd" d="M17.3603 9.47395C17.5104 9.55158 17.4817 9.9697 17.2964 10.4047C17.1111 10.8393 16.8378 11.1303 16.6874 11.0527C16.5374 10.9747 16.5661 10.5566 16.7514 10.1216C16.9366 9.68695 17.21 9.39595 17.3603 9.47395ZM27.5302 9.51145C27.6803 9.58945 27.6519 10.0076 27.4666 10.4422C27.2814 10.8768 27.0077 11.1678 26.8577 11.0902C26.7073 11.0122 26.736 10.5945 26.9213 10.1595C27.1065 9.72483 27.3802 9.43383 27.5302 9.51145ZM32.5226 9.3892C32.6047 9.46083 32.5307 9.73383 32.3575 9.99708C32.1843 10.2603 31.9762 10.4167 31.8944 10.3455C31.8122 10.2742 31.8862 10.0012 32.0594 9.73795C32.2326 9.4747 32.4404 9.31795 32.5226 9.3892ZM32.6279 8.82595C32.0571 8.7757 31.6748 9.23133 31.4746 9.68095C31.3157 10.0376 31.2684 10.5502 31.3819 10.9781C31.2176 11.1311 31.0121 11.2631 30.6856 11.3381C30.5235 11.3752 30.4341 11.2342 30.4357 11.1048C30.4396 10.7321 30.4745 10.4201 30.5675 10.0706C30.6057 9.9262 30.7358 9.97533 30.7798 9.85308C30.8705 9.59958 30.8816 9.3547 30.5907 9.39483C30.4041 9.42033 30.2015 9.45295 30.1944 9.16233C30.1875 8.87883 30.4889 8.72733 30.4439 8.70258C30.2775 8.6107 30.137 8.70183 29.9631 8.63058C29.9145 8.6107 29.9543 8.48358 29.9054 8.46445C29.8388 8.43933 29.7218 8.51995 29.6836 8.58708C29.5994 8.73558 29.6066 8.87095 29.544 9.04608C29.4918 9.1927 29.4863 9.35583 29.4576 9.51108C29.3669 9.81633 28.7919 10.7621 28.3695 11.0088C28.132 11.1472 27.9826 11.0253 28.056 10.7403C28.1542 10.3597 28.48 9.43345 28.6917 8.7802C28.4846 8.78583 28.301 8.80458 28.0939 8.8102C28.0697 8.89308 28.0338 8.9497 28.01 9.03258C27.5459 8.69095 27.2634 8.82183 26.8423 9.1702C26.5286 9.4297 26.2536 9.82195 26.1055 10.2918C26.0468 10.4782 26.0145 10.6672 26.0103 10.8442C25.7539 10.9507 25.4992 11.1086 25.2705 11.0696C25.2148 11.0598 25.1766 10.962 25.1893 10.8986C25.266 10.5187 25.4278 10.1673 25.5276 9.79458C25.5902 9.56058 25.7151 9.32058 25.6763 9.07945C25.6241 8.75508 25.264 8.74533 25.0677 8.86195C24.9013 8.96133 24.7741 9.13495 24.6081 9.23508C24.5748 9.25495 24.5275 9.23283 24.4998 9.20395C24.4284 9.1297 24.3945 9.01533 24.324 8.93995C24.2617 8.8732 24.1909 8.80383 24.1074 8.78433C24.0057 8.75995 23.8928 8.76933 23.7966 8.81508C23.5931 8.91258 23.4479 9.17845 23.2287 9.20395C23.1338 9.2152 23.1948 8.97745 23.1338 8.89308C22.9874 8.68945 22.8468 8.75995 22.6743 8.8462C22.3197 9.0232 21.9691 9.21145 21.6171 9.39483C21.6517 9.47658 21.6814 9.5617 21.7052 9.64983C21.8458 9.59433 21.9909 9.52383 22.1335 9.4837C22.199 9.46533 22.2789 9.4267 22.336 9.46833C22.3879 9.50583 22.4084 9.60295 22.3902 9.67045C22.1977 10.383 21.9394 11.0696 21.714 11.7693C21.9485 11.7641 22.1827 11.7588 22.4172 11.754C22.6292 11.1266 22.777 10.4658 23.0529 9.87258C23.1025 9.7657 23.2467 9.72445 23.3504 9.74808C23.4215 9.76458 23.446 9.88345 23.4587 9.96558C23.4743 10.0683 23.4606 10.1778 23.4316 10.2768C23.2839 10.7771 23.0979 11.2612 22.9313 11.754C23.1883 11.7483 23.4587 11.7746 23.7154 11.7693C23.9633 11.1161 24.0608 10.4467 24.3645 9.8257C24.4023 9.74845 24.6016 9.72333 24.6756 9.74808C24.7249 9.76458 24.781 9.8302 24.7702 9.88795C24.7046 10.2375 24.5367 10.5525 24.4594 10.8986C24.4232 11.0595 24.3928 11.2365 24.4323 11.3958C24.4652 11.5308 24.5533 11.6598 24.6622 11.7228C24.7549 11.7761 24.8772 11.7528 24.9731 11.7071C25.3371 11.5335 25.6743 11.295 26.0227 11.0823C26.0837 11.532 26.3648 11.8402 26.9004 11.7037C27.0873 11.6557 27.1891 11.5155 27.3626 11.4213C27.45 11.7435 27.6434 11.8755 27.9546 11.7285C28.7227 11.3658 29.1728 10.7355 29.741 9.79008C29.8327 9.8137 30.013 9.75408 30.1047 9.75558C30.0068 10.0957 29.4011 11.31 30.0342 11.6756C30.211 11.7776 30.3464 11.7442 30.5411 11.7037C30.9785 11.6118 31.2482 11.3985 31.4586 11.1986C31.5653 11.4393 31.7365 11.6313 31.9837 11.7183C32.4873 11.8961 33.0633 11.5897 33.4231 11.4071C33.6149 11.7877 34.1094 11.8578 34.3987 11.7367C34.7033 11.6092 34.9786 11.3861 35.2222 11.139C35.2728 11.0876 35.2673 10.9571 35.2167 10.9061C35.1691 10.8585 35.0898 10.9436 35.0393 10.9871C34.8289 11.1675 34.4072 11.6231 34.1694 11.2406C34.063 11.0688 34.1338 10.7793 34.2392 10.4512C34.3419 10.131 34.4411 9.71695 34.5415 9.39595C34.6854 9.38245 34.8465 9.40008 34.99 9.38658C35.052 9.18595 35.0784 9.0262 35.1407 8.82558C35.0438 8.81658 34.9111 8.8282 34.8142 8.8192C34.9039 8.28183 35.0967 7.7347 35.2601 7.19733C35.0399 7.2022 34.855 7.2172 34.6345 7.22208C34.4799 7.74445 34.3582 8.2567 34.1475 8.77945C34.0034 8.78433 33.8501 8.79933 33.7062 8.8042C33.6681 8.99958 33.6299 9.19495 33.5917 9.39033C33.702 9.38545 33.8566 9.38058 33.9668 9.3757C33.8269 9.98845 33.6746 10.5416 33.3628 11.0163C33.2519 11.1851 33.0598 11.2815 32.8794 11.3238C32.3275 11.454 32.1148 11.2485 32.0271 10.9608C32.2603 10.7362 32.4919 10.6301 32.7016 10.3773C33.0399 9.97045 33.4551 8.89833 32.6279 8.82595ZM13.4466 6.43945C12.5706 6.55533 11.2724 6.66595 10.531 7.22733C10.0946 7.55733 9.70322 8.19145 10.0949 8.83683C10.4775 9.4672 11.1612 9.2002 11.4378 8.78095C11.1214 8.73333 10.8689 8.66545 10.849 8.40483C10.7587 7.21983 11.7007 7.46508 12.6042 7.12608C12.1351 8.40183 11.7127 10.6766 10.5173 10.9575C9.6481 11.1618 9.2492 10.7201 9.04632 10.098C8.56457 11.1641 9.25344 11.6505 9.87185 11.76C10.4433 11.8616 11.1752 11.4513 11.5793 10.965C11.8651 10.7512 12.1505 10.5071 12.4104 10.23C12.4786 10.1572 13.4313 9.3187 13.3436 10.0125C13.2659 10.6237 13.0549 11.0696 12.8971 11.6606C13.1316 11.6655 13.3661 11.6707 13.6003 11.676C13.7715 11.0902 13.8977 10.4846 14.1143 9.91908C14.1521 9.82045 14.2513 9.7477 14.3443 9.73233C14.4304 9.71845 14.5559 9.74845 14.5876 9.84145C14.6434 10.0057 14.5641 10.2142 14.5233 10.3841C14.4574 10.662 14.0928 11.5668 14.5667 11.6362C15.0321 11.7041 15.5553 11.3212 15.8313 11.0636C15.8697 11.3328 15.993 11.5672 16.2396 11.7022C16.4096 11.7945 16.6199 11.7352 16.8029 11.6872C16.9516 11.6478 17.0736 11.5263 17.209 11.4461C17.1849 11.8365 17.5091 11.7903 17.726 11.6718C18.2165 11.4041 18.4905 11.2158 18.8255 11.0876C18.7909 11.0182 18.7602 10.9462 18.7335 10.8716C18.4925 10.9421 18.255 11.0763 18.0081 11.0546C17.9256 11.0471 17.9034 10.8735 17.9295 10.7835C18.2756 9.58945 18.7156 8.43408 19.1083 7.2592C18.9034 7.27458 18.7459 7.27458 18.5404 7.28958C18.379 7.79133 18.1699 8.30845 18.0081 8.81058C17.237 8.6482 16.5191 8.89608 16.0172 10.0001C15.9099 10.236 15.8339 10.512 15.8198 10.7775C15.6453 10.9091 15.4826 11.0445 15.2771 11.1033C15.2008 11.1255 15.1421 10.9878 15.1554 10.8986C15.2001 10.602 15.2898 10.3173 15.3769 10.0323C15.4363 9.8377 15.6561 9.27145 15.5746 9.07945C15.434 8.7472 15.2278 8.74908 15.0188 8.8477C14.75 8.97483 14.4764 9.2617 14.3306 9.20395C14.1159 9.11883 14.1769 8.7382 13.8547 8.78095C13.7529 8.79483 13.6495 8.84208 13.5598 8.89308C13.0999 9.1537 12.6635 9.5272 12.2242 9.8482C12.6459 8.91558 13.0461 7.6732 13.4466 6.43945Z" fill="#0000FF"/>
<path d="M20.1962 8.37109H20.1969C20.6317 8.37147 21.0267 8.57547 21.3127 8.90434V8.90472C21.5984 9.23359 21.7759 9.68734 21.7759 10.1868V10.1876C21.7759 10.6878 21.5984 11.142 21.3124 11.4708H21.3121C21.026 11.7993 20.6317 12.0033 20.1969 12.0033H20.1962C19.7611 12.0033 19.3661 11.7993 19.0804 11.4705C18.7944 11.1416 18.6169 10.6878 18.6169 10.188V10.1868C18.6169 9.68697 18.7944 9.23284 19.0804 8.90397C19.3665 8.57547 19.7611 8.37147 20.1959 8.37109H20.1962ZM20.1969 8.59272H20.1959C19.8143 8.59272 19.4676 8.77197 19.2168 9.06072C18.9653 9.34947 18.8094 9.74809 18.8094 10.1868V10.188C18.8097 10.6267 18.9653 11.0253 19.2164 11.3141C19.4676 11.6028 19.8146 11.7821 20.1962 11.7821H20.1969C20.5785 11.7817 20.9252 11.6028 21.1764 11.3141H21.1761C21.4275 11.0253 21.5834 10.6267 21.5834 10.1876V10.1868C21.5831 9.74809 21.4275 9.34947 21.1767 9.06072H21.1764C20.9252 8.77197 20.5785 8.59272 20.1969 8.59272Z" fill="#FF0000"/>
<path fill-rule="evenodd" clip-rule="evenodd" d="M20.1962 8.81445C20.8564 8.81445 21.3913 9.42945 21.3913 10.1881C21.3913 10.9467 20.8564 11.5621 20.1962 11.5621C19.5364 11.5621 19.0015 10.9467 19.0015 10.1881C19.0015 9.42945 19.5364 8.81445 20.1962 8.81445ZM20.1962 9.0972C20.7204 9.0972 21.1454 9.58583 21.1454 10.1881C21.1454 10.7907 20.7204 11.2793 20.1962 11.2793C19.6724 11.2793 19.2477 10.7907 19.2477 10.1881C19.2477 9.58583 19.6724 9.0972 20.1962 9.0972Z" fill="#FF0000"/>
<path fill-rule="evenodd" clip-rule="evenodd" d="M20.1962 9.36328C20.5919 9.36328 20.9128 9.73191 20.9128 10.1868C20.9128 10.6417 20.5919 11.0107 20.1962 11.0107C19.8006 11.0107 19.48 10.6417 19.48 10.1868C19.48 9.73191 19.8006 9.36328 20.1962 9.36328Z" fill="#FF0000"/>
</svg>
