<svg width="44" height="19" viewBox="0 0 44 19" fill="none" xmlns="http://www.w3.org/2000/svg">
<g clip-path="url(#clip0_2262_10031)">
<path d="M42.1967 11.3485V9.79903V6.70338H38.0065H35.2125V5.15392H42.1967V2.05664H35.2125H31.0222V5.15392V6.70338V9.79903H35.2125H38.0065V11.3485H31.0222V14.4458H38.0065H42.1967V11.3485Z" fill="#010101"/>
<path d="M29.6265 2.05664H26.8325V14.4441H29.6265V2.05664Z" fill="#010101"/>
<path d="M14.2622 2.05664V5.15392H22.6427V6.70338H17.0547H14.2622V9.79903V14.4458H17.0547V9.84618L21.2465 14.4458H25.4367L21.0646 9.79903H22.6427H25.4367V6.70338V5.15392V2.05664H22.6427H14.2622Z" fill="#010101"/>
<path d="M5.88013 9.79814H8.66679V6.70898H5.88013V9.79814ZM6.57973 7.47639H7.97599V9.02422H6.57973V7.47639Z" fill="#010101"/>
<path d="M4.4837 2.05664H2.03876C1.94637 2.05742 1.85792 2.09827 1.79236 2.17045C1.75975 2.20648 1.73389 2.24931 1.71627 2.29647C1.69865 2.34362 1.68962 2.39418 1.6897 2.44522V14.0572C1.68962 14.1082 1.69865 14.1588 1.71627 14.2059C1.73389 14.2531 1.75975 14.2959 1.79236 14.332C1.85807 14.4037 1.94655 14.444 2.03876 14.4441H8.67396V11.355H4.4837V2.05664Z" fill="#010101"/>
<path d="M12.5153 2.05664H5.88013V5.15392H10.0719V9.79903H12.8585V2.44522C12.8594 2.34292 12.8241 2.24431 12.7603 2.17045C12.6948 2.09909 12.6071 2.05835 12.5153 2.05664Z" fill="#010101"/>
<path d="M12.8655 11.3477H10.0715V18.3161H12.8655V11.3477Z" fill="#010101"/>
<path d="M5.588 0.314453H0.349067C0.256607 0.314881 0.168045 0.355787 0.102666 0.428263C0.0372866 0.500739 0.000386057 0.598914 0 0.70141L0 6.50901H0.698133V1.46882C0.700046 1.36746 0.737619 1.27094 0.802835 1.19986C0.868051 1.12878 0.955744 1.08877 1.0472 1.08837H5.59387L5.588 0.314453Z" fill="#010101"/>
<path d="M43.302 10.3789V15.4191C43.3016 15.5216 43.2647 15.6198 43.1993 15.6922C43.1339 15.7647 43.0454 15.8056 42.9529 15.8061H38.4062V16.5735H43.6452C43.6915 16.5741 43.7374 16.5646 43.7803 16.5455C43.8233 16.5263 43.8624 16.4979 43.8954 16.462C43.9284 16.426 43.9546 16.3831 43.9726 16.3359C43.9906 16.2886 43.9999 16.2378 44.0001 16.1865V10.3789H43.302Z" fill="#010101"/>
</g>
<defs>
<clipPath id="clip0_2262_10031">
<rect width="44" height="18" fill="white" transform="translate(0 0.314453)"/>
</clipPath>
</defs>
</svg>
