<svg width="18" height="14" viewBox="0 0 18 14" fill="none" xmlns="http://www.w3.org/2000/svg">
<path d="M15.666 0.333252H2.33268C1.41602 0.333252 0.674349 1.08325 0.674349 1.99992L0.666016 11.9999C0.666016 12.9166 1.41602 13.6666 2.33268 13.6666H15.666C16.5827 13.6666 17.3327 12.9166 17.3327 11.9999V1.99992C17.3327 1.08325 16.5827 0.333252 15.666 0.333252ZM15.3327 3.87492L9.44102 7.55825C9.17435 7.72492 8.82435 7.72492 8.55768 7.55825L2.66602 3.87492C2.45768 3.74159 2.33268 3.51659 2.33268 3.27492C2.33268 2.71659 2.94102 2.38325 3.41602 2.67492L8.99935 6.16658L14.5827 2.67492C15.0577 2.38325 15.666 2.71659 15.666 3.27492C15.666 3.51659 15.541 3.74159 15.3327 3.87492Z" fill="#2139F9" fill-opacity="0.9"/>
</svg>
