<svg width="12" height="17" viewBox="0 0 12 17" fill="none" xmlns="http://www.w3.org/2000/svg">
<path d="M5.99935 0.666748C2.77435 0.666748 0.166016 3.27508 0.166016 6.50008C0.166016 9.97508 3.84935 14.7667 5.36602 16.5917C5.69935 16.9917 6.30768 16.9917 6.64102 16.5917C8.14935 14.7667 11.8327 9.97508 11.8327 6.50008C11.8327 3.27508 9.22435 0.666748 5.99935 0.666748ZM5.99935 8.58342C4.84935 8.58342 3.91602 7.65008 3.91602 6.50008C3.91602 5.35008 4.84935 4.41675 5.99935 4.41675C7.14935 4.41675 8.08268 5.35008 8.08268 6.50008C8.08268 7.65008 7.14935 8.58342 5.99935 8.58342Z" fill="#2139F9" fill-opacity="0.9"/>
</svg>
