<svg width="16" height="16" viewBox="0 0 16 16" fill="none" xmlns="http://www.w3.org/2000/svg">
<path d="M14.0245 10.7166L11.9079 10.475C11.3995 10.4166 10.8995 10.5916 10.5412 10.95L9.00788 12.4833C6.64955 11.2833 4.71621 9.3583 3.51621 6.99163L5.05788 5.44997C5.41621 5.09163 5.59121 4.59163 5.53288 4.0833L5.29121 1.9833C5.19121 1.14163 4.48288 0.508301 3.63288 0.508301H2.19121C1.24955 0.508301 0.466212 1.29163 0.524546 2.2333C0.966212 9.34997 6.65788 15.0333 13.7662 15.475C14.7079 15.5333 15.4912 14.75 15.4912 13.8083V12.3666C15.4995 11.525 14.8662 10.8166 14.0245 10.7166Z" fill="#2139F9" fill-opacity="0.9"/>
</svg>
