<svg width="16" height="16" viewBox="0 0 16 16" fill="none" xmlns="http://www.w3.org/2000/svg">
<g clip-path="url(#clip0_863_5320)">
<path fill-rule="evenodd" clip-rule="evenodd" d="M7.05731 1.39968C7.29331 1.16399 7.60906 1.02531 7.94228 1.011C8.27549 0.996679 8.60198 1.10777 8.85731 1.32234L8.94265 1.40034L10.2093 2.66634H12C12.3362 2.6664 12.6601 2.79352 12.9066 3.02223C13.1531 3.25094 13.3041 3.56435 13.3293 3.89968L13.3333 3.99968V5.79034L14.6 7.05701C14.8359 7.29304 14.9746 7.60892 14.989 7.9423C15.0033 8.27567 14.8921 8.6023 14.6773 8.85768L14.5993 8.94234L13.3326 10.209V11.9997C13.3328 12.3361 13.2057 12.6601 12.977 12.9067C12.7483 13.1534 12.4348 13.3044 12.0993 13.3297L12 13.333H10.21L8.94331 14.5997C8.70729 14.8355 8.3914 14.9743 8.05803 14.9887C7.72465 15.003 7.39803 14.8918 7.14265 14.677L7.05798 14.5997L5.79131 13.333H3.99998C3.6636 13.3331 3.3396 13.2061 3.09295 12.9773C2.84629 12.7486 2.69521 12.4351 2.66998 12.0997L2.66665 11.9997V10.209L1.39998 8.94234C1.16411 8.70632 1.02531 8.39043 1.01099 8.05705C0.996677 7.72368 1.10788 7.39706 1.32265 7.14168L1.39998 7.05701L2.66665 5.79034V3.99968C2.66671 3.66341 2.79383 3.33958 3.02254 3.09307C3.25125 2.84655 3.56466 2.69556 3.89998 2.67034L3.99998 2.66634H5.79065L7.05731 1.39968ZM10.0526 5.98834L7.22331 8.81768L6.04465 7.63901C5.91955 7.514 5.74993 7.44381 5.57308 7.44387C5.39623 7.44394 5.22665 7.51425 5.10165 7.63934C4.97664 7.76444 4.90645 7.93407 4.90651 8.11091C4.90657 8.28776 4.97689 8.45734 5.10198 8.58234L6.70465 10.185C6.77275 10.2531 6.85361 10.3072 6.9426 10.3441C7.03159 10.3809 7.12698 10.3999 7.22331 10.3999C7.31965 10.3999 7.41503 10.3809 7.50403 10.3441C7.59302 10.3072 7.67388 10.2531 7.74198 10.185L10.9953 6.93101C11.1168 6.80527 11.1839 6.63687 11.1824 6.46208C11.1809 6.28728 11.1108 6.12007 10.9872 5.99646C10.8636 5.87286 10.6964 5.80275 10.5216 5.80123C10.3468 5.79971 10.1784 5.8669 10.0526 5.98834Z" fill="#7B7B7B"/>
</g>
<defs>
<clipPath id="clip0_863_5320">
<rect width="16" height="16" fill="white"/>
</clipPath>
</defs>
</svg>
