<svg width="16" height="16" viewBox="0 0 16 16" fill="none" xmlns="http://www.w3.org/2000/svg">
<path d="M8.00005 1.33301C11.682 1.33301 14.6667 4.31767 14.6667 7.99967C14.6667 11.6817 11.682 14.6663 8.00005 14.6663C6.92153 14.6678 5.8589 14.4065 4.90405 13.905L2.04405 14.6497C1.94848 14.6746 1.84808 14.674 1.75277 14.6482C1.65747 14.6223 1.57058 14.572 1.50072 14.5022C1.43086 14.4324 1.38045 14.3456 1.35449 14.2503C1.32853 14.155 1.32792 14.0546 1.35271 13.959L2.09671 11.0997C1.59391 10.1438 1.33189 9.07971 1.33338 7.99967C1.33338 4.31767 4.31805 1.33301 8.00005 1.33301ZM8.83471 8.66634H5.83338L5.76538 8.67101C5.64571 8.68747 5.53604 8.74671 5.45665 8.83777C5.37727 8.92882 5.33353 9.04554 5.33353 9.16634C5.33353 9.28714 5.37727 9.40386 5.45665 9.49492C5.53604 9.58597 5.64571 9.64521 5.76538 9.66167L5.83338 9.66634H8.83471L8.90205 9.66167C9.02172 9.64521 9.13139 9.58597 9.21077 9.49492C9.29016 9.40386 9.33389 9.28714 9.33389 9.16634C9.33389 9.04554 9.29016 8.92882 9.21077 8.83777C9.13139 8.74671 9.02172 8.68747 8.90205 8.67101L8.83471 8.66634ZM10.1667 6.33301H5.83338L5.76538 6.33767C5.64571 6.35414 5.53604 6.41338 5.45665 6.50443C5.37727 6.59549 5.33353 6.71221 5.33353 6.83301C5.33353 6.95381 5.37727 7.07053 5.45665 7.16158C5.53604 7.25264 5.64571 7.31188 5.76538 7.32834L5.83338 7.33301H10.1667L10.2347 7.32834C10.3544 7.31188 10.4641 7.25264 10.5434 7.16158C10.6228 7.07053 10.6666 6.95381 10.6666 6.83301C10.6666 6.71221 10.6228 6.59549 10.5434 6.50443C10.4641 6.41338 10.3544 6.35414 10.2347 6.33767L10.1667 6.33301Z" fill="#7B7B7B"/>
</svg>
