<svg width="16" height="16" viewBox="0 0 16 16" fill="none" xmlns="http://www.w3.org/2000/svg">
<path d="M6.03996 1.28714C4.77996 1.28047 3.55329 2.4938 4.11329 4.00047H1.99996C1.64634 4.00047 1.3072 4.14095 1.05715 4.39099C0.807102 4.64104 0.666626 4.98018 0.666626 5.3338V6.66714C0.666626 6.84395 0.736864 7.01352 0.861888 7.13854C0.986912 7.26357 1.15648 7.3338 1.33329 7.3338H7.33329V5.3338H8.66663V7.3338H14.6666C14.8434 7.3338 15.013 7.26357 15.138 7.13854C15.2631 7.01352 15.3333 6.84395 15.3333 6.66714V5.3338C15.3333 4.98018 15.1928 4.64104 14.9428 4.39099C14.6927 4.14095 14.3536 4.00047 14 4.00047H11.8866C12.6666 1.82047 9.73329 0.28047 8.37996 2.16047L7.99996 2.66714L7.61996 2.14714C7.19996 1.5538 6.61996 1.2938 6.03996 1.28714ZM5.99996 2.66714C6.59329 2.66714 6.89329 3.38714 6.47329 3.80714C6.05329 4.22714 5.33329 3.92714 5.33329 3.3338C5.33329 3.15699 5.40353 2.98742 5.52856 2.8624C5.65358 2.73737 5.82315 2.66714 5.99996 2.66714ZM9.99996 2.66714C10.5933 2.66714 10.8933 3.38714 10.4733 3.80714C10.0533 4.22714 9.33329 3.92714 9.33329 3.3338C9.33329 3.15699 9.40353 2.98742 9.52856 2.8624C9.65358 2.73737 9.82315 2.66714 9.99996 2.66714ZM1.33329 8.00047V13.3338C1.33329 13.6874 1.47377 14.0266 1.72382 14.2766C1.97387 14.5267 2.313 14.6671 2.66663 14.6671H13.3333C13.6869 14.6671 14.0261 14.5267 14.2761 14.2766C14.5262 14.0266 14.6666 13.6874 14.6666 13.3338V8.00047H8.66663V13.3338H7.33329V8.00047H1.33329Z" fill="#7B7B7B"/>
</svg>
