<svg width="28" height="28" viewBox="0 0 28 28" fill="none" xmlns="http://www.w3.org/2000/svg">
<path d="M9.33334 16.333C9.00278 16.333 8.7255 16.221 8.5015 15.997C8.2775 15.773 8.16589 15.4961 8.16667 15.1663C8.16667 14.8358 8.27867 14.5585 8.50267 14.3345C8.72667 14.1105 9.00356 13.9989 9.33334 13.9997C9.66389 13.9997 9.94117 14.1117 10.1652 14.3357C10.3892 14.5597 10.5008 14.8366 10.5 15.1663C10.5 15.4969 10.388 15.7742 10.164 15.9982C9.94 16.2222 9.66311 16.3338 9.33334 16.333ZM14 16.333C13.6694 16.333 13.3922 16.221 13.1682 15.997C12.9442 15.773 12.8326 15.4961 12.8333 15.1663C12.8333 14.8358 12.9453 14.5585 13.1693 14.3345C13.3933 14.1105 13.6702 13.9989 14 13.9997C14.3306 13.9997 14.6078 14.1117 14.8318 14.3357C15.0558 14.5597 15.1674 14.8366 15.1667 15.1663C15.1667 15.4969 15.0547 15.7742 14.8307 15.9982C14.6067 16.2222 14.3298 16.3338 14 16.333ZM18.6667 16.333C18.3361 16.333 18.0588 16.221 17.8348 15.997C17.6108 15.773 17.4992 15.4961 17.5 15.1663C17.5 14.8358 17.612 14.5585 17.836 14.3345C18.06 14.1105 18.3369 13.9989 18.6667 13.9997C18.9972 13.9997 19.2745 14.1117 19.4985 14.3357C19.7225 14.5597 19.8341 14.8366 19.8333 15.1663C19.8333 15.4969 19.7213 15.7742 19.4973 15.9982C19.2733 16.2222 18.9964 16.3338 18.6667 16.333ZM5.83334 25.6663C5.19167 25.6663 4.64217 25.4377 4.18484 24.9803C3.7275 24.523 3.49922 23.9739 3.5 23.333V6.99967C3.5 6.35801 3.72867 5.80851 4.186 5.35117C4.64334 4.89384 5.19245 4.66556 5.83334 4.66634H7V2.33301H9.33334V4.66634H18.6667V2.33301H21V4.66634H22.1667C22.8083 4.66634 23.3578 4.89501 23.8152 5.35234C24.2725 5.80967 24.5008 6.35879 24.5 6.99967V23.333C24.5 23.9747 24.2713 24.5242 23.814 24.9815C23.3567 25.4388 22.8076 25.6671 22.1667 25.6663H5.83334ZM5.83334 23.333H22.1667V11.6663H5.83334V23.333Z" fill="#7B7B7B"/>
</svg>
