<svg width="16" height="16" viewBox="0 0 16 16" fill="none" xmlns="http://www.w3.org/2000/svg">
<path d="M12 9.33333H13.3334V11.3333H15.3334V12.6667H13.3334V14.6667H12V12.6667H10V11.3333H12V9.33333ZM8.00004 2C11.6667 2 14.6667 4.38667 14.6667 7.33333C14.6667 7.72 14.6134 8.09333 14.52 8.45333C13.9101 8.13551 13.2286 7.98017 12.5412 8.00231C11.8538 8.02445 11.1837 8.22331 10.5955 8.57972C10.0072 8.93613 9.52077 9.43807 9.18294 10.0371C8.84511 10.6362 8.66732 11.3122 8.66671 12L8.72004 12.6333L8.00004 12.6667C7.17337 12.6667 6.38004 12.5467 5.64671 12.3333C3.70004 14 1.33337 14 1.33337 14C2.88671 12.4467 3.13337 11.4 3.16671 11C2.03337 10.0467 1.33337 8.76 1.33337 7.33333C1.33337 4.38667 4.33337 2 8.00004 2Z" fill="#7B7B7B"/>
</svg>
