<svg width="28" height="28" viewBox="0 0 28 28" fill="none" xmlns="http://www.w3.org/2000/svg">
<g clip-path="url(#clip0_863_5368)">
<path d="M14 2.33301C9.48501 2.33301 5.83334 5.98467 5.83334 10.4997C5.83334 15.3647 10.99 22.073 13.1133 24.628C13.58 25.188 14.4317 25.188 14.8983 24.628C17.01 22.073 22.1667 15.3647 22.1667 10.4997C22.1667 5.98467 18.515 2.33301 14 2.33301ZM14 13.4163C12.39 13.4163 11.0833 12.1097 11.0833 10.4997C11.0833 8.88967 12.39 7.58301 14 7.58301C15.61 7.58301 16.9167 8.88967 16.9167 10.4997C16.9167 12.1097 15.61 13.4163 14 13.4163Z" fill="#7B7B7B"/>
</g>
<defs>
<clipPath id="clip0_863_5368">
<rect width="28" height="28" fill="white"/>
</clipPath>
</defs>
</svg>
