<svg width="16" height="16" viewBox="0 0 16 16" fill="none" xmlns="http://www.w3.org/2000/svg">
<g clip-path="url(#clip0_863_5326)">
<path fill-rule="evenodd" clip-rule="evenodd" d="M7.99996 1.33301V5.66634C7.99996 5.93156 8.10532 6.18591 8.29285 6.37345C8.48039 6.56098 8.73474 6.66634 8.99996 6.66634H13.3333V13.333C13.3333 13.6866 13.1928 14.0258 12.9428 14.2758C12.6927 14.5259 12.3536 14.6663 12 14.6663H3.99996C3.64634 14.6663 3.3072 14.5259 3.05715 14.2758C2.8071 14.0258 2.66663 13.6866 2.66663 13.333V2.66634C2.66663 2.31272 2.8071 1.97358 3.05715 1.72353C3.3072 1.47348 3.64634 1.33301 3.99996 1.33301H7.99996ZM9.99996 9.99967H5.99996C5.82315 9.99967 5.65358 10.0699 5.52856 10.1949C5.40353 10.32 5.33329 10.4895 5.33329 10.6663C5.33329 10.8432 5.40353 11.0127 5.52856 11.1377C5.65358 11.2628 5.82315 11.333 5.99996 11.333H9.99996C10.1768 11.333 10.3463 11.2628 10.4714 11.1377C10.5964 11.0127 10.6666 10.8432 10.6666 10.6663C10.6666 10.4895 10.5964 10.32 10.4714 10.1949C10.3463 10.0699 10.1768 9.99967 9.99996 9.99967ZM6.66663 7.33301H5.99996C5.82315 7.33301 5.65358 7.40325 5.52856 7.52827C5.40353 7.65329 5.33329 7.82286 5.33329 7.99967C5.33329 8.17649 5.40353 8.34605 5.52856 8.47108C5.65358 8.5961 5.82315 8.66634 5.99996 8.66634H6.66663C6.84344 8.66634 7.01301 8.5961 7.13803 8.47108C7.26305 8.34605 7.33329 8.17649 7.33329 7.99967C7.33329 7.82286 7.26305 7.65329 7.13803 7.52827C7.01301 7.40325 6.84344 7.33301 6.66663 7.33301ZM9.33329 1.36167C9.58588 1.41524 9.81748 1.541 9.99996 1.72367L12.9426 4.66634C13.1253 4.84882 13.2511 5.08042 13.3046 5.33301H9.33329V1.36167Z" fill="#7B7B7B"/>
</g>
<defs>
<clipPath id="clip0_863_5326">
<rect width="16" height="16" fill="white"/>
</clipPath>
</defs>
</svg>
