<svg width="1512" height="516" viewBox="0 0 1512 516" fill="none" xmlns="http://www.w3.org/2000/svg">
<g clip-path="url(#clip0_34_32)">
<rect width="1512" height="516" fill="#5A74FD"/>
<path d="M1139.98 235C902.375 330.2 1126.98 387 1268.98 403.5C1357.14 412.5 1475.08 496.9 1241.48 762.5" stroke="black" stroke-opacity="0.05" stroke-width="43"/>
<g filter="url(#filter0_f_34_32)">
<circle cx="1370.5" cy="617.5" r="133.5" fill="#FFD863"/>
</g>
<path d="M93.3905 412.194C67.4964 418.897 37.9827 435.096 20.4416 452.133C5.1279 467.215 4.29262 468.891 4.29262 481.459C4.29262 492.352 5.68476 496.262 12.3671 502.965C19.0494 509.389 22.9475 511.065 32.971 511.065C43.2729 511.065 47.4494 509.11 61.6494 497.658C93.3905 472.242 128.473 463.584 161.328 473.08C208.939 487.045 238.731 526.426 238.731 575.303C239.01 624.739 206.99 665.795 159.1 677.805C141.002 682.274 138.218 682.274 118.171 678.084C89.214 671.94 80.8611 668.03 -60.5818 592.899C-136.872 552.401 -185.876 527.823 -190.887 527.823C-208.985 527.823 -221.236 540.391 -221.236 559.104C-221.236 564.41 -219.287 571.114 -217.06 574.465C-212.605 580.889 -161.374 609.657 -59.7465 663.282C27.9592 709.645 77.5199 733.385 97.2885 738.413C179.982 759.081 268.523 707.969 294.696 624.18C303.327 596.25 303.049 553.518 294.139 526.426C284.672 497.379 272.978 478.387 250.425 456.043C228.429 433.979 196.688 416.383 169.124 410.797C148.798 406.608 111.767 407.166 93.3905 412.194Z" fill="#E3F0FF" fill-opacity="0.05"/>
<path d="M-197.39 738.806C-171.496 732.103 -141.983 715.904 -124.442 698.867C-109.128 683.785 -108.293 682.109 -108.293 669.541C-108.293 658.648 -109.685 654.738 -116.367 648.035C-123.049 641.611 -126.947 639.935 -136.971 639.935C-147.273 639.935 -151.449 641.89 -165.649 653.342C-197.39 678.758 -232.473 687.416 -265.328 677.92C-312.939 663.955 -342.731 624.574 -342.731 575.697C-343.01 526.261 -310.99 485.205 -263.1 473.195C-245.002 468.726 -242.218 468.726 -222.171 472.916C-193.214 479.06 -184.861 482.97 -43.4182 558.101C32.8718 598.599 81.8756 623.177 86.8874 623.177C104.985 623.177 117.236 610.609 117.236 591.896C117.236 586.59 115.287 579.886 113.06 576.535C108.605 570.111 57.3737 541.343 -44.2535 487.718C-131.959 441.355 -181.52 417.615 -201.288 412.587C-283.982 391.919 -372.523 443.031 -398.696 526.82C-407.327 554.75 -407.049 597.482 -398.139 624.574C-388.672 653.621 -376.978 672.613 -354.425 694.957C-332.429 717.021 -300.688 734.617 -273.124 740.203C-252.798 744.392 -215.767 743.834 -197.39 738.806Z" fill="#FFFAE8" fill-opacity="0.05"/>
</g>
<defs>
<filter id="filter0_f_34_32" x="937" y="184" width="867" height="867" filterUnits="userSpaceOnUse" color-interpolation-filters="sRGB">
<feFlood flood-opacity="0" result="BackgroundImageFix"/>
<feBlend mode="normal" in="SourceGraphic" in2="BackgroundImageFix" result="shape"/>
<feGaussianBlur stdDeviation="150" result="effect1_foregroundBlur_34_32"/>
</filter>
<clipPath id="clip0_34_32">
<rect width="1512" height="516" fill="white"/>
</clipPath>
</defs>
</svg>
