<svg width="301" height="257" viewBox="0 0 301 257" fill="none" xmlns="http://www.w3.org/2000/svg">
<path d="M93.3905 4.19354C67.4964 10.8967 37.9827 27.0959 20.4416 44.133C5.1279 59.2151 4.29262 60.8909 4.29262 73.4592C4.29262 84.3518 5.68475 88.262 12.3671 94.9651C19.0494 101.389 22.9475 103.065 32.971 103.065C43.2729 103.065 47.4494 101.11 61.6494 89.6585C93.3905 64.2424 128.473 55.5842 161.328 65.0803C208.939 79.0452 238.731 118.426 238.731 167.303C239.01 216.739 206.99 257.795 159.1 269.805C141.002 274.274 138.218 274.274 118.171 270.084C89.214 263.94 80.8611 260.03 -60.5818 184.899C-136.872 144.401 -185.876 119.823 -190.887 119.823C-208.985 119.823 -221.236 132.391 -221.236 151.104C-221.236 156.41 -219.287 163.114 -217.06 166.465C-212.605 172.889 -161.374 201.657 -59.7465 255.282C27.9592 301.645 77.5199 325.385 97.2885 330.413C179.982 351.081 268.523 299.969 294.696 216.18C303.327 188.25 303.049 145.518 294.139 118.426C284.672 89.3792 272.978 70.3869 250.425 48.0432C228.429 25.9787 196.688 8.383 169.124 2.79706C148.798 -1.3924 111.767 -0.833832 93.3905 4.19354Z" fill="#E3F0FF" fill-opacity="0.05"/>
<path d="M-197.391 330.806C-171.496 324.103 -141.983 307.904 -124.442 290.867C-109.128 275.785 -108.293 274.109 -108.293 261.541C-108.293 250.648 -109.685 246.738 -116.367 240.035C-123.049 233.611 -126.947 231.935 -136.971 231.935C-147.273 231.935 -151.449 233.89 -165.649 245.342C-197.39 270.758 -232.473 279.416 -265.328 269.92C-312.939 255.955 -342.731 216.574 -342.731 167.697C-343.01 118.261 -310.99 77.2047 -263.1 65.1949C-245.002 60.7261 -242.218 60.7261 -222.171 64.9156C-193.214 71.0601 -184.861 74.9703 -43.4182 150.101C32.8718 190.599 81.8756 215.177 86.8874 215.177C104.985 215.177 117.236 202.609 117.236 183.896C117.236 178.59 115.287 171.886 113.06 168.535C108.605 162.111 57.3737 133.343 -44.2535 79.7184C-131.959 33.355 -181.52 9.61478 -201.289 4.58743C-283.982 -16.0806 -372.523 35.0308 -398.696 118.82C-407.327 146.75 -407.049 189.482 -398.139 216.574C-388.672 245.621 -376.978 264.613 -354.425 286.957C-332.429 309.021 -300.688 326.617 -273.124 332.203C-252.798 336.392 -215.767 335.834 -197.391 330.806Z" fill="#FFFAE8" fill-opacity="0.05"/>
</svg>
