<svg width="553" height="897" viewBox="0 0 553 897" fill="none" xmlns="http://www.w3.org/2000/svg">
<path d="M389.338 262.668C342.421 235.05 276.624 215.891 226.852 215.171C183.1 214.842 179.486 216.052 161.393 234.145C145.713 249.825 142.087 257.458 142.056 276.725C142.426 295.59 145.624 303.612 160.05 318.039C174.877 332.866 183.703 336.062 220.624 340.015C302.895 349.111 365.851 387.14 399.468 448.096C447.89 536.724 434.078 636.293 363.717 706.654C292.954 778.219 187.767 791.238 101.552 739.6C69.0714 719.986 65.0641 715.978 42.2422 681.095C9.41142 630.573 3.01828 612.922 -92.3996 301.196C-143.902 133.097 -179.049 27.1867 -186.262 19.9735C-212.31 -6.07409 -248.035 -5.61361 -274.973 21.3244C-282.612 28.9635 -289.456 41.4181 -291.075 49.4487C-293.911 65.1078 -261.588 180.255 -192.516 403.718C-133.028 596.69 -95.8726 702.196 -74.6577 737.885C14.6074 886.655 215.617 940.511 373.904 857.561C426.533 829.778 487.647 767.862 513.824 716.039C542.013 660.6 552.522 616.429 552.228 551.805C552.333 488.384 531.979 417.371 500.348 369.657C477.125 334.373 423.024 281.879 389.338 262.668Z" fill="#E3F0FF" fill-opacity="0.4"/>
</svg>
