<svg width="1512" height="453" viewBox="0 0 1512 453" fill="none" xmlns="http://www.w3.org/2000/svg">
<g clip-path="url(#clip0_32_253)">
<path d="M1844.46 553.931C1830.82 501.226 1797.84 441.153 1763.15 405.45C1732.45 374.28 1729.04 372.58 1703.45 372.58C1681.27 372.58 1673.31 375.414 1659.67 389.015C1646.59 402.616 1643.18 410.551 1643.18 430.952C1643.18 451.921 1647.16 460.422 1670.47 489.325C1722.21 553.931 1739.84 625.338 1720.51 692.211C1692.08 789.12 1611.91 849.759 1512.4 849.759C1411.76 850.326 1328.17 785.153 1303.73 687.677C1294.63 650.84 1294.63 645.173 1303.16 604.369C1315.67 545.43 1323.63 528.428 1476.58 240.534C1559.03 85.2526 1609.06 -14.4903 1609.06 -24.6913C1609.06 -61.5281 1583.48 -86.4638 1545.38 -86.4639C1534.58 -86.4639 1520.93 -82.4968 1514.11 -77.963C1501.03 -68.8955 1442.46 35.3812 1333.29 242.234C1238.9 420.751 1190.57 521.628 1180.34 561.865C1138.26 730.181 1242.32 910.398 1412.9 963.67C1469.76 981.239 1556.75 980.672 1611.91 962.537C1671.04 943.268 1709.7 919.466 1755.19 873.562C1800.11 828.791 1835.93 764.184 1847.31 708.079C1855.83 666.708 1854.7 591.335 1844.46 553.931Z" fill="#E3F0FF" fill-opacity="0.1"/>
<path d="M1179.54 -37.931C1193.18 14.7741 1226.16 74.8465 1260.85 110.55C1291.55 141.72 1294.96 143.42 1320.55 143.42C1342.73 143.42 1350.69 140.586 1364.33 126.985C1377.41 113.384 1380.82 105.449 1380.82 85.0475C1380.82 64.0788 1376.84 55.578 1353.53 26.6752C1301.79 -37.931 1284.16 -109.338 1303.49 -176.211C1331.92 -273.12 1412.09 -333.759 1511.6 -333.759C1612.24 -334.326 1695.83 -269.153 1720.27 -171.677C1729.37 -134.84 1729.37 -129.173 1720.84 -88.3691C1708.33 -29.4301 1700.37 -12.4285 1547.42 275.466C1464.97 430.747 1414.94 530.49 1414.94 540.691C1414.94 577.528 1440.52 602.464 1478.62 602.464C1489.42 602.464 1503.07 598.497 1509.89 593.963C1522.97 584.895 1581.54 480.619 1690.71 273.766C1785.1 95.2485 1833.43 -5.62782 1843.66 -45.865C1885.74 -214.181 1781.68 -394.398 1611.1 -447.67C1554.24 -465.239 1467.25 -464.672 1412.09 -446.537C1352.96 -427.268 1314.3 -403.466 1268.81 -357.562C1223.89 -312.791 1188.07 -248.185 1176.69 -192.079C1168.17 -150.709 1169.3 -75.3346 1179.54 -37.931Z" fill="#FFFAE8" fill-opacity="0.1"/>
</g>
<defs>
<clipPath id="clip0_32_253">
<rect width="1512" height="453" fill="white"/>
</clipPath>
</defs>
</svg>
